<?xml version="1.0" encoding="utf-8"?>
<!-- Generator: Adobe Illustrator 23.0.1, SVG Export Plug-In . SVG Version: 6.00 Build 0)  -->
<svg version="1.1" id="Layer_1" xmlns="http://www.w3.org/2000/svg" xmlns:xlink="http://www.w3.org/1999/xlink" x="0px" y="0px"
	 viewBox="0 0 16 16" style="enable-background:new 0 0 16 16;" xml:space="preserve">
<style type="text/css">
	.st0{fill:#FFFFFF;}
</style>
<path class="st0" d="M13.1,1H7.8c-4,0-7.2,3.2-7.2,7.2s3.2,7.2,7.2,7.2S15,12.2,15,8.2V2.9C15,1.8,14.1,1,13.1,1z M12.2,11.5
	c0,1-0.8,1.8-1.8,1.8H8.8c-0.1,0.2-0.4,0.4-0.6,0.4H7.4c-0.4,0-0.7-0.3-0.7-0.7s0.3-0.7,0.7-0.7h0.7c0.3,0,0.5,0.1,0.6,0.4h1.6
	c0.6,0,1.1-0.5,1.1-1.1h-0.7c-0.4,0-0.7-0.3-0.7-0.7V8.5c0-0.4,0.3-0.7,0.7-0.7h0.7V7.1c0-2-1.6-3.7-3.7-3.7C5.7,3.4,4,5,4,7.1v0.7
	h0.7c0.4,0,0.7,0.3,0.7,0.7v2.2c0,0.4-0.3,0.7-0.7,0.7H4.1c-0.4,0-0.7-0.3-0.7-0.7V7.1c0-2.4,2-4.4,4.4-4.4s4.4,2,4.4,4.4
	C12.2,7.1,12.2,11.5,12.2,11.5z"/>
</svg>
