<?xml version="1.0" encoding="utf-8"?>
<!-- Generator: Adobe Illustrator 23.0.1, SVG Export Plug-In . SVG Version: 6.00 Build 0)  -->
<svg version="1.1" id="Layer_1" xmlns="http://www.w3.org/2000/svg" xmlns:xlink="http://www.w3.org/1999/xlink" x="0px" y="0px"
	 viewBox="0 0 16 16" style="enable-background:new 0 0 16 16;" xml:space="preserve">
<style type="text/css">
	.st0{fill:#C3CAD0;}
	.st1{fill-rule:evenodd;clip-rule:evenodd;fill:#C3CAD0;}
</style>
<path class="st0" d="M8,2c0.3,0,0.5,0.2,0.5,0.5V4c0,0.3-0.2,0.5-0.5,0.5C7.7,4.5,7.5,4.3,7.5,4V2.5C7.5,2.2,7.7,2,8,2z M3.7,3.7
	c0.2-0.2,0.5-0.2,0.7,0l0.9,0.9c0.2,0.2,0.2,0.5,0,0.7s-0.5,0.2-0.7,0L3.7,4.4C3.5,4.2,3.5,3.9,3.7,3.7z M2,8c0-0.3,0.2-0.5,0.5-0.5
	h1.6c0.3,0,0.5,0.2,0.5,0.5c0,0.3-0.2,0.5-0.5,0.5H2.5C2.2,8.5,2,8.3,2,8z M11.5,8c0-0.3,0.2-0.5,0.5-0.5h1.5C13.8,7.5,14,7.7,14,8
	c0,0.3-0.2,0.5-0.5,0.5H12C11.7,8.5,11.5,8.3,11.5,8z M12.3,3.8c-0.1-0.1-0.4-0.2-0.5,0L7.5,7.3C7.2,7.6,7.1,8.2,7.4,8.6
	C7.8,9,8.3,9,8.7,8.7c0,0,0.1-0.1,0.1-0.1l3.4-4.3C12.4,4.1,12.4,3.9,12.3,3.8L12.3,3.8z"/>
<path class="st1" d="M6.7,15.9C2.3,15.2-0.6,11,0.1,6.7S5-0.6,9.3,0.1c4.4,0.7,7.3,4.9,6.6,9.2C15.2,13.7,11,16.6,6.7,15.9L6.7,15.9
	L6.7,15.9z M2,11.6C3.8,10.6,5.9,10,8,10c2.2,0,4.2,0.6,6,1.6C16,8.3,14.9,4,11.6,2S4,1.1,2,4.4C0.7,6.6,0.7,9.4,2,11.6z"/>
</svg>
