<svg xmlns="http://www.w3.org/2000/svg" viewBox="0 0 83.79 82.78"><defs><style>.cls-1{isolation:isolate;}.cls-2,.cls-7{fill:#d1c5bd;}.cls-3{fill:#f7f4f2;}.cls-4{fill:#f75f3c;}.cls-5{fill:#635952;}.cls-6{fill:#a3978e;}.cls-7{mix-blend-mode:multiply;}</style></defs><title>1</title><g class="cls-1"><g id="Layer_2" data-name="Layer 2"><path class="cls-2" d="M37.39,76.5,72.15,41.73a4.66,4.66,0,0,0,0-6.57l-7-6.95a4.67,4.67,0,0,0-6.58,0L23.87,63Z" transform="translate(-5.87 -11.71)"/><path class="cls-3" d="M36.29,75.4,70,41.73a4.65,4.65,0,0,0,0-6.57L65.21,30.4a4.68,4.68,0,0,0-6.58,0L25,64.07Z" transform="translate(-5.87 -11.71)"/><path class="cls-4" d="M56.71,55,70,41.73a4.65,4.65,0,0,0,0-6.57L65.21,30.4a4.68,4.68,0,0,0-6.58,0L45.38,43.65Z" transform="translate(-5.87 -11.71)"/><polygon class="cls-5" points="81.17 0.61 64.23 17.55 65.24 18.55 83.79 0 81.17 0.61"/><polygon class="cls-2" points="64.11 16.15 60.77 19 63.78 22.01 66.64 18.68 64.11 16.15"/><rect class="cls-2" x="6.26" y="62.65" width="51.94" height="10.98" transform="translate(-44.61 31.03) rotate(-45)"/><rect class="cls-2" x="12.03" y="76.74" width="4.07" height="19.12" transform="translate(-62.77 23.51) rotate(-45)"/><rect class="cls-6" x="48.76" y="41.56" width="4.07" height="16.02" transform="translate(-26.04 38.72) rotate(-45)"/><rect class="cls-5" x="65.24" y="30.24" width="0.73" height="9.05" transform="translate(-11.24 44.85) rotate(-45)"/><polygon class="cls-5" points="60.5 26.89 55.9 22.29 56.42 21.77 61.02 26.37 60.5 26.89"/><rect class="cls-5" x="62.68" y="34.07" width="0.73" height="6.51" transform="translate(-13.79 43.8) rotate(-45)"/><rect class="cls-5" x="61.41" y="35.34" width="0.73" height="6.51" transform="translate(-15.07 43.27) rotate(-45)"/><rect class="cls-5" x="60.13" y="36.62" width="0.73" height="6.51" transform="translate(-16.34 42.74) rotate(-45)"/><rect class="cls-5" x="58.85" y="36.63" width="0.73" height="9.04" transform="translate(-17.62 42.21) rotate(-45)"/><rect class="cls-5" x="57.58" y="39.17" width="0.73" height="6.51" transform="translate(-18.9 41.69) rotate(-45.01)"/><rect class="cls-5" x="56.3" y="40.45" width="0.73" height="6.51" transform="translate(-20.17 41.15) rotate(-45)"/><rect class="cls-5" x="55.02" y="41.73" width="0.73" height="6.51" transform="translate(-21.45 40.63) rotate(-45)"/><rect class="cls-5" x="53.75" y="43" width="0.73" height="6.51" transform="translate(-22.73 40.1) rotate(-45)"/><rect class="cls-5" x="52.47" y="43.01" width="0.73" height="9.04" transform="translate(-24 39.57) rotate(-45)"/><polygon class="cls-5" points="47.73 39.65 43.13 35.05 43.65 34.53 48.25 39.13 47.73 39.65"/><rect class="cls-5" x="49.92" y="46.83" width="0.73" height="6.51" transform="translate(-26.56 38.5) rotate(-44.99)"/><rect class="cls-5" x="48.64" y="48.11" width="0.73" height="6.51" transform="translate(-27.83 37.98) rotate(-45)"/><rect class="cls-5" x="47.36" y="49.39" width="0.73" height="6.51" transform="translate(-29.11 37.45) rotate(-44.99)"/><rect class="cls-5" x="46.09" y="49.39" width="0.73" height="9.04" transform="translate(-30.39 36.92) rotate(-45)"/><rect class="cls-5" x="44.81" y="51.94" width="0.73" height="6.51" transform="translate(-31.66 36.39) rotate(-45)"/><rect class="cls-5" x="43.53" y="53.22" width="0.73" height="6.51" transform="translate(-32.94 35.87) rotate(-45)"/><rect class="cls-5" x="42.26" y="54.49" width="0.73" height="6.51" transform="translate(-34.22 35.34) rotate(-45)"/><rect class="cls-5" x="40.98" y="55.77" width="0.73" height="6.51" transform="translate(-35.5 34.82) rotate(-45.01)"/><rect class="cls-5" x="39.7" y="55.78" width="0.73" height="9.04" transform="translate(-36.77 34.28) rotate(-45)"/><rect class="cls-5" x="38.43" y="58.32" width="0.73" height="6.51" transform="translate(-38.04 33.74) rotate(-44.99)"/><polygon class="cls-5" points="33.69 53.7 29.09 49.1 29.61 48.58 34.21 53.18 33.69 53.7"/><rect class="cls-5" x="35.87" y="60.88" width="0.73" height="6.51" transform="translate(-40.6 32.69) rotate(-45)"/><rect class="cls-5" x="34.6" y="62.15" width="0.73" height="6.51" transform="translate(-41.87 32.16) rotate(-44.99)"/><rect class="cls-5" x="33.32" y="62.16" width="0.73" height="9.04" transform="translate(-43.15 31.64) rotate(-45)"/><rect class="cls-2" x="27.43" y="58.75" width="4.97" height="23.38" transform="translate(-46.92 30.07) rotate(-45)"/><rect class="cls-6" x="27.93" y="59.94" width="1.6" height="23.39" transform="translate(-48.12 29.62) rotate(-45.03)"/><path class="cls-7" d="M72.15,41.73a4.66,4.66,0,0,0,0-6.57l-2-2,2.36-2.76-.77-.76L89.66,11.71,88.35,12,12.63,87.74l6.76,6.76,2.88-2.88-2.88-2.88L32.05,76.09l4.38,4.38,1.14-1.13L40,77l-1.51-1.5Z" transform="translate(-5.87 -11.71)"/></g></g></svg>