<svg id="Layer_11" data-name="Layer 11" xmlns="http://www.w3.org/2000/svg" viewBox="0 0 89.11 65.46"><defs><style>.cls-1{fill:#fbbe3b;}.cls-2{fill:#dea326;}.cls-3{fill:#534741;}</style></defs><title>10</title><path class="cls-1" d="M83.75,68.79c6.36-4.73,6.73-13.31,8-20.74-3.06-.41-5.75-2.58-5.64-5.95.1-3.17,3.06-5.06,6-5.17,0-3.1.42-6.14-1.67-8.76a41.45,41.45,0,0,0-4.6-4.58c-4.44-4.05-9.73-8.07-15.44-10.11a19,19,0,0,0-9.55-.94c-.81.14-4,.55-4.55,1.29-.36.48,0,1.55-.1,2.15-.61,3.28-4.77,5.08-7.82,4.26-1-.25-1.51-1-2.35-1.44-1.28-.6-2.65.44-3.89,1.05-2.86,1.4-5.67,2.87-8.46,4.39C28.1,27.33,22.6,30.62,17.1,33.93c-2.75,1.65-5.68,3.22-7.89,5.58-2,2.12-2.47,4.25-2.57,7.05C6.45,51.78,7,57,7.29,62.25c.17,3-.44,7.86,1.65,10.15,2.31,2.52,6.55,1.81,9.61,1.75,3.54-.07,7.09-.12,10.63-.16L33,74c.94,0,2.86.31,3.9,0,.65-2,1.21-3.36,3.59-4a5,5,0,0,1,5.62,1.92c.46.68.6,1.9,1.26,2.33a21.25,21.25,0,0,0,2.13,0l1,0A40.68,40.68,0,0,1,55,73.5C62.86,73.29,77.12,73.72,83.75,68.79Zm-11.1-2.35c-1.62,1.67-4.82,2.38-6.8,1a4.11,4.11,0,0,1-.77-6.06,5.39,5.39,0,0,1,7-.6A3.81,3.81,0,0,1,72.65,66.44ZM77.91,51a3.3,3.3,0,0,1-4.11.49,2.76,2.76,0,0,1-.4-3.89,3.14,3.14,0,0,1,4.19-.4.52.52,0,0,1,.11.1A2.56,2.56,0,0,1,77.91,51Zm-8-31.56.11,0,0,0c2.11-.81,4.87-.87,6.67.76a3.89,3.89,0,0,1-.67,6.05c-2.15,1.33-6.16,1.34-7.75-.9A3.89,3.89,0,0,1,69.91,19.44Zm-14.47,8.7.1,0,.05,0a4.27,4.27,0,0,1,4.34.53,2.63,2.63,0,0,1-.46,4.09c-1.42.88-4,.87-5.08-.61A2.63,2.63,0,0,1,55.44,28.14ZM30.82,29.85l.1,0,0,0a5,5,0,0,1,5.07.6,3,3,0,0,1-.52,4.71c-1.65,1-4.72,1-5.92-.7A3,3,0,0,1,30.82,29.85ZM23.74,64.31c-1.36,1.34-3.93,1.93-5.52.7a3.68,3.68,0,0,1-.56-5.23,4.26,4.26,0,0,1,5.68-.51A3.4,3.4,0,0,1,23.74,64.31ZM47.8,55.38c-1.58,1.55-4.55,2.24-6.41.83a4.27,4.27,0,0,1-.65-6.07,4.94,4.94,0,0,1,6.61-.58A3.94,3.94,0,0,1,47.8,55.38ZM10.65,43.25a.84.84,0,0,1,0-1.68c14.73.23,29.17-1.4,43.7-3.62,10.8-1.64,22-2.61,32.55-5.53A.84.84,0,0,1,87.35,34C76.5,37,65,38,53.88,39.72,39.51,41.9,25.21,43.48,10.65,43.25Z" transform="translate(-4.9 -10.66)"/><path class="cls-2" d="M65.47,74.09c6.92-.27,14.82.52,21.19-2.75C90.91,69.17,92,65.48,92.12,61c.13-4.29.18-8.57.2-12.86a4.57,4.57,0,0,1-.52-.05c-1.32,7.43-1.69,16-8,20.74-6.63,4.93-20.89,4.5-28.8,4.71a40.68,40.68,0,0,0-4.48.75l2.1,0C56.88,74.39,61.15,74.26,65.47,74.09Z" transform="translate(-4.9 -10.66)"/><path class="cls-2" d="M77,48.29a2,2,0,0,0-2.49,0,1.48,1.48,0,0,0-.2,1.85c.54.87,1.67.64,2.41.2S77.7,48.8,77,48.29Z" transform="translate(-4.9 -10.66)"/><path class="cls-2" d="M70.83,25.54c1.7.57,4.34.37,5.36-1.26,1.39-2.22-.57-3.73-2.56-4.11a5.58,5.58,0,0,0-3.12.39A2.63,2.63,0,0,0,70.83,25.54Z" transform="translate(-4.9 -10.66)"/><path class="cls-2" d="M71.4,61.89a4.2,4.2,0,0,0-4.91,0A2.79,2.79,0,0,0,66.06,66c1.27,1.49,3.53,1,5,.12S72.94,62.88,71.4,61.89Z" transform="translate(-4.9 -10.66)"/><path class="cls-2" d="M56.19,31.86c.92.32,2.45.24,3-.66.79-1.23-.38-2-1.43-2.16a3.18,3.18,0,0,0-1.75.22A1.37,1.37,0,0,0,56.19,31.86Z" transform="translate(-4.9 -10.66)"/><path class="cls-2" d="M46.71,50.65a3.79,3.79,0,0,0-4.83.09,3.06,3.06,0,0,0-.42,3.73c1.06,1.72,3.28,1.38,4.77.5S48.28,51.73,46.71,50.65Z" transform="translate(-4.9 -10.66)"/><path class="cls-2" d="M31.62,34.32c1.17.4,3.05.29,3.76-.84,1-1.55-.44-2.53-1.78-2.78a4,4,0,0,0-2.19.27A1.77,1.77,0,0,0,31.62,34.32Z" transform="translate(-4.9 -10.66)"/><path class="cls-2" d="M22.7,60.36a3.08,3.08,0,0,0-3.93.06,2.46,2.46,0,0,0-.34,3c.87,1.39,2.67,1.09,3.87.38S24,61.22,22.7,60.36Z" transform="translate(-4.9 -10.66)"/><path class="cls-3" d="M93.17,46.44c-2.64.1-5.66-1.45-5.29-4.54.3-2.42,2.92-3.45,5.13-3.27a.86.86,0,0,0,.84-.85c0-2.73.47-5.65-.59-8.27a15,15,0,0,0-3.65-4.72,69.22,69.22,0,0,0-12.73-10c-5.32-3.21-11.19-5-17.39-3.66-1.34.29-4.18.68-4.86,2.05-.44.88.15,2-.17,3-.94,2.74-4.89,3.11-6.91,1.68s-2.1-1.38-4.37-.29c-3.48,1.66-6.91,3.43-10.3,5.28-6.78,3.71-13.52,7.6-20,11.74C8.29,37.43,5.24,40.66,5,46.18c-.3,6.26.46,12.62.79,18.88.14,2.67-.22,6.13,1.65,8.33s4.66,2.5,7.23,2.52c4.47,0,9-.17,13.42-.22,1.94,0,3.89-.06,5.83,0,1.35,0,2.81.29,4-.31a.7.7,0,0,0,.44-.63c.64-1.92,1.34-3.36,3.85-3.21,2.71.16,2.16,2.1,3.31,3.66s4.94.79,6.51.83c7.87.16,15.88,0,23.74-.51,5.41-.36,12.17-1.26,15.73-5.88,1.82-2.37,2.16-5.27,2.27-8.17C94,56.71,94,52,94,47.28A.85.85,0,0,0,93.17,46.44ZM49.45,74.23a21.25,21.25,0,0,1-2.13,0c-.66-.43-.8-1.65-1.26-2.33A5,5,0,0,0,40.44,70c-2.38.61-2.94,2-3.59,4-1,.31-3,0-3.9,0l-3.77,0c-3.54,0-7.09.09-10.63.16-3.06.06-7.3.77-9.61-1.75-2.09-2.29-1.48-7.16-1.65-10.15C7,57,6.45,51.78,6.64,46.56c.1-2.8.59-4.93,2.57-7.05,2.21-2.36,5.14-3.93,7.89-5.58,5.5-3.31,11-6.6,16.63-9.69,2.79-1.52,5.6-3,8.46-4.39,1.24-.61,2.61-1.65,3.89-1.05.84.39,1.38,1.19,2.35,1.44,3,.82,7.21-1,7.82-4.26.11-.6-.26-1.67.1-2.15.55-.74,3.74-1.15,4.55-1.29a19,19,0,0,1,9.55.94c5.71,2,11,6.06,15.44,10.11a41.45,41.45,0,0,1,4.6,4.58c2.09,2.62,1.7,5.66,1.67,8.76-2.94.11-5.9,2-6,5.17-.11,3.37,2.58,5.54,5.64,5.95a4.57,4.57,0,0,0,.52.05c0,4.29-.07,8.57-.2,12.86-.13,4.52-1.21,8.21-5.46,10.38-6.37,3.27-14.27,2.48-21.19,2.75-4.32.17-8.59.3-12.9.21l-2.1,0Z" transform="translate(-4.9 -10.66)"/><path class="cls-3" d="M86.9,32.42C76.34,35.34,65.15,36.31,54.35,38c-14.53,2.22-29,3.85-43.7,3.62a.84.84,0,0,0,0,1.68c14.56.23,28.86-1.35,43.23-3.53C65,38,76.5,37,87.35,34A.84.84,0,0,0,86.9,32.42Z" transform="translate(-4.9 -10.66)"/><path class="cls-3" d="M72,60.8a5.39,5.39,0,0,0-7,.6,4.11,4.11,0,0,0,.77,6.06c2,1.36,5.18.65,6.8-1A3.81,3.81,0,0,0,72,60.8Zm-1,5.27c-1.49.88-3.75,1.37-5-.12a2.79,2.79,0,0,1,.43-4.11,4.2,4.2,0,0,1,4.91,0C72.94,62.88,72.49,65.23,71.08,66.07Z" transform="translate(-4.9 -10.66)"/><path class="cls-3" d="M23.34,59.27a4.26,4.26,0,0,0-5.68.51A3.68,3.68,0,0,0,18.22,65c1.59,1.23,4.16.64,5.52-.7A3.4,3.4,0,0,0,23.34,59.27Zm-1,4.54c-1.2.71-3,1-3.87-.38a2.46,2.46,0,0,1,.34-3,3.08,3.08,0,0,1,3.93-.06C24,61.22,23.4,63.16,22.3,63.81Z" transform="translate(-4.9 -10.66)"/><path class="cls-3" d="M47.35,49.56a4.94,4.94,0,0,0-6.61.58,4.27,4.27,0,0,0,.65,6.07c1.86,1.41,4.83.72,6.41-.83A3.94,3.94,0,0,0,47.35,49.56ZM46.23,55c-1.49.88-3.71,1.22-4.77-.5a3.06,3.06,0,0,1,.42-3.73,3.79,3.79,0,0,1,4.83-.09C48.28,51.73,47.63,54.14,46.23,55Z" transform="translate(-4.9 -10.66)"/><path class="cls-3" d="M77.7,47.3a.52.52,0,0,0-.11-.1,3.14,3.14,0,0,0-4.19.4,2.76,2.76,0,0,0,.4,3.89A3.3,3.3,0,0,0,77.91,51,2.56,2.56,0,0,0,77.7,47.3Zm-1,3.05c-.74.44-1.87.67-2.41-.2a1.48,1.48,0,0,1,.2-1.85,2,2,0,0,1,2.49,0C77.7,48.8,77.31,50,76.67,50.35Z" transform="translate(-4.9 -10.66)"/><path class="cls-3" d="M35.52,35.1A3,3,0,0,0,36,30.39a5,5,0,0,0-5.07-.6l0,0-.1,0A3,3,0,0,0,29.6,34.4C30.8,36.13,33.87,36.12,35.52,35.1ZM31.41,31a4,4,0,0,1,2.19-.27c1.34.25,2.76,1.23,1.78,2.78-.71,1.13-2.59,1.24-3.76.84A1.77,1.77,0,0,1,31.41,31Z" transform="translate(-4.9 -10.66)"/><path class="cls-3" d="M76.07,26.19a3.89,3.89,0,0,0,.67-6.05c-1.8-1.63-4.56-1.57-6.67-.76l0,0-.11,0a3.89,3.89,0,0,0-1.59,5.85C69.91,27.53,73.92,27.52,76.07,26.19Zm-5.56-5.63a5.58,5.58,0,0,1,3.12-.39c2,.38,4,1.89,2.56,4.11-1,1.63-3.66,1.83-5.36,1.26A2.63,2.63,0,0,1,70.51,20.56Z" transform="translate(-4.9 -10.66)"/><path class="cls-3" d="M59.47,32.7a2.63,2.63,0,0,0,.46-4.09,4.27,4.27,0,0,0-4.34-.53l-.05,0-.1,0a2.63,2.63,0,0,0-1,4C55.43,33.57,58.05,33.58,59.47,32.7ZM56,29.26A3.18,3.18,0,0,1,57.78,29c1,.19,2.22.93,1.43,2.16-.57.9-2.1,1-3,.66A1.37,1.37,0,0,1,56,29.26Z" transform="translate(-4.9 -10.66)"/></svg>