<svg id="Layer_12" data-name="Layer 12" xmlns="http://www.w3.org/2000/svg" viewBox="0 0 61.14 88.97"><defs><style>.cls-1{fill:#e5e5e5;}.cls-2{fill:none;}.cls-3{fill:#fbbe3b;}.cls-4{fill:#c96649;}.cls-5{fill:#ffca99;}.cls-6{fill:#534741;}</style></defs><title>11</title><path class="cls-1" d="M23.51,34.8S26.29,21.52,30.72,16s6.21-7.07,9.71-6.28,3.49-4.43,8.45-3,1.61,2.5,7.47,2,6.59,2.34,9,4,6.21,10,7.28,14.38,2,8.49,2,8.49,4.29.3,3.72,6.75S75.91,62.5,68.91,68.07s-10.14,7.14-10.14,7.14a21.79,21.79,0,0,1,4.86,6.06c1.64,3.36,5.78,7.64.07,9.07s-15.26,3.88-24.84,1.82-9.86-2.53-8.79-5,6.64-12.28,6.64-12.28S27.23,72.18,22.93,60s-4.36-18.39-3.78-21.11S23.51,34.8,23.51,34.8Z" transform="translate(-18.07 -5.06)"/><path class="cls-2" d="M20,44.47c9.39,3,19,3.58,28.82,3.24,9.24-.32,20.32.11,28.38-5a9.6,9.6,0,0,0,.1-3.19c-.66-3.15-2.7-2.76-5.11-2.11-2.83.76-5.69,1.46-8.58,2A79.66,79.66,0,0,1,45.94,40.7,81,81,0,0,1,30.1,38.19c-2.67-.63-9.07-3.09-10,1A21.61,21.61,0,0,0,20,44.47Z" transform="translate(-18.07 -5.06)"/><path class="cls-2" d="M38.94,12.23c.94.64.94,1.74,1.4,2.65C42,12.72,45.7,12,48.12,11.59c3.5-.63,6.42-.48,8.75,2.19a.35.35,0,0,1,.11,0c1.14.43,2.29.08,3.44.22.45-1,1-1.87,1.5-2.85-2.1-.73-3.46-2.6-6-2-2.05.48-3,1.05-4.91-.33-1.7-1.21-3.22-2-5.41-.86-1.14.63-2.1,2.12-3.33,2.52a4.6,4.6,0,0,1-1.95-.09c-2.06-.29-3.1-.34-4.44.94C36.57,12.17,38.07,11.63,38.94,12.23Z" transform="translate(-18.07 -5.06)"/><path class="cls-2" d="M58.77,76.4l-.05-.05c-4.57,1.93-10,1.85-14.87,1.3a29.33,29.33,0,0,1-6.36-1.41,31,31,0,0,0-4.25,6.38c-.53,1-1,2-1.48,3.06-.86,1.9-1.46,2.74.47,3.95,2.14,1.34,5.47,1.59,7.91,1.92a58.6,58.6,0,0,0,7.83.61,41.48,41.48,0,0,0,8.88-1c2.26-.51,5.25-1,7.23-2.23,1.57-1,1.37-1.56.79-3.1a31.91,31.91,0,0,0-1.73-4A18.3,18.3,0,0,0,58.77,76.4Z" transform="translate(-18.07 -5.06)"/><path class="cls-2" d="M66.83,55c-5.08.65-10.18,1.29-15.29,1.61a87.76,87.76,0,0,1-29.95-3.12,24.2,24.2,0,0,0,1.63,5.23c2.33,5,5.21,10.14,9.83,13.32,7.61,5.26,20.25,5.7,28.15,1,5.08-3,9.54-7,12.2-12.35a32.22,32.22,0,0,0,2.69-8.55A22.45,22.45,0,0,1,66.83,55Z" transform="translate(-18.07 -5.06)"/><path class="cls-3" d="M45.44,15.06a10.33,10.33,0,0,1,2.28,1.65c1.08-.3,1.43-2.27,2.8-2.5,1-.17,1.54.35,2.16,1.06.24.29.63,1.27.91,1.39,1.38.64,1.92-1,2.19-2-2.18-2.32-5.06-2.19-8.15-1.55-1.69.35-4.51.88-5.91,2.3l1-.21A5.75,5.75,0,0,1,45.44,15.06Z" transform="translate(-18.07 -5.06)"/><path class="cls-4" d="M20.22,46c.2,1.42.48,2.84.75,4.25.11.56.21,1.12.32,1.68a86.17,86.17,0,0,0,29.1,3.33c4.59-.24,9.17-.77,13.73-1.33s8.55-1.06,12.27-3.68c.28-1.93.47-3.88.64-5.81-7.92,4.54-18.15,4.27-27,4.63C39.9,49.46,30,49,20.22,46Z" transform="translate(-18.07 -5.06)"/><path class="cls-5" d="M27.22,35.63c8,1.63,15.52,3.44,23.78,3.25a75.06,75.06,0,0,0,13.19-1.49q2.67-.54,5.31-1.22c1.15-.29,2.48-.81,3.75-1.13a.44.44,0,0,0,0-.1c-.73-8.13-4-16.78-9.75-22.79a21.35,21.35,0,0,0-1.6,3.21.94.94,0,0,1-1.15.65c-1.12-.43-2.25-.1-3.38-.22-.84,2.13-2.73,4.76-4.83,2.56-.52-.55-1.07-2.09-2.07-1.92-.68.11-1.23,1.72-1.91,2.05-.9.43-1.39.07-2.15-.47-2-1.45-3-.93-5.34-.64-.91.11-1.23.29-1.89-.53-.45-.55-.45-1.35-.76-2-.7-1.36-.9-.88-2.19-1.17a2.8,2.8,0,0,1-1.73-1c-5.78,5.82-8.85,14.51-10,22.48A26.5,26.5,0,0,1,27.22,35.63Z" transform="translate(-18.07 -5.06)"/><path class="cls-6" d="M75.08,34.78c-.85-9-4.63-18.58-11.24-24.91a.87.87,0,0,0-.54-.25l-.11,0c-2.67-.21-3.88-3.13-6.8-2.55a16.51,16.51,0,0,1-2.59.54c-1.49.09-1.73-.34-2.81-1.15A4.88,4.88,0,0,0,48.2,5.06c-3.12-.18-4.61,3.53-7.42,3.55-1.25,0-2.16-.84-3.51-.5a6.67,6.67,0,0,0-3.21,2.41l0,0C27.37,16.63,23.81,26.36,22.6,35.13v0a4.25,4.25,0,0,0-4.23,3.24.82.82,0,0,0-.07.25.83.83,0,0,0,0,.22,29.24,29.24,0,0,0,.37,9,55.92,55.92,0,0,0,2.08,9.69,36.68,36.68,0,0,0,8.85,14.08,21.51,21.51,0,0,0,6.08,3.94A36.33,36.33,0,0,0,31,83c-.75,1.54-2.81,4.57-2.12,6.38.9,2.38,5.73,3.07,7.79,3.48A58.4,58.4,0,0,0,47.43,94a44,44,0,0,0,11-1.33c2.39-.58,6.8-1.29,8.49-3.24,1.5-1.73-.42-4.76-1.17-6.5a21.17,21.17,0,0,0-5.17-7.44A34,34,0,0,0,73.14,64.77c3.58-5.24,4.85-11.41,5.49-17.62C79,43.75,80.86,34.77,75.08,34.78Zm1.31,15.46c-3.72,2.62-7.82,3.13-12.27,3.68S55,55,50.39,55.25a86.17,86.17,0,0,1-29.1-3.33c-.11-.56-.21-1.12-.32-1.68-.27-1.41-.55-2.83-.75-4.25C30,49,39.9,49.46,50.05,49.06c8.83-.36,19.06-.09,27-4.63C76.86,46.36,76.67,48.31,76.39,50.24ZM41.72,15.41c1.4-1.42,4.22-1.95,5.91-2.3,3.09-.64,6-.77,8.15,1.55-.27,1-.81,2.64-2.19,2-.28-.12-.67-1.1-.91-1.39-.62-.71-1.17-1.23-2.16-1.06-1.37.23-1.72,2.2-2.8,2.5a10.33,10.33,0,0,0-2.28-1.65,5.75,5.75,0,0,0-2.73.14Zm-7.24-2.7a2.8,2.8,0,0,0,1.73,1c1.29.29,1.49-.19,2.19,1.17.31.61.31,1.41.76,2,.66.82,1,.64,1.89.53,2.36-.29,3.29-.81,5.34.64.76.54,1.25.9,2.15.47.68-.33,1.23-1.94,1.91-2.05,1-.17,1.55,1.37,2.07,1.92,2.1,2.2,4-.43,4.83-2.56,1.13.12,2.26-.21,3.38.22a.94.94,0,0,0,1.15-.65,21.35,21.35,0,0,1,1.6-3.21c5.7,6,9,14.66,9.75,22.79a.44.44,0,0,1,0,.1c-1.27.32-2.6.84-3.75,1.13q-2.64.67-5.31,1.22A75.06,75.06,0,0,1,51,38.88c-8.26.19-15.78-1.62-23.78-3.25a26.5,26.5,0,0,0-2.76-.44C25.63,27.22,28.7,18.53,34.48,12.71Zm5.8-2.3a4.6,4.6,0,0,0,1.95.09c1.23-.4,2.19-1.89,3.33-2.52,2.19-1.19,3.71-.35,5.41.86,1.93,1.38,2.86.81,4.91.33,2.58-.59,3.94,1.28,6,2-.45,1-1.05,1.87-1.5,2.85-1.15-.14-2.3.21-3.44-.22a.35.35,0,0,0-.11,0c-2.33-2.67-5.25-2.82-8.75-2.19-2.42.43-6.1,1.13-7.78,3.29-.46-.91-.46-2-1.4-2.65s-2.37-.06-3.1-.88C37.18,10.07,38.22,10.12,40.28,10.41ZM30.1,38.19A81,81,0,0,0,45.94,40.7a79.66,79.66,0,0,0,17.71-1.31c2.89-.55,5.75-1.25,8.58-2,2.41-.65,4.45-1,5.11,2.11a9.6,9.6,0,0,1-.1,3.19c-8.06,5.14-19.14,4.71-28.38,5C39,48.05,29.43,47.5,20,44.47a21.61,21.61,0,0,1,.05-5.33C21,35.1,27.43,37.56,30.1,38.19Zm33,43.65a31.91,31.91,0,0,1,1.73,4c.58,1.54.78,2.12-.79,3.1-2,1.23-5,1.72-7.23,2.23a41.48,41.48,0,0,1-8.88,1,58.6,58.6,0,0,1-7.83-.61c-2.44-.33-5.77-.58-7.91-1.92-1.93-1.21-1.33-2-.47-3.95.46-1,.95-2.05,1.48-3.06a31,31,0,0,1,4.25-6.38,29.33,29.33,0,0,0,6.36,1.41c4.86.55,10.3.63,14.87-1.3l.05.05A18.3,18.3,0,0,1,63.14,81.84ZM61.2,73c-7.9,4.7-20.54,4.26-28.15-1-4.62-3.18-7.5-8.35-9.83-13.32a24.2,24.2,0,0,1-1.63-5.23,87.76,87.76,0,0,0,30,3.12c5.11-.32,10.21-1,15.29-1.61a22.45,22.45,0,0,0,9.26-2.86,32.22,32.22,0,0,1-2.69,8.55C70.74,66,66.28,70,61.2,73Z" transform="translate(-18.07 -5.06)"/></svg>