<svg id="Layer_13" data-name="Layer 13" xmlns="http://www.w3.org/2000/svg" viewBox="0 0 53.58 87.53"><defs><style>.cls-1{fill:#fff;}.cls-2{fill:#deab71;}.cls-3{fill:#c96649;}.cls-4{fill:#fbbe3b;}.cls-5{fill:#ffdfb8;}.cls-6{fill:#534741;}</style></defs><title>12</title><path class="cls-1" d="M62.42,47.94a45.63,45.63,0,0,0-6.72-.29c-2.61-.07-5.21-.12-7.82-.15-5.06,0-10.13,0-15.2.14-1.84.06-3.69.13-5.53.28a8.92,8.92,0,0,0-2.57.32c-1,1.64.06,5.4.27,7.1a25.78,25.78,0,0,0,.38,3.52c.32,1.23,1.46,1.77,2.12,2.77a5.89,5.89,0,0,1,.7,2.72c5.93-.41,11.87-.35,17.81-.44,5-.08,9.93-.42,14.89.35A12.65,12.65,0,0,1,61.3,62c.44-1.25,1.7-1.79,2.16-3a14.34,14.34,0,0,0,.37-4.14c.07-1.48.09-3,.17-4.45S64,48.23,62.42,47.94ZM27.15,58.78c-.3-3.09-.56-6.19-.71-9.29,0-.68,1-.68,1.06,0,.15,3.1.41,6.2.71,9.29C28.27,59.46,27.21,59.45,27.15,58.78Zm3.53.36c-.27-3.38-.66-6.75-1-10.13-.06-.68,1-.67,1.06,0,.3,3.38.69,6.75,1,10.13C31.8,59.82,30.74,59.81,30.68,59.14Zm3.2,0c-.2-3.36-.38-6.73-.48-10.1,0-.68,1-.68,1.06,0,.1,3.37.28,6.74.47,10.1C35,59.86,33.92,59.86,33.88,59.18Zm2.77-.06c-.33-3.39-.28-6.8-.46-10.2,0-.68,1-.68,1.06,0,.17,3.4.13,6.81.46,10.2C37.78,59.8,36.72,59.79,36.65,59.12Zm3.36.06c-.43-3.47-.41-7-.5-10.46a.53.53,0,0,1,1.06,0c.09,3.49.07,7,.5,10.46C41.16,59.86,40.1,59.85,40,59.18Zm3.4,0c-.13-3.43-.31-6.87-.33-10.3a.53.53,0,0,1,1.06,0c0,3.43.2,6.87.32,10.3C44.49,59.86,43.43,59.86,43.41,59.18Zm3.88-.08c-.12-3.49-.23-7-.29-10.46a.53.53,0,0,1,1.06,0c.06,3.49.17,7,.29,10.46C48.37,59.78,47.31,59.78,47.29,59.1Zm3.18-.28c0-3.42-.2-6.85-.08-10.26,0-.68,1.09-.69,1.06,0-.12,3.41,0,6.84.08,10.26A.53.53,0,0,1,50.47,58.82ZM55,58.7a.53.53,0,0,1-1.06,0c0-3.34,0-6.68.1-10a.53.53,0,0,1,1.06,0C55,52,55,55.36,55,58.7Zm2.14.24C57,55.69,57,52.45,57,49.2a.53.53,0,0,1,1.06,0c-.05,3.25,0,6.49.07,9.74C58.19,59.62,57.13,59.62,57.11,58.94Zm3.51-.16q-.12-4.7-.12-9.37a.53.53,0,0,1,1.06,0q0,4.68.12,9.37C61.7,59.46,60.64,59.46,60.62,58.78Z" transform="translate(-22.85 -5.7)"/><path class="cls-1" d="M45.44,87.39c-2.22.11-4.37.39-6.6.3a41.62,41.62,0,0,0-7.32,0,12.6,12.6,0,0,0,.24,1.39,2.41,2.41,0,0,0,2,2.14,9.79,9.79,0,0,0,1.63.07c2.8.13,5.6.26,8.4.34s5.44.13,8.17,0c1.35,0,4.29.19,5.42-.77.73-.63.86-2.36,1-3.49C54.11,87.19,49.69,87.18,45.44,87.39Z" transform="translate(-22.85 -5.7)"/><path class="cls-2" d="M32.5,29.49A7.37,7.37,0,0,0,34,29.27l2.83-.47a7.38,7.38,0,0,1-.65-1.69,2.76,2.76,0,0,1,0-.59,13.56,13.56,0,0,0-2.45.54c-.55.17-2.16.47-2.3,1.1S32,29.44,32.5,29.49Z" transform="translate(-22.85 -5.7)"/><path class="cls-2" d="M34.75,22.7c4.33-1.26,8.53-2.87,12.8-4.29,8-2.68,16.15-4.84,24.14-7.49.78-.26,1.26-.26,1.42-.94.23-.94-.55-3.06-1.58-3.26s-2.82.84-3.74,1.18c-3,1.11-6.16,2-9.21,3.07Q51.22,13.56,44,16.51c-4.24,1.65-8.48,3.29-12.71,5-.74.3-1.38.34-1.42,1C29.69,24.79,33.71,23,34.75,22.7Z" transform="translate(-22.85 -5.7)"/><path class="cls-2" d="M75,19.64c-.25-1.51-.82-1.46-2.29-1.31a18.71,18.71,0,0,0-2.64.71c-2,.56-4.09,1.12-6.15,1.66-4.18,1.09-8.37,2.08-12.62,2.85A8.07,8.07,0,0,1,52.2,26h0c4.53-.69,9.05-1.39,13.57-2.15q3.12-.51,6.24-1.07c1.07-.19,2.42-.07,3-1.06C75.37,21,75.12,20.43,75,19.64Z" transform="translate(-22.85 -5.7)"/><path class="cls-3" d="M60.55,65.65c-5.18-.82-10.37-.39-15.6-.32-5.6.08-11.2,0-16.78.42a2.77,2.77,0,0,0,0,.3c.28,2,.61,4,1,6,.68,3.9,1.44,7.78,2,11.7.11.8.16,1.64.23,2.47,4.36-.55,8.81.13,13.19-.23,2.45-.2,4.9,0,7.35-.05,2.22-.08,4.41-.11,6.63,0,.31-2.37.53-4.77.75-7.15.29-3,.56-6,.88-9C60.33,68.54,60.4,67.08,60.55,65.65Zm-16,18.29c-4.73-.32-8.7-3.88-8.51-8.84s3.73-7.65,8.34-8C48.94,67,53.31,70,53.46,74.9,53.63,80.28,50,84.3,44.54,83.94Z" transform="translate(-22.85 -5.7)"/><path class="cls-4" d="M44.54,82.88c4.85.35,8-3.21,7.86-8-.14-4.31-4.06-6.83-8-6.75-4,.31-7.13,2.72-7.28,6.95S40.36,82.58,44.54,82.88Z" transform="translate(-22.85 -5.7)"/><path class="cls-5" d="M41,41.35c0-1.88-1.58-3.31-1.23-5.28.42-2.41,3.2-3.65,2.54-6.45-.5-2.11-2.24-3.56-2.89-5.62-1.5-.66-2.08,1.1-2.18,2a4.39,4.39,0,0,0,.58,2.47,7.73,7.73,0,0,1,.76,2A5,5,0,0,1,37.48,34a3.82,3.82,0,0,0-.27,4,4.42,4.42,0,0,1,.48,1.71c.05,2.19-2.21,4.27-1.09,6.42l3.74-.05C39.67,44.5,41,43.11,41,41.35Z" transform="translate(-22.85 -5.7)"/><path class="cls-5" d="M42.74,33.36c-.79,1.11-2,2-2,3.46,0,1.19.74,2.15,1.06,3.24.55,1.87-1.3,4.46-.28,6h2.83c-.7-1.21.13-2.54.53-3.86a5.9,5.9,0,0,0-.2-4,3.71,3.71,0,0,1-.26-1.44c.17-2.41,2.79-3.7,2.71-6.12A11.83,11.83,0,0,0,46,27.17c-.45-1.25-.74-2.55-1.2-3.81-1.43-1.09-3.06-.6-4.36.44C41.5,27,45.25,29.83,42.74,33.36Z" transform="translate(-22.85 -5.7)"/><path class="cls-5" d="M50.92,25.38c-.61-2.1-3-4.43-5.07-2.22.44,1.23.73,2.5,1.17,3.73a20.54,20.54,0,0,1,1.16,3.18,4.24,4.24,0,0,1-.6,3.37c-1,1.29-2,2.05-1.83,3.8.09.82.51,1.44.63,2.24.26,1.6-2,5.12-1,6.23a.53.53,0,0,1,.14.36l2.88,0c-.86-1.2-.25-2.41.44-3.87a4.79,4.79,0,0,0,.27-4,2.84,2.84,0,0,1,.06-1.84c.39-1.2,1.29-2.15,1.71-3.34a11.27,11.27,0,0,0,.5-3.69A14,14,0,0,0,50.92,25.38Z" transform="translate(-22.85 -5.7)"/><path class="cls-6" d="M43.08,48.88c0,3.43.2,6.87.33,10.3,0,.68,1.08.68,1.05,0-.12-3.43-.3-6.87-.32-10.3A.53.53,0,0,0,43.08,48.88Z" transform="translate(-22.85 -5.7)"/><path class="cls-6" d="M54,48.67c-.06,3.35-.07,6.69-.1,10a.53.53,0,0,0,1.06,0c0-3.34,0-6.68.1-10A.53.53,0,0,0,54,48.67Z" transform="translate(-22.85 -5.7)"/><path class="cls-6" d="M33.4,49.08c.1,3.37.28,6.74.48,10.1,0,.68,1.09.68,1,0-.19-3.36-.37-6.73-.47-10.1C34.44,48.4,33.38,48.4,33.4,49.08Z" transform="translate(-22.85 -5.7)"/><path class="cls-6" d="M26.44,49.49c.15,3.1.41,6.2.71,9.29.06.67,1.12.68,1.06,0-.3-3.09-.56-6.19-.71-9.29C27.47,48.81,26.41,48.81,26.44,49.49Z" transform="translate(-22.85 -5.7)"/><path class="cls-6" d="M29.72,49c.3,3.38.69,6.75,1,10.13.06.67,1.12.68,1.06,0-.27-3.38-.66-6.75-1-10.13C30.72,48.34,29.66,48.33,29.72,49Z" transform="translate(-22.85 -5.7)"/><path class="cls-6" d="M36.19,48.92c.18,3.4.13,6.81.46,10.2.07.67,1.13.68,1.06,0-.33-3.39-.29-6.8-.46-10.2C37.22,48.24,36.16,48.24,36.19,48.92Z" transform="translate(-22.85 -5.7)"/><path class="cls-6" d="M40.57,48.72a.53.53,0,0,0-1.06,0c.09,3.49.07,7,.5,10.46.09.67,1.15.68,1.06,0C40.64,55.71,40.66,52.21,40.57,48.72Z" transform="translate(-22.85 -5.7)"/><path class="cls-6" d="M47,48.64c.06,3.49.17,7,.29,10.46,0,.68,1.08.68,1.06,0-.12-3.49-.23-7-.29-10.46A.53.53,0,0,0,47,48.64Z" transform="translate(-22.85 -5.7)"/><path class="cls-6" d="M51.45,48.56c0-.69-1-.68-1.06,0-.12,3.41,0,6.84.08,10.26a.53.53,0,0,0,1.06,0C51.49,55.4,51.33,52,51.45,48.56Z" transform="translate(-22.85 -5.7)"/><path class="cls-6" d="M58.1,49.2a.53.53,0,0,0-1.06,0c0,3.25,0,6.49.07,9.74,0,.68,1.08.68,1.06,0C58.08,55.69,58.05,52.45,58.1,49.2Z" transform="translate(-22.85 -5.7)"/><path class="cls-6" d="M60.5,49.41q0,4.68.12,9.37c0,.68,1.08.68,1.06,0q-.12-4.7-.12-9.37A.53.53,0,0,0,60.5,49.41Z" transform="translate(-22.85 -5.7)"/><path class="cls-6" d="M44.37,67.09c-4.61.36-8.15,3.18-8.34,8s3.78,8.52,8.51,8.84c5.41.36,9.09-3.66,8.92-9C53.31,70,48.94,67,44.37,67.09Zm0,1.06c4-.08,7.89,2.44,8,6.75.16,4.77-3,8.33-7.86,8-4.18-.3-7.61-3.42-7.45-7.78S40.37,68.46,44.37,68.15Z" transform="translate(-22.85 -5.7)"/><path class="cls-6" d="M76,19c-.16-.88-.23-1.92-1.18-2.24-.76-.25-2.07.45-2.8.65l-4.39,1.19c-5.62,1.52-11.26,3-17,4-1.51-1.61-3.83-1.91-5.39-.14a3.82,3.82,0,0,0-2.48-.78c-1.36,0-2.23,1.08-3.43,1.2-.91.08-1.55-.1-2.24.66a4,4,0,0,0-.86,1.9,17.92,17.92,0,0,0-4.08,1c-1.05.39-2,.5-1.83,1.77.11.92.64,2.26,1.67,2.36a9.92,9.92,0,0,0,2.29-.3q1.45-.22,2.91-.48h0a3.9,3.9,0,0,1-.44,3.49,5.46,5.46,0,0,0-1.17,3.2A12.37,12.37,0,0,0,36.4,39c.41,1.52-.33,2.58-.81,4a4.66,4.66,0,0,0-.14,3.16l-1.53,0c-2.41.06-4.84.13-7.24.36-1,.09-2.37.06-3.15.73a.57.57,0,0,0-.2.3c-.87,1.5-.31,4-.15,5.56.14,1.34.32,2.67.47,4a13.47,13.47,0,0,0,.28,2.71c.47,1.31,2,2,2.48,3.3.65,2,.59,4.54.92,6.59.61,3.78,1.37,7.53,2,11.32.38,2.36.7,4.73.94,7.1.12,1.2-.13,2.92.89,3.8.76.66,2,.6,2.89.65,1.55.08,3.11.15,4.66.21,5.67.25,11.7.83,17.34-.12,1.2-.21,2.32-.45,2.9-1.6.78-1.52.83-3.6,1-5.27.82-6.48,1.19-13,2-19.51.27-2.09.29-3.38,1.7-5A4.68,4.68,0,0,0,65,58.51,64.72,64.72,0,0,0,65.52,49c0-2.32-1.6-2.36-3.54-2.47-2.74-.16-5.49-.25-8.24-.31l-3.89-.07a.38.38,0,0,0-.13-.18c-1.59-1.4.63-3.83.88-5.44A5.67,5.67,0,0,0,50.21,38c-.4-1.81,1.18-3.11,1.72-4.72a12,12,0,0,0,.53-3.67,18.62,18.62,0,0,0-.1-2.56.32.32,0,0,0,.14,0c5.72-.86,11.44-1.76,17.14-2.75,1.48-.26,3-.49,4.45-.79.72-.15,1.71-.14,2.13-.89C76.75,21.69,76.13,20,76,19ZM72,22.81q-3.12.56-6.24,1.07c-4.52.76-9,1.46-13.57,2.15h0a8.07,8.07,0,0,0-.91-2.49c4.25-.77,8.44-1.76,12.62-2.85C66,20.16,68,19.6,70.06,19a18.71,18.71,0,0,1,2.64-.71c1.47-.15,2-.2,2.29,1.31.13.79.38,1.37,0,2.11C74.45,22.74,73.1,22.62,72,22.81ZM64,50.43c-.08,1.49-.1,3-.17,4.45A14.34,14.34,0,0,1,63.46,59c-.46,1.21-1.72,1.75-2.16,3a12.65,12.65,0,0,0-.55,2.24c-5-.77-9.89-.43-14.89-.35-5.94.09-11.88,0-17.81.44a5.89,5.89,0,0,0-.7-2.72c-.66-1-1.8-1.54-2.12-2.77a25.78,25.78,0,0,1-.38-3.52c-.21-1.7-1.23-5.46-.27-7.1a8.92,8.92,0,0,1,2.57-.32c1.84-.15,3.69-.22,5.53-.28,5.07-.17,10.14-.18,15.2-.14,2.61,0,5.21.08,7.82.15a45.63,45.63,0,0,1,6.72.29C64,48.23,64.08,49,64,50.43ZM52,91.64c-2.73.1-5.45,0-8.17,0s-5.6-.21-8.4-.34a9.79,9.79,0,0,1-1.63-.07,2.41,2.41,0,0,1-2-2.14,12.6,12.6,0,0,1-.24-1.39,41.62,41.62,0,0,1,7.32,0c2.23.09,4.38-.19,6.6-.3,4.25-.21,8.67-.2,12.93,0-.11,1.13-.24,2.86-1,3.49C56.27,91.83,53.33,91.59,52,91.64ZM58.55,86c-2.22-.09-4.41-.06-6.63,0-2.45.09-4.9-.15-7.35.05-4.38.36-8.83-.32-13.19.23-.07-.83-.12-1.67-.23-2.47-.55-3.92-1.31-7.8-2-11.7-.35-2-.68-4-1-6a2.77,2.77,0,0,1,0-.3c5.58-.38,11.18-.34,16.78-.42,5.23-.07,10.42-.5,15.6.32-.15,1.43-.22,2.89-.37,4.2-.32,3-.59,6-.88,9C59.08,81.2,58.86,83.6,58.55,86ZM37.69,39.71A4.42,4.42,0,0,0,37.21,38a3.82,3.82,0,0,1,.27-4,5,5,0,0,0,1.08-3.61,7.73,7.73,0,0,0-.76-2A4.39,4.39,0,0,1,37.22,26c.1-.89.68-2.65,2.18-2,.65,2.06,2.39,3.51,2.89,5.62.66,2.8-2.12,4-2.54,6.45C39.4,38,41,39.47,41,41.35s-1.31,3.15-.64,4.73l-3.74.05C35.48,44,37.74,41.9,37.69,39.71ZM31.34,28.16c.14-.63,1.75-.93,2.3-1.1a13.56,13.56,0,0,1,2.45-.54,2.76,2.76,0,0,0,0,.59,7.38,7.38,0,0,0,.65,1.69L34,29.27a7.37,7.37,0,0,1-1.46.22C32,29.44,31.18,28.81,31.34,28.16Zm13.46-4.8c.46,1.26.75,2.56,1.2,3.81a11.83,11.83,0,0,1,1.16,3.47c.08,2.42-2.54,3.71-2.71,6.12a3.71,3.71,0,0,0,.26,1.44,5.9,5.9,0,0,1,.2,4c-.4,1.32-1.23,2.65-.53,3.86H41.55c-1-1.55.83-4.14.28-6C41.51,39,40.76,38,40.77,36.82c0-1.49,1.18-2.35,2-3.46,2.51-3.53-1.24-6.35-2.3-9.56C41.74,22.76,43.37,22.27,44.8,23.36Zm4.4,13a2.84,2.84,0,0,0-.06,1.84,4.79,4.79,0,0,1-.27,4c-.69,1.46-1.3,2.67-.44,3.87l-2.88,0a.53.53,0,0,0-.14-.36c-1-1.11,1.23-4.63,1-6.23-.12-.8-.54-1.42-.63-2.24-.21-1.75.87-2.51,1.83-3.8a4.24,4.24,0,0,0,.6-3.37A20.54,20.54,0,0,0,47,26.89c-.44-1.23-.73-2.5-1.17-3.73,2-2.21,4.46.12,5.07,2.22a14,14,0,0,1,.49,3.92,11.27,11.27,0,0,1-.5,3.69C50.49,34.18,49.59,35.13,49.2,36.33Z" transform="translate(-22.85 -5.7)"/><path class="cls-6" d="M33.08,24.26c2.81-.74,5.57-1.64,8.31-2.59C51.51,18.17,61.81,15.3,72,11.94c.65-.22,1.7-.38,2.06-1,.62-1.13-.19-3.58-1-4.43-1.73-1.88-4.83.18-6.73.83-7.61,2.61-15.2,5.14-22.65,8.18-4.55,1.76-9.12,3.5-13.64,5.33-1.63.66-1.78,2.26-.38,3.6C30.63,25.34,31.93,24.57,33.08,24.26Zm-1.82-2.79c4.23-1.67,8.47-3.31,12.71-5q7.23-3,14.61-5.54c3.05-1.07,6.17-2,9.21-3.07.92-.34,2.75-1.38,3.74-1.18S73.34,9,73.11,10c-.16.68-.64.68-1.42.94-8,2.65-16.15,4.81-24.14,7.49-4.27,1.42-8.47,3-12.8,4.29-1,.3-5.06,2.09-4.91-.27C29.88,21.81,30.52,21.77,31.26,21.47Z" transform="translate(-22.85 -5.7)"/></svg>