<svg id="Layer_14" data-name="Layer 14" xmlns="http://www.w3.org/2000/svg" viewBox="0 0 83.89 77.14"><defs><style>.cls-1{fill:#fff;}.cls-2{fill:#deab71;}.cls-3{fill:#534741;}</style></defs><title>13</title><path class="cls-1" d="M90.5,22.58c-1-4.94-8.43-7.84-10.58-2-.33.89-1.91.84-1.78-.24.47-3.93-2.21-7.71-6.4-7.55a5.2,5.2,0,0,0-5.19,4.1c-.38,2.34,1.18,3.76,2.8,5.28a.91.91,0,0,1,0,1.28c-1.8,1.82-3.35,3.84-5,5.74a13.76,13.76,0,0,1,6,5.73c2.08-2.16,4.16-4.31,6.43-6.28,1.28-1.11,2.62-2.84,4.36-1.9.7.37,1.12,1.18,1.9,1.55a5,5,0,0,0,3.2.3C89.11,28,91.16,25.66,90.5,22.58Z" transform="translate(-8.71 -10.96)"/><path class="cls-2" d="M70.23,39.74c0-1.69-1-3.14-1.82-4.54a11.49,11.49,0,0,0-9.67-5.57c-3.29.07-6,2.34-8.59,4.08a25.18,25.18,0,0,1-7.43,3.64C33.23,39.53,21.65,43.14,16.28,52,13,57.38,10.17,64.59,10.46,71,10.78,78,15.27,83,21.74,85a29.69,29.69,0,0,0,16.35.3C43.29,84,48,80,51.85,76.34,56.54,71.9,58.88,65.93,61,60a50.55,50.55,0,0,1,3.4-7.76c1.58-2.8,3.73-5.14,4.83-8.19A13.33,13.33,0,0,0,70.23,39.74ZM19.47,67.19c-.16,1.15-1.91.66-1.75-.48A17.46,17.46,0,0,1,22,57.55c.77-.88,2.05.41,1.28,1.28A15.79,15.79,0,0,0,19.47,67.19Zm7-2.83a9.42,9.42,0,0,0-2.61,3.07c-.55,1-2.12.11-1.56-.92a10.86,10.86,0,0,1,2.88-3.44,1,1,0,0,1,1.29,0A.92.92,0,0,1,26.48,64.36Z" transform="translate(-8.71 -10.96)"/><path class="cls-3" d="M79.81,17.41a8,8,0,0,0-10-6.15c-2.42.67-5,2.61-5.43,5.21s1.25,4.67,2.91,6.37c-1.56,1.81-3.15,3.77-4.84,5.59-7.92-2.5-12.93,5.22-20.21,7.17-9.81,2.25-21.28,6-27.13,14.81C8.76,60,3.91,78.43,16.94,85a29.62,29.62,0,0,0,17.22,2.79,25.59,25.59,0,0,0,8.47-2.23,49.11,49.11,0,0,0,7.64-5.52A36.24,36.24,0,0,0,61.53,63.9a81.85,81.85,0,0,1,4-9.92c1.73-3.26,4.22-6,5.47-9.46,1-2.84,1.39-5.3.22-7.94,1.73-1.8,3.44-3.61,5.28-5.3.7-.65,2.43-2.67,3.38-2.73.72,0,1.53,1,2.3,1.38,3.47,1.63,8.51-.15,9.93-3.8C95,18.6,84.67,12.46,79.81,17.41ZM83,28.27c-.78-.37-1.2-1.18-1.9-1.55-1.74-.94-3.08.79-4.36,1.9-2.27,2-4.35,4.12-6.43,6.28a13.76,13.76,0,0,0-6-5.73c1.7-1.9,3.25-3.92,5-5.74a.91.91,0,0,0,0-1.28c-1.62-1.52-3.18-2.94-2.8-5.28a5.2,5.2,0,0,1,5.19-4.1c4.19-.16,6.87,3.62,6.4,7.55-.13,1.08,1.45,1.13,1.78.24,2.15-5.82,9.53-2.92,10.58,2,.66,3.08-1.39,5.43-4.3,6A5,5,0,0,1,83,28.27ZM61,60c-2.13,5.94-4.47,11.91-9.16,16.35C48,80,43.29,84,38.09,85.27A29.69,29.69,0,0,1,21.74,85C15.27,83,10.78,78,10.46,71,10.17,64.59,13,57.38,16.28,52c5.37-8.81,16.95-12.42,26.44-14.6a25.18,25.18,0,0,0,7.43-3.64c2.62-1.74,5.3-4,8.59-4.08a11.49,11.49,0,0,1,9.67,5.57c.83,1.4,1.83,2.85,1.82,4.54a13.33,13.33,0,0,1-1,4.3c-1.1,3.05-3.25,5.39-4.83,8.19A50.55,50.55,0,0,0,61,60Z" transform="translate(-8.71 -10.96)"/><path class="cls-3" d="M22,57.55a17.46,17.46,0,0,0-4.26,9.16c-.16,1.14,1.59,1.63,1.75.48a15.79,15.79,0,0,1,3.79-8.36C24,58,22.75,56.67,22,57.55Z" transform="translate(-8.71 -10.96)"/><path class="cls-3" d="M25.19,63.07a10.86,10.86,0,0,0-2.88,3.44c-.56,1,1,1.95,1.56.92a9.42,9.42,0,0,1,2.61-3.07.92.92,0,0,0,0-1.29A1,1,0,0,0,25.19,63.07Z" transform="translate(-8.71 -10.96)"/></svg>