<svg id="Layer_15" data-name="Layer 15" xmlns="http://www.w3.org/2000/svg" viewBox="0 0 84.51 51.27"><defs><style>.cls-1{fill:#fbbe3b;}.cls-2{fill:#a15b3a;}.cls-3{fill:#c96649;}.cls-4{fill:#b2bf4e;}.cls-5{fill:#deab71;}.cls-6{fill:#ffdfb8;}.cls-7{fill:#534741;}</style></defs><title>14</title><path class="cls-1" d="M84.1,51.31C80,53,75.4,52.49,71.11,52a.54.54,0,0,1-.27-.11c-.93,1.28-2.57,1.61-4.17,1.83a45.18,45.18,0,0,1-10,.14c-2.34-.21-5.18-.09-7-1.8h0a2.23,2.23,0,0,1-2.17.12A2.07,2.07,0,0,1,47,51.8a26.87,26.87,0,0,1-5.93.65,10.23,10.23,0,0,1-3.53-.28c-.91,3.21-8.46,3.07-11,3.06-2,0-7.17.16-10.45-1.15l-.91,1.4a74.76,74.76,0,0,0,7.62.29c3.16.09,6.33-.31,9.49-.33,6.78,0,13.52-.61,20.3-.85s13.62.46,20.4-.36c3-.37,6.16-.06,9.15-.74,2-.45,3.85-1,5.83-1.34-.67-.68-1.36-1.3-2.09-1.94A7.06,7.06,0,0,1,84.1,51.31Z" transform="translate(-7.88 -18.27)"/><path class="cls-2" d="M19,58.84a24.6,24.6,0,0,1,4.84.42,8.89,8.89,0,0,0,3.91,0c1.43-.42,1.93-1.53,2.53-2.75-4.59.09-9.31.58-13.9.15a23.12,23.12,0,0,0-1.57,2.49A22.81,22.81,0,0,0,19,58.84Z" transform="translate(-7.88 -18.27)"/><path class="cls-2" d="M31.21,57.09c.84,1.33,1.84,2.54,2.74,3.83.21.29.71,1.4,1.07,1.5.15,0,.48-.44.91-.72,1.43-.93,3.08-.8,4.7-.88A15.12,15.12,0,0,0,44.5,60l-.14,0A14.83,14.83,0,0,1,41,58.77a50.47,50.47,0,0,0-7.51-2.3l-.05,0c-.64,0-1.27,0-1.91,0Z" transform="translate(-7.88 -18.27)"/><path class="cls-2" d="M37.09,56.34a37.46,37.46,0,0,1,3.75,1.25A22.55,22.55,0,0,0,44,58.86c1.34.32,2.69,0,4,.19,1.72.32,3.66,1.16,5.42,1.21.81,0,1.39-.64,2.12-1.12a22,22,0,0,1,2.68-1.49,32.94,32.94,0,0,0-4.61-2,.43.43,0,0,1-.12,0l-1.69,0C46.86,55.87,42,56.16,37.09,56.34Z" transform="translate(-7.88 -18.27)"/><path class="cls-2" d="M78.15,55c-2,.1-4,.1-6,.34-5.25.64-10.57.3-15.87.24a33.88,33.88,0,0,1,3.32,1.62.53.53,0,0,1,0,.9c-.43.18-.85.38-1.26.58,3.86.65,7.71.07,11.59-.42,1-.12,2-.24,2.93-.32.82-.07,2.64.22,3.34-.13C77.11,57.42,77.6,56.06,78.15,55Z" transform="translate(-7.88 -18.27)"/><path class="cls-2" d="M81.06,54.77c-.54.09-1.09.14-1.64.19l0,0a13,13,0,0,0-1.82,3.55.54.54,0,0,1-.5.39c-.35,0-.7,0-1,0a1.29,1.29,0,0,0,.17.21c.74.65,1.15.44,2,.44a10.23,10.23,0,0,0,4.36-1,18.38,18.38,0,0,1,5.79-1.4c-.77-1.15-1.5-2.32-2.18-3.53C84.47,54,82.8,54.51,81.06,54.77Z" transform="translate(-7.88 -18.27)"/><path class="cls-3" d="M84.55,46.47c-.07.18,0,.4-.09.58a4.94,4.94,0,0,1-2,2.1,2.62,2.62,0,0,1-2.5.4,7,7,0,0,1-2-.9c-.39-.27-1-1.11-1.47-1-.75.1-1,1.4-2.08,1.44s-1.68-.83-2.5-1.45a2.22,2.22,0,0,0-2-.34A3.1,3.1,0,0,1,71.32,51a43.52,43.52,0,0,0,7.12.45,16.53,16.53,0,0,0,4.19-.68c1.27-.41,4.91-2,3.3-3.86l0,0c-.28-.17-.47-.47-.75-.63C84.2,45.66,84.85,45.68,84.55,46.47Z" transform="translate(-7.88 -18.27)"/><path class="cls-3" d="M64.94,51.29a3.78,3.78,0,0,1-3.24-.56A9.3,9.3,0,0,1,59.91,49C59,48,59,48.39,58,48.89c-1.35.68-2.43,0-3.88.29s-2.31,1.55-3.47,2.33c1.51,1.18,3.79,1.08,5.6,1.25,1.66.15,3.32.27,5,.27a39.18,39.18,0,0,0,4.84-.3,9.92,9.92,0,0,0,2.38-.42c1.88-.85,2.79-3.3.32-4.48l-.06,0a14,14,0,0,0-1.15.82C66.47,49.46,66.33,50.81,64.94,51.29Z" transform="translate(-7.88 -18.27)"/><path class="cls-3" d="M43.61,49.64c-1.16.28-1.78-1-2.86-.86-.22,0-.73.6-1,.69a2.7,2.7,0,0,1-1.2,0c-.37-.06-1.35-.49-1.65-.3h0l0,0A5.48,5.48,0,0,1,37.6,51c.81.74,3.66.46,4.57.43a28,28,0,0,0,4.29-.54c-.31-1-.24-2.1-1-2.84A3.24,3.24,0,0,1,43.61,49.64Z" transform="translate(-7.88 -18.27)"/><path class="cls-3" d="M25.69,54.18c2.35,0,12.47.64,10.6-3.86a1.35,1.35,0,0,1-.18.25c-.9,1-2.8,2.54-4.13,1.32-.47-.42-.33-1.11-.7-1.54-.07-.07-1.27-.62-1.29-.63a1.78,1.78,0,0,0-1.72.24c-1.44.8-3.5,2.36-5.05,1-.18-.17-.28-.43-.47-.59a3.15,3.15,0,0,0-1.38-.56c-.2-.07-.33,0-.54-.13-.52-.31-.19-.53-.81-1.09s-1.18-.33-1.75-.44c-1.66-.33-2,.07-3.22,1-.22.17-.37.44-.6.6C13.18,54.44,23.11,54.14,25.69,54.18Z" transform="translate(-7.88 -18.27)"/><path class="cls-4" d="M89.34,45.4c.41-.13,2.09-.68,1.93-1.23-.1-.33-1-.75-1.3-1a3.37,3.37,0,0,1-1.26-1.31c-.42-1.06.17-1.52-.74-2,0,.66-.09,1.3-.1,1.91a.71.71,0,0,1-.52.67c-5.59,1.65-11.36,1.31-17.11,1.3-6.16,0-12.32.37-18.46.78-12.41.83-24.85,1.81-37.26.49a.72.72,0,0,1-.5-.26.74.74,0,0,1-.19-.43c0-.32-.07-.63-.1-.94a5.89,5.89,0,0,1-.71.18,5.23,5.23,0,0,1-.68-.07c-1.26-.17-1.7.1-1.33.83-.29.52-.1.93-.65,1.47s-.91.28-.68,1.15,1,.35,1.85.52.81.56,1.4,1c.14.81.66.69,1.56-.34l.45-.58c.44-.3.45-.41.91-.57a7.13,7.13,0,0,1,3.43.17,4.41,4.41,0,0,1,1.8,1.12c.66.52,1,.3,1.72.7.37.2.51.62.82.84a2.73,2.73,0,0,0,3.06,0c.81-.42,1.5-1.32,2.46-1.44a5,5,0,0,1,2.76,1.07c.37.33.31.91.58,1.17,2.07,2,2.91-1.73,3.62-2.25s1-.24,1.79-.14A2.24,2.24,0,0,0,40,48.05a2,2,0,0,1,.43-.43c.2,0,.39-.18.6-.18.47,0,.64.35,1,.5,1.65.62,2.13.4,2.71-1a.53.53,0,0,1,.72-.18c.76.4,1.41.68,1.74,1.49.41,1-.14,1.23,1,2.18.93.77,1.24.76,2.22-.12.34-.3.59-.7,1-1a4.63,4.63,0,0,1,3.29-1.49c1.12.06,1.79.45,2.94-.14.47-.25.3-.6.94-.73a1.41,1.41,0,0,1,1.19.41c.69.49,1.13,1.34,1.78,1.89.32.28,1.23,1,1.65,1,.14,0,2.44-1.2,2.5-1.26a12.73,12.73,0,0,1,1.8-1.61c1.26-.85,2.45-3,4.21-1.74a4.71,4.71,0,0,1,.76.91,2.15,2.15,0,0,0,3,.58c.49-.31.66-.9,1.37-.82.93.1,1.73,1.48,2.63,1.87a3.4,3.4,0,0,0,4-1.47c.61-1.14,0-2.62,1.79-1.87.78.32,1.23,1,2.27,1A6.92,6.92,0,0,0,89.34,45.4Z" transform="translate(-7.88 -18.27)"/><path class="cls-5" d="M79.85,60.43c-1,.12-2.35.62-3.3.36s-1-1.13-1.7-1.78l-.06-.07c-5.94.23-11.84,2-17.77.58l-.07,0a17.58,17.58,0,0,0-1.58,1c-.69.5-1,1.18-1.85,1s-1.54-.6-2.45-.69a16.44,16.44,0,0,1-2.6-.54,5.33,5.33,0,0,0-1.11-.17,22.86,22.86,0,0,1-6.73,1.73,8.8,8.8,0,0,0-4.78,1.28c-.3.17-.48.47-.87.45-.7,0-1.13-1-1.49-1.5-.92-1.31-1.91-2.58-2.81-3.91a4.16,4.16,0,0,1-1.28,1.65,7.25,7.25,0,0,1-4.17.67c-2.16-.19-4.28-.78-6.46-.59a27.3,27.3,0,0,1-3.58.3c.06,1.63-.15,3.91.38,5.41,1,2.73,3.84,2.14,6.13,2.24q5,.21,10,.27,10,.12,19.91-.36,10.17-.49,20.3-1.63c3.3-.36,6.61-.91,9.93-1.08,2-.09,4.46.55,5.19-1.82a13.91,13.91,0,0,0,.51-5,15.27,15.27,0,0,0-4.4,1.17A11.28,11.28,0,0,1,79.85,60.43Z" transform="translate(-7.88 -18.27)"/><path class="cls-5" d="M50.88,43.21c6.16-.41,12.33-.81,18.5-.84,5.74,0,11.51.41,17.11-1.11l.12-4.68a15.8,15.8,0,0,0,0-3c-2.85.9-5.89.93-8.85,1.22-2.76.26-5.52.55-8.29.68-5,.23-9.93.17-14.89.31-5.49.15-11,.16-16.47.55-7.61.53-15.23,1.66-22.88,1.22a6.74,6.74,0,0,0-.37,2.21,30.46,30.46,0,0,0,.3,3.94C27,44.89,39,44,50.88,43.21Z" transform="translate(-7.88 -18.27)"/><path class="cls-6" d="M16,36.2c7.09.31,14.16-.67,21.22-1.2,5.47-.41,11-.45,16.45-.59,5.06-.13,10.13-.12,15.18-.31,2.66-.1,5.31-.35,8-.61,3.06-.3,6.24-.31,9.2-1.21a3.44,3.44,0,0,0-1.23-.94c-3.51-1.68-7.13-3.16-10.76-4.58s-7.16-2.67-10.79-3.88c-3.46-1.15-7.12-2.6-10.74-3.11-4.39-.63-9.26,2-13.15,3.81-3.45,1.57-6.81,3.32-10.13,5.12s-6.73,3.72-10.11,5.54a20.65,20.65,0,0,0-2.28,1.21A5.46,5.46,0,0,0,16,36.2Z" transform="translate(-7.88 -18.27)"/><path class="cls-7" d="M91.54,43.05c-.5-.4-1.42-.77-1.73-1.33s0-1.23-.17-1.77c-.27-.74-.89-.93-1.58-1.18A23.32,23.32,0,0,0,88,32.68c-.49-2.47-4-3.26-6-4.12-6.38-2.8-12.92-5.24-19.54-7.4a64,64,0,0,0-9.68-2.77c-3.42-.53-6.63.83-9.74,2.09a178.81,178.81,0,0,0-18.8,9.36q-2.73,1.52-5.46,3a18.5,18.5,0,0,0-4.26,2.49c-1.1,1.07-1,2.2-1,3.65a29.26,29.26,0,0,0,.11,3.26c-.84.63-2.3-.24-3.23.38-.74.51-.36.89-.51,1.57C9.59,45.44,7,46.32,8.16,47.87a2.2,2.2,0,0,0,1.67.7c1.06.08,1.27-.15,2.29.69.16.13.1.38.31.49a2.43,2.43,0,0,0,.88.32,3.35,3.35,0,0,0,1.91,3.55l-1.3,2a.53.53,0,0,0,.31.77l1,.15a23.75,23.75,0,0,0-1.64,2.75.56.56,0,0,0,.2.73v.09c.09,2.21-.48,6.83,1.71,8.34a6.66,6.66,0,0,0,3.47.68c2.11.12,4.22.2,6.33.26q12.9.42,25.8-.2,12.66-.6,25.25-2.18c2.1-.26,4.21-.53,6.34-.58,1.33,0,3,.42,4.21-.36,2.11-1.41,2.11-5.75,2-7.94l.41,0a.53.53,0,0,0,.45-.79q-1.33-1.92-2.5-3.94c.62-.13,1.24-.25,1.88-.32a.53.53,0,0,0,.36-.89,33.48,33.48,0,0,0-2.78-2.68A2.43,2.43,0,0,0,87.21,47a11.32,11.32,0,0,0,2.41-.6C91.51,45.78,93.59,44.74,91.54,43.05ZM87,63.24c-.73,2.37-3.2,1.73-5.19,1.82-3.32.17-6.63.72-9.93,1.08q-10.12,1.14-20.3,1.63-9.95.48-19.91.36-5-.06-9.95-.27c-2.29-.1-5.16.49-6.13-2.24-.53-1.5-.32-3.78-.38-5.41a27.3,27.3,0,0,0,3.58-.3c2.18-.19,4.3.4,6.46.59a7.25,7.25,0,0,0,4.17-.67,4.16,4.16,0,0,0,1.28-1.65c.9,1.33,1.89,2.6,2.81,3.91.36.51.79,1.47,1.49,1.5.39,0,.57-.28.87-.45a8.8,8.8,0,0,1,4.78-1.28,22.86,22.86,0,0,0,6.73-1.73,5.33,5.33,0,0,1,1.11.17,16.44,16.44,0,0,0,2.6.54c.91.09,1.62.55,2.45.69s1.16-.53,1.85-1a17.58,17.58,0,0,1,1.58-1l.07,0c5.93,1.37,11.83-.35,17.77-.58l.06.07c.65.65.71,1.51,1.7,1.78s2.33-.24,3.3-.36a11.28,11.28,0,0,0,3.24-1,15.27,15.27,0,0,1,4.4-1.17A13.91,13.91,0,0,1,87,63.24ZM72.9,58c-1,.08-2,.2-2.93.32-3.88.49-7.73,1.07-11.59.42.41-.2.83-.4,1.26-.58a.53.53,0,0,0,0-.9,33.88,33.88,0,0,0-3.32-1.62c5.3.06,10.62.4,15.87-.24,2-.24,4-.24,6-.34-.55,1-1,2.38-1.91,2.81C75.54,58.2,73.72,57.91,72.9,58ZM53.46,55.63a.43.43,0,0,0,.12,0,32.94,32.94,0,0,1,4.61,2,22,22,0,0,0-2.68,1.49c-.73.48-1.31,1.14-2.12,1.12-1.76,0-3.7-.89-5.42-1.21-1.33-.24-2.68.13-4-.19a22.55,22.55,0,0,1-3.11-1.27,37.46,37.46,0,0,0-3.75-1.25c4.89-.18,9.77-.47,14.68-.67Zm-20.05.82.05,0A50.47,50.47,0,0,1,41,58.77,14.83,14.83,0,0,0,44.36,60l.14,0a15.12,15.12,0,0,1-3.87.79c-1.62.08-3.27,0-4.7.88-.43.28-.76.77-.91.72-.36-.1-.86-1.21-1.07-1.5-.9-1.29-1.9-2.5-2.74-3.83l.29-.61C32.14,56.48,32.77,56.46,33.41,56.45Zm-3.09.06c-.6,1.22-1.1,2.33-2.53,2.75a8.89,8.89,0,0,1-3.91,0A24.6,24.6,0,0,0,19,58.84a22.81,22.81,0,0,1-4.19.31,23.12,23.12,0,0,1,1.57-2.49C21,57.09,25.73,56.6,30.32,56.51Zm52.24,2a10.23,10.23,0,0,1-4.36,1c-.84,0-1.25.21-2-.44a1.29,1.29,0,0,1-.17-.21c.34,0,.69,0,1,0a.54.54,0,0,0,.5-.39A13,13,0,0,1,79.4,55l0,0c.55-.05,1.1-.1,1.64-.19,1.74-.26,3.41-.76,5.11-1.17.68,1.21,1.41,2.38,2.18,3.53A18.38,18.38,0,0,0,82.56,58.53ZM88,52.15c-2,.33-3.87.89-5.83,1.34-3,.68-6.11.37-9.15.74-6.78.82-13.58.12-20.4.36s-13.52.8-20.3.85c-3.16,0-6.33.42-9.49.33a74.76,74.76,0,0,1-7.62-.29l.91-1.4c3.28,1.31,8.42,1.15,10.45,1.15,2.49,0,10,.15,11-3.06a10.23,10.23,0,0,0,3.53.28A26.87,26.87,0,0,0,47,51.8a2.07,2.07,0,0,0,.46.35A2.23,2.23,0,0,0,49.65,52h0c1.83,1.71,4.67,1.59,7,1.8a45.18,45.18,0,0,0,10-.14c1.6-.22,3.24-.55,4.17-1.83a.54.54,0,0,0,.27.11c4.29.51,8.88,1,13-.67A7.06,7.06,0,0,0,86,50.21C86.68,50.85,87.37,51.47,88,52.15Zm-2.11-5.28c1.61,1.86-2,3.45-3.3,3.86a16.53,16.53,0,0,1-4.19.68A43.52,43.52,0,0,1,71.32,51a3.1,3.1,0,0,0-1.45-3.71,2.22,2.22,0,0,1,2,.34c.82.62,1.3,1.5,2.5,1.45s1.33-1.34,2.08-1.44c.48-.06,1.08.78,1.47,1a7,7,0,0,0,2,.9,2.62,2.62,0,0,0,2.5-.4,4.94,4.94,0,0,0,2-2.1c.06-.18,0-.4.09-.58.3-.79-.35-.81.59-.28.28.16.47.46.75.63Zm-17.22.92.06,0c2.47,1.18,1.56,3.63-.32,4.48a9.92,9.92,0,0,1-2.38.42,39.18,39.18,0,0,1-4.84.3c-1.66,0-3.32-.12-5-.27-1.81-.17-4.09-.07-5.6-1.25,1.16-.78,1.92-2,3.47-2.33s2.53.39,3.88-.29c1-.5,1-.91,1.91.14a9.3,9.3,0,0,0,1.79,1.7,3.78,3.78,0,0,0,3.24.56c1.39-.48,1.53-1.83,2.62-2.68A14,14,0,0,1,68.71,47.79ZM46.46,50.86a28,28,0,0,1-4.29.54c-.91,0-3.76.31-4.57-.43a5.48,5.48,0,0,0-.71-1.78l0,0h0c.3-.19,1.28.24,1.65.3a2.7,2.7,0,0,0,1.2,0c.29-.09.8-.65,1-.69,1.08-.17,1.7,1.14,2.86.86A3.24,3.24,0,0,0,45.43,48C46.22,48.76,46.15,49.9,46.46,50.86Zm-32-1.14c.23-.16.38-.43.6-.6,1.18-.91,1.56-1.31,3.22-1,.57.11,1.26,0,1.75.44s.29.78.81,1.09c.21.13.34.06.54.13a3.15,3.15,0,0,1,1.38.56c.19.16.29.42.47.59,1.55,1.37,3.61-.19,5.05-1A1.78,1.78,0,0,1,30,49.72s1.22.56,1.29.63c.37.43.23,1.12.7,1.54,1.33,1.22,3.23-.33,4.13-1.32a1.35,1.35,0,0,0,.18-.25c1.87,4.5-8.25,3.9-10.6,3.86C23.11,54.14,13.18,54.44,14.45,49.72ZM85.24,44.9c-1.81-.75-1.18.73-1.79,1.87a3.4,3.4,0,0,1-4,1.47c-.9-.39-1.7-1.77-2.63-1.87-.71-.08-.88.51-1.37.82a2.15,2.15,0,0,1-3-.58,4.71,4.71,0,0,0-.76-.91c-1.76-1.27-3,.89-4.21,1.74a12.73,12.73,0,0,0-1.8,1.61c-.06.06-2.36,1.26-2.5,1.26-.42,0-1.33-.76-1.65-1-.65-.55-1.09-1.4-1.78-1.89A1.41,1.41,0,0,0,58.6,47c-.64.13-.47.48-.94.73-1.15.59-1.82.2-2.94.14a4.63,4.63,0,0,0-3.29,1.49c-.36.31-.61.71-1,1-1,.88-1.29.89-2.22.12-1.16-1-.61-1.16-1-2.18-.33-.81-1-1.09-1.74-1.49a.53.53,0,0,0-.72.18c-.58,1.37-1.06,1.59-2.71,1-.39-.15-.56-.51-1-.5-.21,0-.4.15-.6.18a2,2,0,0,0-.43.43,2.24,2.24,0,0,1-2.12.17c-.78-.1-1.13-.36-1.79.14s-1.55,4.28-3.62,2.25c-.27-.26-.21-.84-.58-1.17a5,5,0,0,0-2.76-1.07c-1,.12-1.65,1-2.46,1.44a2.73,2.73,0,0,1-3.06,0c-.31-.22-.45-.64-.82-.84-.73-.4-1.06-.18-1.72-.7a4.41,4.41,0,0,0-1.8-1.12A7.13,7.13,0,0,0,15.85,47c-.46.16-.47.27-.91.57l-.45.58c-.9,1-1.42,1.15-1.56.34-.59-.4-.56-.8-1.4-1S10,48,9.68,47s.14-.62.68-1.15.36-1,.65-1.47c-.37-.73.07-1,1.33-.83a5.23,5.23,0,0,0,.68.07,5.89,5.89,0,0,0,.71-.18c0,.31.06.62.1.94a.74.74,0,0,0,.19.43.72.72,0,0,0,.5.26c12.41,1.32,24.85.34,37.26-.49,6.14-.41,12.3-.78,18.46-.78,5.75,0,11.52.35,17.11-1.3a.71.71,0,0,0,.52-.67c0-.61,0-1.25.1-1.91.91.48.32.94.74,2A3.37,3.37,0,0,0,90,43.19c.29.23,1.2.65,1.3,1,.16.55-1.52,1.1-1.93,1.23a6.92,6.92,0,0,1-1.83.46C86.47,45.87,86,45.22,85.24,44.9ZM19.12,34.24c3.38-1.82,6.73-3.71,10.11-5.54s6.68-3.55,10.13-5.12c3.89-1.78,8.76-4.44,13.15-3.81,3.62.51,7.28,2,10.74,3.11Q68.69,24.7,74,26.76c3.63,1.42,7.25,2.9,10.76,4.58a3.44,3.44,0,0,1,1.23.94c-3,.9-6.14.91-9.2,1.21-2.65.26-5.3.51-8,.61-5.05.19-10.12.18-15.18.31-5.48.14-11,.18-16.45.59-7.06.53-14.13,1.51-21.22,1.2a5.46,5.46,0,0,1,.82-.75A20.65,20.65,0,0,1,19.12,34.24Zm-4,9.46a30.46,30.46,0,0,1-.3-3.94,6.74,6.74,0,0,1,.37-2.21c7.65.44,15.27-.69,22.88-1.22,5.48-.39,11-.4,16.47-.55,5-.14,9.94-.08,14.89-.31,2.77-.13,5.53-.42,8.29-.68,3-.29,6-.32,8.85-1.22a15.8,15.8,0,0,1,0,3l-.12,4.68c-5.6,1.52-11.37,1.08-17.11,1.11-6.17,0-12.34.43-18.5.84C39,44,27,44.89,15.14,43.7Z" transform="translate(-7.88 -18.27)"/></svg>