<svg id="Layer_16" data-name="Layer 16" xmlns="http://www.w3.org/2000/svg" viewBox="0 0 87.37 73.51"><defs><style>.cls-1{fill:#ffdfb8;}.cls-2{fill:#c96649;}.cls-3{fill:#a3533b;}.cls-4{fill:#534741;}</style></defs><title>15</title><path class="cls-1" d="M81.23,62.63c-10.47,13-28.36,15.78-44,12.88C28.89,74,20,70.8,13.41,65.38a21.53,21.53,0,0,1-5.62-7A41.63,41.63,0,0,0,8.72,67c.93,3.84,4.15,6.45,7.23,8.63,7.89,5.57,17.23,8.08,26.76,8.64,10.43.61,20.3.07,29.54-5.35C86,70.85,91.33,55.71,91.4,40.57,89.49,48.36,86.27,56.38,81.23,62.63Z" transform="translate(-5.87 -12.92)"/><path class="cls-2" d="M17.51,62.17a52.37,52.37,0,0,0,18.87,8.54,46.88,46.88,0,0,0,23.47-.25c6.82-1.9,13.68-5.72,18.25-11.24C82.46,54,85.32,44.75,87,37.7c1.75-7.35.36-15-5.73-18.34-13.92-7.74-20.15,6.29-32.64,10.33-2.39.93-8.52,2-11.34,2.33-8.11,1-16.15,2.88-22.21,8.89a14.2,14.2,0,0,0-4.59,10.55C10.49,55.51,13.67,59.56,17.51,62.17ZM74.28,21.35c3.52,4.36,5.79,9.55,8.86,14.23,3,4.52.65,6.36-2.53,1.48-3.06-4.69-5.59-9.68-8.86-14.23C69,19.4,71.73,18.19,74.28,21.35Zm-8,4c4.41,7.29,9.22,14.35,13.42,21.77,3,5.33.12,6.12-2.53,1.49-4.24-7.4-9.24-14.35-13.42-21.78C61.62,23.38,63.91,21.51,66.24,25.37Zm-8.5,4.82C62.07,39.78,67.9,48.77,73.1,57.91c2.39,4.21-.57,5-2.54,1.48C65.38,50.24,59.5,41.28,55.21,31.67,53.52,27.93,56.23,26.85,57.74,30.19Zm-9,3.64c5.82,9.68,9.44,20.38,15.52,30,2.08,3.28-.33,4.94-2.53,1.48-6.08-9.58-9.88-20.18-15.53-30h0C44.16,32,46.65,30.42,48.7,33.83ZM38.56,36.52c5.25,10,10.08,20.2,15.27,30.22,1.86,3.6-.73,5-2.54,1.48C46.11,58.2,41.18,48.05,36,38,34.16,34.45,36.76,33.08,38.56,36.52Zm-10,2.26c4.95,8.9,8.61,18.24,13.72,27,1.93,3.32-.66,4.7-2.53,1.48-5.12-8.78-8.26-18.43-13.72-27C24.11,36.74,26.71,35.39,28.59,38.78ZM19.64,44A175.56,175.56,0,0,1,27.94,62c1.55,3.77-1.05,5.07-2.53,1.48-2.5-6-5.29-12.14-8.3-17.93C15.21,42.06,17.79,40.66,19.64,44Z" transform="translate(-5.87 -12.92)"/><path class="cls-1" d="M20.16,67.7a59.57,59.57,0,0,0,24.24,7c14.83,1,29.68-3.58,37.95-16.58a62,62,0,0,0,7.59-18.93c1.83-7.88.76-15.18-5.65-20.64-6.53-5.78-16.93-4.48-23.47.37-2.77,2.05-5.33,4.5-8.32,6.22a34.84,34.84,0,0,1-11.12,3.59c-6.5,1.21-13.46,2-19.58,4.64s-13.34,9.23-14,16.2C6.91,57.87,13.43,64.06,20.16,67.7ZM15.08,40.91c6.06-6,14.1-7.89,22.21-8.89,2.82-.34,9-1.4,11.34-2.33,12.49-4,18.72-18.07,32.64-10.33,6.09,3.39,7.48,11,5.73,18.34-1.68,7-4.54,16.27-8.9,21.52-4.57,5.52-11.43,9.34-18.25,11.24a46.88,46.88,0,0,1-23.47.25,52.37,52.37,0,0,1-18.87-8.54c-3.84-2.61-7-6.66-7-10.71A14.2,14.2,0,0,1,15.08,40.91Z" transform="translate(-5.87 -12.92)"/><path class="cls-3" d="M25.41,63.44C26.89,67,29.49,65.73,27.94,62A175.56,175.56,0,0,0,19.64,44c-1.85-3.37-4.43-2-2.53,1.48C20.12,51.3,22.91,57.39,25.41,63.44Z" transform="translate(-5.87 -12.92)"/><path class="cls-3" d="M39.78,67.28c1.87,3.22,4.46,1.84,2.53-1.48-5.11-8.78-8.77-18.12-13.72-27-1.88-3.39-4.48-2-2.53,1.48C31.52,48.85,34.66,58.5,39.78,67.28Z" transform="translate(-5.87 -12.92)"/><path class="cls-3" d="M51.29,68.22c1.81,3.49,4.4,2.12,2.54-1.48-5.19-10-10-20.23-15.27-30.22-1.8-3.44-4.4-2.07-2.53,1.49C41.18,48.05,46.11,58.2,51.29,68.22Z" transform="translate(-5.87 -12.92)"/><path class="cls-3" d="M46.16,35.31c5.65,9.78,9.45,20.38,15.53,30,2.2,3.46,4.61,1.8,2.53-1.48-6.08-9.58-9.7-20.28-15.52-30-2.05-3.41-4.54-1.86-2.54,1.48Z" transform="translate(-5.87 -12.92)"/><path class="cls-3" d="M70.56,59.39c2,3.47,4.93,2.73,2.54-1.48-5.2-9.14-11-18.13-15.36-27.72-1.51-3.34-4.22-2.26-2.53,1.48C59.5,41.28,65.38,50.24,70.56,59.39Z" transform="translate(-5.87 -12.92)"/><path class="cls-3" d="M77.13,48.63c2.65,4.63,5.54,3.84,2.53-1.49-4.2-7.42-9-14.48-13.42-21.77-2.33-3.86-4.62-2-2.53,1.48C67.89,34.28,72.89,41.23,77.13,48.63Z" transform="translate(-5.87 -12.92)"/><path class="cls-3" d="M80.61,37.06c3.18,4.88,5.49,3,2.53-1.48-3.07-4.68-5.34-9.87-8.86-14.23-2.55-3.16-5.31-2-2.53,1.48C75,27.38,77.55,32.37,80.61,37.06Z" transform="translate(-5.87 -12.92)"/><path class="cls-4" d="M92.31,29.46a.82.82,0,0,0-.07-.25,19,19,0,0,0-6.7-12c-5.28-4.68-13.77-5.36-20.25-3-3.24,1.16-6,3.57-8.62,5.67a30.15,30.15,0,0,1-11.5,6.17c-7.81,2.05-16.08,2.39-23.63,5.48C15.51,34,9,39.77,6.75,46A14.36,14.36,0,0,0,6,51.83a.78.78,0,0,0-.1.44c.37,7.62-.71,16.19,5.34,21.83,6.9,6.43,16.7,10.35,26,11.52C47.93,87,59.58,87.06,69.53,82.36c9.7-4.59,16.06-12,20.16-21.81S93.88,39.72,92.31,29.46ZM72.25,78.92c-9.24,5.42-19.11,6-29.54,5.35C33.18,83.71,23.84,81.2,16,75.63c-3.08-2.18-6.3-4.79-7.23-8.63a41.63,41.63,0,0,1-.93-8.63,21.53,21.53,0,0,0,5.62,7C20,70.8,28.89,74,37.2,75.51c15.67,2.9,33.56.12,44-12.88,5-6.25,8.26-14.27,10.17-22.06C91.33,55.71,86,70.85,72.25,78.92ZM21.8,33.32c6.12-2.68,13.08-3.43,19.58-4.64A34.84,34.84,0,0,0,52.5,25.09c3-1.72,5.55-4.17,8.32-6.22,6.54-4.85,16.94-6.15,23.47-.37C90.7,24,91.77,31.26,89.94,39.14a62,62,0,0,1-7.59,18.93c-8.27,13-23.12,17.58-37.95,16.58a59.57,59.57,0,0,1-24.24-7C13.43,64.06,6.91,57.87,7.75,49.52,8.46,42.55,15.66,36,21.8,33.32Z" transform="translate(-5.87 -12.92)"/></svg>