<svg id="Layer_17" data-name="Layer 17" xmlns="http://www.w3.org/2000/svg" viewBox="0 0 70.76 81.82"><defs><style>.cls-1{fill:#fbbe3b;}.cls-2{fill:#c96649;}.cls-3{fill:#ffdfb8;}.cls-4{fill:#534741;}</style></defs><title>16</title><path class="cls-1" d="M66.39,25.56c-.53,3.93-1.25,7.82-2.09,11.7,1.61-.06,3.22-.13,4.83-.22.81-6,1.44-12.11,2.52-18.08.18-1,.38-2.25.71-3.43-.09-1.19-.56-3-1.78-3.39a9.83,9.83,0,0,0-4.14.26A2.39,2.39,0,0,0,64.18,15a13.17,13.17,0,0,0,.5,3.47.08.08,0,0,0,0,0l.24.11C67.79,20,66.75,22.9,66.39,25.56Z" transform="translate(-14.19 -9.45)"/><path class="cls-1" d="M31.78,14.68a29.69,29.69,0,0,1,.16,3.53,3.11,3.11,0,0,1,3.34,2.6c1.4,5.38,2,11.1,3,16.57a.86.86,0,0,1,0,.32h2L40.45,20c0-1.43-.24-2.85.86-3.91a3.64,3.64,0,0,1,1.7-.84c-.12-2-.08-4-2.56-4.28a20.48,20.48,0,0,0-5,.46C33.33,11.79,31.55,12.11,31.78,14.68Z" transform="translate(-14.19 -9.45)"/><path class="cls-1" d="M52.33,19.81c.18,2,.28,4.05.32,6.08a23.29,23.29,0,0,1,3,.19c.43-2.18.83-4.38,1.31-6.55.15-.67.22-1.73.83-2.19A32.26,32.26,0,0,0,58,13.18c-.08-1.09-.12-1.4-1.16-1.79a7,7,0,0,0-2.24-.23c-1,0-3.47-.1-4.36.55s-.57,2.81-.43,4.09a4.87,4.87,0,0,1,1.21.59C52.22,17.25,52.21,18.4,52.33,19.81Z" transform="translate(-14.19 -9.45)"/><path class="cls-1" d="M27.57,37.59C27,35,26.5,32.36,26,29.74s-1.51-5.57-1.7-8.27c-.16-2.28,1.28-2.79,3.09-3-.32-1.7-.32-4-2.38-4.61-.88-.26-3.07.28-3.79.42a4.51,4.51,0,0,0-3.49,3c-.31,1,.26,2.79.36,3.82q.84,8.18,1.82,16.34a.67.67,0,0,1,0,.25C22.43,37.59,25,37.57,27.57,37.59Z" transform="translate(-14.19 -9.45)"/><path class="cls-1" d="M44,16.64a2.75,2.75,0,0,0-2.08,1.57c-.33.75,0,2.23,0,3,0,1.81-.05,3.62-.07,5.43-.05,3.68-.09,7.35-.14,11,3,0,6.07-.06,9.11-.11a98.59,98.59,0,0,0,.5-11.78c0-1.82.17-4.21-.33-6-.73-2.62-2.36-3-4.83-3.24a7.39,7.39,0,0,0-2,0A.58.58,0,0,1,44,16.64Z" transform="translate(-14.19 -9.45)"/><path class="cls-1" d="M57.3,37.35c.29-2.05.62-4.1.86-6.15.19-1.59-.12-3-1.87-3.52a15.69,15.69,0,0,0-3.62-.39,100.35,100.35,0,0,1-.51,10.25l5.15-.1S57.3,37.38,57.3,37.35Z" transform="translate(-14.19 -9.45)"/><path class="cls-1" d="M72.15,25.33q-.8,5.81-1.6,11.61A73,73,0,0,1,78,36.45a133,133,0,0,0,2.33-13.59c.2-1.76.8-4.11.53-5.86a4.1,4.1,0,0,0-4.75-3.32C72.46,14.57,72.54,22.46,72.15,25.33Z" transform="translate(-14.19 -9.45)"/><path class="cls-1" d="M58.31,19.91c-1,1.58-1,4.54-1.31,6.47a3.61,3.61,0,0,1,2.48,2.12,7.64,7.64,0,0,1,0,3.68c-.24,1.74-.49,3.48-.73,5.23l4.15-.11a.28.28,0,0,1,0-.09c.51-2.35,1-4.71,1.4-7.08s1.28-5.2,1.08-7.56S60.14,16.85,58.31,19.91Z" transform="translate(-14.19 -9.45)"/><path class="cls-1" d="M26,22.87c-.06,1.45.68,3.3,1,4.73q1,5,2.06,10l3.69,0c1.4,0,2.8,0,4.2,0Q36,32.39,35,27.11c-.28-1.58-.56-3.16-.85-4.74-.39-2.08-1-2.56-3.21-2.67C28.41,19.57,26.11,19.84,26,22.87Z" transform="translate(-14.19 -9.45)"/><path class="cls-2" d="M83,42.23a7.2,7.2,0,0,0-.13-2.29c-.89-1.57-2.94-1.25-4.44-1.32-2-.09-3.93,0-5.89.09-13.57.71-27.19,1-40.78.8-3.79-.06-7.58-.09-11.36,0-1.92.06-4-.45-4.27,2.1a24.92,24.92,0,0,0,.48,4.85c.74,7.26,1.54,14.51,2.88,21.68.6,3.25,1.32,6.47,2.14,9.67S23,86.66,26.17,88.59c2.9,1.78,8.34.65,11.66.53l9.24-.31c6.63-.2,13.35-.37,20-.23a15.67,15.67,0,0,0,5.07-.27c2-.66,3.65-2.55,4.75-4.33,1.67-2.68,1.64-6,2.06-9.09.94-6.88,2.38-13.68,3.2-20.58A93.93,93.93,0,0,0,83,42.23ZM23.14,44.8A39.74,39.74,0,0,0,21.65,51c-.16.89-1.51.51-1.35-.37a39.83,39.83,0,0,1,1.48-6.19C22.08,43.57,23.44,43.94,23.14,44.8Zm3.66,3.8c-.61.83-.91,1.85-1.52,2.69s-1.75,0-1.21-.71.9-1.86,1.51-2.69S27.33,47.86,26.8,48.6ZM65,72.32c-2,1.81-4.78,2.47-7.33,3.08a37.71,37.71,0,0,1-10.39.77c-3.26-.11-6.32-.08-9.31-1.46-2.37-1.09-4.88-2.28-6.35-4.5A11.68,11.68,0,0,1,30.31,60c2.27-7.4,12.29-9.26,19-9.26,7.31.17,19.68,3.24,19.6,12.67A12.25,12.25,0,0,1,65,72.32Z" transform="translate(-14.19 -9.45)"/><path class="cls-3" d="M61.87,55.18c-3.72-2.34-8.24-3-12.55-3.09a28.43,28.43,0,0,0-13,3,9.89,9.89,0,0,0-4.38,12.74c3.12,6.7,11.42,6.8,17.72,7,5.68.19,13.75-.83,16.69-6.41C69.12,63.1,66.53,58.12,61.87,55.18Z" transform="translate(-14.19 -9.45)"/><path class="cls-4" d="M83,37.31a11.92,11.92,0,0,0-3.53-.79,132.54,132.54,0,0,0,2.67-17.18c.14-1.67.7-4-.51-5.45-1-1.27-3.06-1.27-4.53-1.49s-2.5-.68-3.48.51c-.08.09-.14.21-.22.31a4.18,4.18,0,0,0-1.11-2.12c-1.3-1-4.37-.38-5.84-.12s-3,.78-3.54,2.31a9.4,9.4,0,0,0,.2,4.54A12,12,0,0,0,59.21,17c0-1.15.1-2.29.16-3.44A4.23,4.23,0,0,0,59.1,11c-.9-1.3-3.52-1.26-4.88-1.24s-4.47,0-5.55,1.18c-.89,1-.53,3-.34,4.49a18.32,18.32,0,0,0-2.64-.32c-.39,0-.83,0-1.28,0-.1-1.7-.17-4.05-1.37-5-1.54-1.2-4.77-.44-6.47-.23s-4.57.25-5.81,1.6a2.62,2.62,0,0,0-.69,1.89c0,1.64.48,3.19.45,4.88l-1.77.14a.22.22,0,0,0,0-.08c-.25-1.21-.31-4.43-1.34-5.37A3.23,3.23,0,0,0,25,12.48c-2.28,0-5.85.18-7.61,1.88-2.11,2-.79,6.05-.53,8.55.5,4.84,1.05,9.69,1.63,14.52a.83.83,0,0,0,.1.29c-1.88.08-3.8.35-4.25,2.48a15.33,15.33,0,0,0,.2,4.58c.26,2.54.52,5.08.8,7.61.43,3.77.89,7.54,1.48,11.3.69,4.44,1.56,8.86,2.63,13.23.92,3.76,1.52,8.72,4,11.83s6.29,2.53,9.84,2.41l13.79-.48c7-.2,14.17-.29,21.22-.18,2.94,0,5.53-.32,7.7-2.46a13.51,13.51,0,0,0,4-7.16c1.45-7.67,2.49-15.57,3.57-23.29a124.1,124.1,0,0,0,1.17-12.46C84.84,42.9,85.67,38.45,83,37.31ZM76.87,84c-1.1,1.78-2.71,3.67-4.75,4.33a15.67,15.67,0,0,1-5.07.27c-6.63-.14-13.35,0-20,.23l-9.24.31c-3.32.12-8.76,1.25-11.66-.53-3.13-1.93-3.74-7.42-4.58-10.75s-1.54-6.42-2.14-9.67C18.11,61,17.31,53.75,16.57,46.49a24.92,24.92,0,0,1-.48-4.85c.28-2.55,2.35-2,4.27-2.1,3.78-.12,7.57-.09,11.36,0,13.59.24,27.21-.09,40.78-.8,2-.1,3.93-.18,5.89-.09,1.5.07,3.55-.25,4.44,1.32A7.2,7.2,0,0,1,83,42.23a93.93,93.93,0,0,1-.83,12.08c-.82,6.9-2.26,13.7-3.2,20.58C78.51,77.93,78.54,81.3,76.87,84Zm-57-46.55q-1-8.16-1.82-16.34c-.1-1-.67-2.84-.36-3.82a4.51,4.51,0,0,1,3.49-3c.72-.14,2.91-.68,3.79-.42,2.06.62,2.06,2.91,2.38,4.61-1.81.19-3.25.7-3.09,3,.19,2.7,1.15,5.62,1.7,8.27S27,35,27.57,37.59c-2.57,0-5.14,0-7.71.09A.67.67,0,0,0,19.87,37.43ZM40.45,11c2.48.27,2.44,2.3,2.56,4.28a3.64,3.64,0,0,0-1.7.84c-1.1,1.06-.84,2.48-.86,3.91l-.21,17.66h-2a.86.86,0,0,0,0-.32c-1-5.47-1.59-11.19-3-16.57a3.11,3.11,0,0,0-3.34-2.6,29.69,29.69,0,0,0-.16-3.53c-.23-2.57,1.55-2.89,3.67-3.22A20.48,20.48,0,0,1,40.45,11Zm9.76.71c.89-.65,3.31-.55,4.36-.55a7,7,0,0,1,2.24.23c1,.39,1.08.7,1.16,1.79a32.26,32.26,0,0,1-.19,4.16c-.61.46-.68,1.52-.83,2.19-.48,2.17-.88,4.37-1.31,6.55a23.29,23.29,0,0,0-3-.19c0-2-.14-4.06-.32-6.08-.12-1.41-.11-2.56-1.34-3.42a4.87,4.87,0,0,0-1.21-.59C49.64,14.52,49.2,12.45,50.21,11.71Zm14.47,6.74a13.17,13.17,0,0,1-.5-3.47,2.39,2.39,0,0,1,2.26-2.58,9.83,9.83,0,0,1,4.14-.26c1.22.41,1.69,2.2,1.78,3.39C72,16.71,71.83,18,71.65,19,70.57,24.93,69.94,31,69.13,37c-1.61.09-3.22.16-4.83.22.84-3.88,1.56-7.77,2.09-11.7.36-2.66,1.4-5.61-1.46-7l-.24-.11A.08.08,0,0,1,64.68,18.45ZM80.88,17c.27,1.75-.33,4.1-.53,5.86A133,133,0,0,1,78,36.45a73,73,0,0,0-7.47.49q.8-5.8,1.6-11.61c.39-2.87.31-10.76,4-11.65A4.1,4.1,0,0,1,80.88,17ZM30.93,19.7c2.2.11,2.82.59,3.21,2.67.29,1.58.57,3.16.85,4.74q1,5.28,1.91,10.58c-1.4,0-2.8,0-4.2,0L29,37.6q-1-5-2.06-10c-.29-1.43-1-3.28-1-4.73C26.11,19.84,28.41,19.57,30.93,19.7Zm21.74,7.59a15.69,15.69,0,0,1,3.62.39c1.75.48,2.06,1.93,1.87,3.52-.24,2.05-.57,4.1-.86,6.15,0,0,0,.06,0,.09l-5.15.1A100.35,100.35,0,0,0,52.67,27.29Zm12.68-4.72c.2,2.36-.68,5.21-1.08,7.56s-.89,4.73-1.4,7.08a.28.28,0,0,0,0,.09l-4.15.11c.24-1.75.49-3.49.73-5.23a7.64,7.64,0,0,0,0-3.68A3.61,3.61,0,0,0,57,26.38c.34-1.93.35-4.89,1.31-6.47C60.14,16.85,65.17,20.3,65.35,22.57Zm-19.26-6c2.47.24,4.1.62,4.83,3.24.5,1.77.29,4.16.33,6a98.59,98.59,0,0,1-.5,11.78c-3,0-6.07.09-9.11.11,0-3.67.09-7.34.14-11,0-1.81,0-3.62.07-5.43,0-.79-.3-2.27,0-3A2.75,2.75,0,0,1,44,16.64a.58.58,0,0,0,.14,0A7.39,7.39,0,0,1,46.09,16.57Z" transform="translate(-14.19 -9.45)"/><path class="cls-4" d="M21.78,44.42a39.83,39.83,0,0,0-1.48,6.19c-.16.88,1.19,1.26,1.35.37a39.74,39.74,0,0,1,1.49-6.18C23.44,43.94,22.08,43.57,21.78,44.42Z" transform="translate(-14.19 -9.45)"/><path class="cls-4" d="M25.58,47.89c-.61.83-.91,1.85-1.51,2.69s.69,1.43,1.21.71.91-1.86,1.52-2.69S26.11,47.16,25.58,47.89Z" transform="translate(-14.19 -9.45)"/><path class="cls-4" d="M49.32,50.69c-6.72,0-16.74,1.86-19,9.26a11.68,11.68,0,0,0,1.34,10.26c1.47,2.22,4,3.41,6.35,4.5,3,1.38,6,1.35,9.31,1.46A37.71,37.71,0,0,0,57.7,75.4c2.55-.61,5.35-1.27,7.33-3.08a12.25,12.25,0,0,0,3.89-9C69,53.93,56.63,50.86,49.32,50.69Zm17,17.73c-2.94,5.58-11,6.6-16.69,6.41-6.3-.21-14.6-.31-17.72-7a9.89,9.89,0,0,1,4.38-12.74,28.43,28.43,0,0,1,13-3c4.31.1,8.83.75,12.55,3.09C66.53,58.12,69.12,63.1,66.32,68.42Z" transform="translate(-14.19 -9.45)"/></svg>