<svg id="Layer_18" data-name="Layer 18" xmlns="http://www.w3.org/2000/svg" viewBox="0 0 78.01 81.5"><defs><style>.cls-1{fill:#c96649;}.cls-2{fill:#ffdfb8;}.cls-3{fill:#b2bf4e;}.cls-4{fill:#deab71;}.cls-5{fill:#534741;}</style></defs><title>17</title><path class="cls-1" d="M38.5,77.29c-1.22-3.77-6.87-6.54-10.39-4.45-3.82,2.25-4.06,6.37-2.77,10.12,0,0,0,.06,0,.09Q32,80.25,38.5,77.29Z" transform="translate(-12.55 -8.32)"/><path class="cls-1" d="M33.13,38.12c4.17,2.55,8.34.29,10.4-3.81s-1.67-8.51-5.76-9.2c-.47,1.35-1,2.7-1.43,4Q34.77,33.65,33.13,38.12Z" transform="translate(-12.55 -8.32)"/><path class="cls-1" d="M45.88,60.48c2.72-3.15,2.63-6.22-.09-9.31a7.93,7.93,0,0,0-10.24-.59c-3.26,2.59-2.55,6.67-.22,9.68C38.29,64.11,42.78,64.07,45.88,60.48Z" transform="translate(-12.55 -8.32)"/><path class="cls-1" d="M57.62,59.11c-4.22,2.22-3.84,6.33-1.68,9.86q6.23-3.09,12.38-6.31A7.87,7.87,0,0,0,57.62,59.11Z" transform="translate(-12.55 -8.32)"/><path class="cls-1" d="M55,38.58c-.31,2.13,1.1,4.88,2.42,6.45,3.91,4.67,8.66,2.36,11.42-1.77a91,91,0,0,0-9.55-9.39C57.32,34.72,55.37,36.32,55,38.58Z" transform="translate(-12.55 -8.32)"/><path class="cls-2" d="M78.89,57a96.17,96.17,0,0,0-9.1-12.62c-1.47,2.22-3.6,4.4-6.31,4.72a8.19,8.19,0,0,1-7.09-3.18C52.65,41.32,53,35.5,58.16,32.92A79.36,79.36,0,0,0,39,21.26c-.23.85-.49,1.71-.77,2.56,4.63.9,8.92,5.89,6.78,10.66-2.29,5.11-7.38,7.69-12.32,4.91-.49,1.35-1,2.69-1.49,4a4.51,4.51,0,0,0,2.88-.19c.32-.12.68,0,.9.5l.64,1.34a.67.67,0,0,1-.36.91,7.37,7.37,0,0,1-5.11.25c-.34.93-.69,1.87-1,2.8C24.3,61.78,19.32,74.47,14.92,87.36q4.62-1.86,9.21-3.79s0,0,0-.07c-1.63-4.72-.83-10.28,4.38-12.4,4.18-1.7,9.71,1.63,11.22,5.63q3.63-1.67,7.23-3.37c2.61-1.24,5.21-2.51,7.79-3.79-2.51-4.22-2.69-8.93,2.19-11.64,4.72-2.61,10.19-.37,12.59,4.1,2-1,3.93-2.06,5.88-3.11C76.53,58.31,77.7,57.54,78.89,57ZM45.23,39.33a4.27,4.27,0,0,0,2.53-4.44.66.66,0,0,1,.49-.7l1.63-.44a.66.66,0,0,1,.82.53,7.27,7.27,0,0,1-4.24,7.77.67.67,0,0,1-.92-.34L45,40.32C44.8,39.84,44.93,39.48,45.23,39.33Zm-19.6,29a.67.67,0,0,1-.92-.33l-.58-1.37c-.21-.48-.08-.84.22-1a4.28,4.28,0,0,0,2.42-4.5.66.66,0,0,1,.48-.71L28.86,60a.66.66,0,0,1,.84.51A7.28,7.28,0,0,1,25.63,68.35Zm9.24-6.51c-3-3.38-4.35-8.41-.75-11.8a9.22,9.22,0,0,1,12.56.13l0,0a.81.81,0,0,1,.1.09c3.51,4,3.08,8.07-.57,11.78A7.46,7.46,0,0,1,34.87,61.84ZM47.33,71a7.25,7.25,0,0,1-8.74-1.46.66.66,0,0,1,0-1l1.12-1c.4-.34.78-.33,1-.09a4.28,4.28,0,0,0,5,.93.66.66,0,0,1,.82.23c.27.41.66,1,.94,1.39A.66.66,0,0,1,47.33,71ZM55.5,54.83a.65.65,0,0,1-.92.32A7.26,7.26,0,0,1,51.09,47a.67.67,0,0,1,.84-.51l1.42.43c.5.14.7.47.64.8a4.26,4.26,0,0,0,1.93,4.73.66.66,0,0,1,.24.82Zm16.64,1.29-1.34.65c-.46.22-.84.12-1-.17a4.27,4.27,0,0,0-4.61-2.2.67.67,0,0,1-.74-.44l-.55-1.59a.66.66,0,0,1,.47-.86,7.27,7.27,0,0,1,8.06,3.67A.67.67,0,0,1,72.14,56.12Z" transform="translate(-12.55 -8.32)"/><path class="cls-3" d="M35.59,45.07,35,43.73c-.22-.47-.58-.62-.9-.5a4.51,4.51,0,0,1-2.88.19l-1.05,2.81A7.37,7.37,0,0,0,35.23,46,.67.67,0,0,0,35.59,45.07Z" transform="translate(-12.55 -8.32)"/><path class="cls-3" d="M45.54,41.71a.67.67,0,0,0,.92.34,7.27,7.27,0,0,0,4.24-7.77.66.66,0,0,0-.82-.53l-1.63.44a.66.66,0,0,0-.49.7,4.27,4.27,0,0,1-2.53,4.44c-.3.15-.43.51-.24,1Z" transform="translate(-12.55 -8.32)"/><path class="cls-3" d="M55.92,52.46A4.26,4.26,0,0,1,54,47.73c.06-.33-.14-.66-.64-.8l-1.42-.43a.67.67,0,0,0-.84.51,7.26,7.26,0,0,0,3.49,8.14.65.65,0,0,0,.92-.32l.66-1.55A.66.66,0,0,0,55.92,52.46Z" transform="translate(-12.55 -8.32)"/><path class="cls-3" d="M64.36,51.51a.66.66,0,0,0-.47.86L64.44,54a.67.67,0,0,0,.74.44,4.27,4.27,0,0,1,4.61,2.2c.17.29.55.39,1,.17l1.34-.65a.67.67,0,0,0,.28-.94A7.27,7.27,0,0,0,64.36,51.51Z" transform="translate(-12.55 -8.32)"/><path class="cls-3" d="M46.61,68.63a.66.66,0,0,0-.82-.23,4.28,4.28,0,0,1-5-.93c-.25-.24-.63-.25-1,.09l-1.12,1a.66.66,0,0,0,0,1A7.25,7.25,0,0,0,47.33,71a.66.66,0,0,0,.22-1C47.27,69.6,46.88,69,46.61,68.63Z" transform="translate(-12.55 -8.32)"/><path class="cls-3" d="M28.86,60l-1.61.47a.66.66,0,0,0-.48.71,4.28,4.28,0,0,1-2.42,4.5c-.3.16-.43.52-.22,1L24.71,68a.67.67,0,0,0,.92.33,7.28,7.28,0,0,0,4.07-7.87A.66.66,0,0,0,28.86,60Z" transform="translate(-12.55 -8.32)"/><path class="cls-4" d="M87.73,46.48a46.67,46.67,0,0,0-3.31-6.59,69.14,69.14,0,0,0-20-20.75,67.33,67.33,0,0,0-12.08-6.52c-2.54-1.08-6.18-2.92-9.06-2.41-2.95,1.39-3.4,6.07-4,9.27C56.74,26.76,70.91,40.3,80.59,56.31a13.23,13.23,0,0,0,1.86-.44,14,14,0,0,0,4.86-3.3C89.21,50.65,88.69,48.89,87.73,46.48Z" transform="translate(-12.55 -8.32)"/><path class="cls-5" d="M87.84,42.37C83.14,33,75.57,25.13,67.24,18.92a67.61,67.61,0,0,0-13.81-7.81c-3-1.27-7.14-3.33-10.49-2.66a1.45,1.45,0,0,0-.26.07c-2.51,1.12-3.78,4.72-4.46,7.13-.89,3.18-1.34,6.33-2.4,9.48-2.35,7-4.91,13.87-7.48,20.75C23,60.1,17.43,74.22,12.6,88.61a.91.91,0,0,0,1.2,1.15Q31,82.93,47.67,75,55.89,71.09,64,66.92q4.13-2.11,8.22-4.28c2.87-1.52,5.77-3.5,8.87-4.51,3.33-1.08,6.59-2.65,8.68-5.64S89.24,45.16,87.84,42.37ZM55.94,69c-2.16-3.53-2.54-7.64,1.68-9.86a7.87,7.87,0,0,1,10.7,3.55Q62.17,65.89,55.94,69ZM69.51,62c-2.4-4.47-7.87-6.71-12.59-4.1-4.88,2.71-4.7,7.42-2.19,11.64-2.58,1.28-5.18,2.55-7.79,3.79q-3.6,1.71-7.23,3.37c-1.51-4-7-7.33-11.22-5.63-5.21,2.12-6,7.68-4.38,12.4,0,0,0,0,0,.07q-4.59,1.94-9.21,3.79C19.32,74.47,24.3,61.78,29.08,49c.35-.93.7-1.87,1-2.8l1.05-2.81c.5-1.34,1-2.68,1.49-4,4.94,2.78,10,.2,12.32-4.91,2.14-4.77-2.15-9.76-6.78-10.66.28-.85.54-1.71.77-2.56A79.36,79.36,0,0,1,58.16,32.92c-5.2,2.58-5.51,8.4-1.77,12.95a8.19,8.19,0,0,0,7.09,3.18c2.71-.32,4.84-2.5,6.31-4.72A96.17,96.17,0,0,1,78.89,57c-1.19.59-2.36,1.36-3.5,2C73.44,60,71.47,61,69.51,62ZM25.34,83c-1.29-3.75-1.05-7.87,2.77-10.12,3.52-2.09,9.17.68,10.39,4.45q-6.53,3-13.14,5.76S25.35,83,25.34,83ZM43.53,34.31c-2.06,4.1-6.23,6.36-10.4,3.81q1.63-4.47,3.21-9c.46-1.34,1-2.69,1.43-4C41.86,25.8,45.63,30.15,43.53,34.31ZM57.45,45c-1.32-1.57-2.73-4.32-2.42-6.45s2.29-3.86,4.29-4.71a91,91,0,0,1,9.55,9.39C66.11,47.39,61.36,49.7,57.45,45Zm25,10.84a13.23,13.23,0,0,1-1.86.44c-9.68-16-23.85-29.55-41.22-36.83.56-3.2,1-7.88,4-9.27,2.88-.51,6.52,1.33,9.06,2.41a67.33,67.33,0,0,1,12.08,6.52,69.14,69.14,0,0,1,20,20.75,46.67,46.67,0,0,1,3.31,6.59c1,2.41,1.48,4.17-.42,6.09A14,14,0,0,1,82.45,55.87Z" transform="translate(-12.55 -8.32)"/><path class="cls-5" d="M46.24,62.07c3.65-3.71,4.08-7.83.57-11.78a.81.81,0,0,0-.1-.09l0,0A9.22,9.22,0,0,0,34.12,50c-3.6,3.39-2.28,8.42.75,11.8A7.46,7.46,0,0,0,46.24,62.07ZM35.55,50.58a7.93,7.93,0,0,1,10.24.59c2.72,3.09,2.81,6.16.09,9.31-3.1,3.59-7.59,3.63-10.55-.22C33,57.25,32.29,53.17,35.55,50.58Z" transform="translate(-12.55 -8.32)"/></svg>