<svg id="Layer_19" data-name="Layer 19" xmlns="http://www.w3.org/2000/svg" viewBox="0 0 80.09 77.04"><defs><style>.cls-1{fill:#deab71;}.cls-2{fill:#ffdfb8;}.cls-3{fill:#c96649;}.cls-4{fill:#fbbe3b;}.cls-5{fill:#534741;}</style></defs><title>18</title><path class="cls-1" d="M40.36,84.09a67.92,67.92,0,0,0,9.2-5.33c5.78-4,10.68-8.86,15.76-13.65C73.5,57.4,82.05,49.42,87.48,39.4c1.6-2.94,2.18-6.13.44-9.17-2.14-3.76-6-3.84-9.73-2.77a42.11,42.11,0,0,0-14.94,7.77A204.53,204.53,0,0,0,41.38,55.6c-3.78,4-8.28,7.6-11.51,12.13-3.54,5-5.26,12.11-.68,17C32.83,87.93,36.62,85.87,40.36,84.09Zm-4.68-3.26A41,41,0,0,1,37,76.36c.41-1.09,2.17-.61,1.76.49a38.36,38.36,0,0,0-1.35,4.47C37.17,82.46,35.41,82,35.68,80.83Zm-2.84-.07a18.56,18.56,0,0,1,.86-7.29c.37-1.11,2.13-.63,1.76.49a17,17,0,0,0-.8,6.8C34.76,81.93,32.93,81.92,32.84,80.76Z" transform="translate(-10.65 -11.14)"/><path class="cls-2" d="M59.81,18.81a100.62,100.62,0,0,0-8.21,5.86c-.51.46-.77.76-1.2,1.11-7.43,6.06-14,13.14-21,19.67-3.54,3.3-6.38,7.21-9.57,10.84s-7,8.32-4.61,13.24c1.52-4.1,4.31-7.77,6.9-11.23A136.9,136.9,0,0,1,31.58,47,216.63,216.63,0,0,1,54.31,26.14C58.1,23.09,61.93,20,66,17.29c.81-.54,1.64-1.06,2.49-1.54l-.07,0c-.67.12-1.36.22-2.08.36A19.41,19.41,0,0,0,59.81,18.81Z" transform="translate(-10.65 -11.14)"/><path class="cls-1" d="M15.17,69.53c-2.39-4.92,1.48-9.69,4.61-13.24s6-7.54,9.57-10.84c7-6.53,13.62-13.61,21-19.67.43-.35.69-.65,1.2-1.11a100.62,100.62,0,0,1,8.21-5.86,19.41,19.41,0,0,1,6.48-2.73c.72-.14,1.41-.24,2.08-.36C64.19,14.2,59.8,17,56.28,19.22a72.49,72.49,0,0,0-8.74,6.66c-4.86,4.27-9.71,8.61-14.44,13-4.3,4-8.31,8.3-12.47,12.45a32.24,32.24,0,0,0-6.48,8.77c-1.74,3.64-1.42,6.85.91,9.74C15.09,69.75,15.13,69.64,15.17,69.53Z" transform="translate(-10.65 -11.14)"/><path class="cls-3" d="M85.72,14.36c-.25-.13-.53-.31-.64-.36l-1.32-.58c-.45-.19-.92-.37-1.38-.55.17.88.39,1.75.55,2.64l0,0a13.16,13.16,0,0,0,1.75-.72l.86-.4Z" transform="translate(-10.65 -11.14)"/><path class="cls-3" d="M25.2,81.33a16.2,16.2,0,0,1,1.73-12.41C30.54,62.5,37,57.61,42,52.28c4.18-4.46,8.79-8.45,13.33-12.53,4.71-4.23,9.38-8.5,15.13-11.3,3.56-1.74,8.44-4,12.69-3.46a5.68,5.68,0,0,0,.12-6.88c-1.58-2.25-4.53-3.06-7.15-2.95-5,.22-9.19,3.59-13,6.47a252.86,252.86,0,0,0-21.53,18A148.89,148.89,0,0,0,22.44,60.85C19.7,64.66,16.37,69,16,73.87S20.06,84.83,25.2,81.33ZM20.47,66.74c.47-.29,1.29-.1,1.78-.15,1.8-.16,3.13-.77,3.37-2.72.18-1.4-.6-2.78-.26-4.21a3,3,0,0,1,1.81-2.18c1.69-.75,3-.08,4.61-1.31,1.91-1.5,1.43-3.66,2.21-5.79a4.22,4.22,0,0,1,1.69-2.26c3-1.86,8.21.69,8.31-4.57,0-2.51-.05-5.54,2.73-6.79a7.47,7.47,0,0,1,3.64-.19c.83.06,2.44.45,3.15,0,1-.56.81-2.52.91-3.46.31-2.82,1.67-4.8,4.55-5.29,2.28-.39,4.55.15,5.86-2.24.59-1.07.66-2.37,1.51-3.33,2.13-2.39,5.29.92,7.26-2.13.64-1,2.22-.07,1.58.92a6.77,6.77,0,0,1-2.82,2.34c-1.22.56-1.56.18-2.8.12-3-.14-2.37,2.31-3.71,4.08a4.66,4.66,0,0,1-3.08,1.71c-2.35.46-5.07-.18-6.22,2.54-.67,1.55,0,3.4-.62,4.92-.9,2.15-3.69,1.74-5.57,1.59-1.44-.11-2.93-.2-4,1.12-.75.93-.6,2.15-.59,3.23a7.73,7.73,0,0,1-.65,3.92c-1.2,2.19-3.65,2.22-5.86,2.45-2.69.28-3.55,1.38-4.05,4A10.21,10.21,0,0,1,34,57.24a3.8,3.8,0,0,1-2.44,1.53c-.66.15-1.48-.05-2.11.16a2.82,2.82,0,0,0-2.18,3.33c.26,2.09.44,4.09-1.62,5.28-1.1.63-3.25.29-4.09.91-1.38,1-.17,4.44.36,5.74.45,1.08-1.32,1.55-1.76.48C19.39,72.82,18.16,68.16,20.47,66.74Z" transform="translate(-10.65 -11.14)"/><path class="cls-3" d="M15.81,84.57c.1-1,.18-2,.29-3.07a23.75,23.75,0,0,0-3.47.27A35.55,35.55,0,0,0,15.81,84.57Z" transform="translate(-10.65 -11.14)"/><path class="cls-4" d="M21.91,74.19c-.53-1.3-1.74-4.71-.36-5.74.84-.62,3-.28,4.09-.91,2.06-1.19,1.88-3.19,1.62-5.28a2.82,2.82,0,0,1,2.18-3.33c.63-.21,1.45,0,2.11-.16A3.8,3.8,0,0,0,34,57.24a10.21,10.21,0,0,0,1.24-4.16c.5-2.59,1.36-3.69,4.05-4,2.21-.23,4.66-.26,5.86-2.45a7.73,7.73,0,0,0,.65-3.92c0-1.08-.16-2.3.59-3.23,1-1.32,2.54-1.23,4-1.12,1.88.15,4.67.56,5.57-1.59.64-1.52,0-3.37.62-4.92,1.15-2.72,3.87-2.08,6.22-2.54a4.66,4.66,0,0,0,3.08-1.71c1.34-1.77.72-4.22,3.71-4.08,1.24.06,1.58.44,2.8-.12a6.77,6.77,0,0,0,2.82-2.34c.64-1-.94-1.9-1.58-.92-2,3-5.13-.26-7.26,2.13-.85,1-.92,2.26-1.51,3.33C63.52,28,61.25,27.48,59,27.87c-2.88.49-4.24,2.47-4.55,5.29-.1.94.06,2.9-.91,3.46-.71.4-2.32,0-3.15,0a7.47,7.47,0,0,0-3.64.19C43.94,38,44,41,44,43.55c-.1,5.26-5.33,2.71-8.31,4.57A4.22,4.22,0,0,0,34,50.38c-.78,2.13-.3,4.29-2.21,5.79-1.56,1.23-2.92.56-4.61,1.31a3,3,0,0,0-1.81,2.18c-.34,1.43.44,2.81.26,4.21-.24,1.95-1.57,2.56-3.37,2.72-.49,0-1.31-.14-1.78.15-2.31,1.42-1.08,6.08-.32,7.93C20.59,75.74,22.36,75.27,21.91,74.19Z" transform="translate(-10.65 -11.14)"/><path class="cls-5" d="M87,26.48a7.4,7.4,0,0,0-1.91-1c2-3,1.2-6.43-1-8.86.59-.24,1.16-.51,1.74-.79s1.87-.5,1.75-1.48S86.15,13,85.42,12.66c-1.21-.55-2.45-1-3.71-1.49a.69.69,0,0,0-.87.66,26.39,26.39,0,0,0,.52,2.65,9.56,9.56,0,0,0-3.47-1.08,14.56,14.56,0,0,0-7.37,1.32h0c-7.22-4.21-16,3.09-21.36,7.44C43,27.15,37,32.7,31.24,38.15c-5.21,4.91-11,10-15.35,15.71S9,66.25,14.47,71.94a11.75,11.75,0,0,0,1,8.19c-1.39.05-2.77.28-4.15.42a.69.69,0,0,0-.59,1c1.34,2.06,3.5,3.14,5.09,5,.44.5,1.11,0,1.17-.48.15-1.23.25-2.46.36-3.69a7.38,7.38,0,0,0,8.49.7,11.65,11.65,0,0,0,1.86,2.78,1,1,0,0,0,.17.21,1.25,1.25,0,0,0,.19.15c4.85,4,10.14,1.06,15.08-1.46A80.56,80.56,0,0,0,61.46,71.37c5.45-5.13,11.15-10.17,16.21-15.68a79,79,0,0,0,5.84-7.42c2-2.73,4.21-5.32,5.76-8.34C91.58,35.41,91.42,29.71,87,26.48Zm-70.9,55c-.11,1-.19,2-.29,3.07a35.55,35.55,0,0,1-3.18-2.8A23.75,23.75,0,0,1,16.1,81.5Zm-2-21.38a32.24,32.24,0,0,1,6.48-8.77C24.79,47.2,28.8,42.92,33.1,38.9c4.73-4.41,9.58-8.75,14.44-13a72.49,72.49,0,0,1,8.74-6.66c3.52-2.25,7.91-5,12.09-3.5l.07,0c-.85.48-1.68,1-2.49,1.54-4,2.73-7.85,5.8-11.64,8.85A216.63,216.63,0,0,0,31.58,47,136.9,136.9,0,0,0,22.07,58.3c-2.59,3.46-5.38,7.13-6.9,11.23,0,.11-.08.22-.11.33C12.73,67,12.41,63.76,14.15,60.12ZM16,73.87c.37-4.85,3.7-9.21,6.44-13A148.89,148.89,0,0,1,41.55,39.59a252.86,252.86,0,0,1,21.53-18c3.84-2.88,8-6.25,13-6.47,2.62-.11,5.57.7,7.15,2.95A5.68,5.68,0,0,1,83.14,25c-4.25-.53-9.13,1.72-12.69,3.46C64.7,31.25,60,35.52,55.32,39.75,50.78,43.83,46.17,47.82,42,52.28,37,57.61,30.54,62.5,26.93,68.92A16.2,16.2,0,0,0,25.2,81.33C20.06,84.83,15.64,78.77,16,73.87ZM83,15.54l0,0c-.16-.89-.38-1.76-.55-2.64.46.18.93.36,1.38.55l1.32.58c.11.05.39.23.64.36l-.14.06-.86.4A13.16,13.16,0,0,1,83,15.54ZM29.87,67.73C33.1,63.2,37.6,59.65,41.38,55.6A204.53,204.53,0,0,1,63.25,35.23a42.11,42.11,0,0,1,14.94-7.77c3.77-1.07,7.59-1,9.73,2.77,1.74,3,1.16,6.23-.44,9.17-5.43,10-14,18-22.16,25.71-5.08,4.79-10,9.66-15.76,13.65a67.92,67.92,0,0,1-9.2,5.33c-3.74,1.78-7.53,3.84-11.17.67C24.61,79.84,26.33,72.68,29.87,67.73Z" transform="translate(-10.65 -11.14)"/><path class="cls-5" d="M34.66,80.76a17,17,0,0,1,.8-6.8c.37-1.12-1.39-1.6-1.76-.49a18.56,18.56,0,0,0-.86,7.29C32.93,81.92,34.76,81.93,34.66,80.76Z" transform="translate(-10.65 -11.14)"/><path class="cls-5" d="M37.44,81.32a38.36,38.36,0,0,1,1.35-4.47c.41-1.1-1.35-1.58-1.76-.49a41,41,0,0,0-1.35,4.47C35.41,82,37.17,82.46,37.44,81.32Z" transform="translate(-10.65 -11.14)"/></svg>