<svg id="Layer_20" data-name="Layer 20" xmlns="http://www.w3.org/2000/svg" viewBox="0 0 86.55 76.63"><defs><style>.cls-1{fill:#ffdfb8;}.cls-2{fill:#b2bf4e;}.cls-3{fill:#deab71;}.cls-4{fill:#c96649;}.cls-5{fill:#a15b3a;}.cls-6{fill:#fbbe3b;}.cls-7{fill:#534741;}</style></defs><title>19</title><path class="cls-1" d="M17.62,74.69c2.49.27,4.92.63,7.4,1a159.15,159.15,0,0,0,25.24,2A180.07,180.07,0,0,0,76,76a73.8,73.8,0,0,0,8.21-1.7c1.71-.46,3.68-.85,4.29-2.66a7.61,7.61,0,0,0,.16-3.17A3.48,3.48,0,0,0,86,65.86a7.19,7.19,0,0,1-.28,4.66c-1.25,2.16-5.51,2.72-7.65,3.17-9,1.89-18.91,1.83-28.12,1.82-5.54,0-10.86-.31-16.38-.77-2.91-.23-5.79-.56-8.68-.94-2.25-.29-4.79-.29-6.95-1a6.12,6.12,0,0,1-3.85-5.39,2.9,2.9,0,0,0-1.59,2.12C12.37,72.88,14.23,74.34,17.62,74.69Z" transform="translate(-6.6 -11.97)"/><path class="cls-2" d="M18.82,61.5c1.26,1.08-.2,2.64.47,3.81l2.59.71.3-.53c.13-.06.16-.3.3-.36.4-.18.51-.52,1-.58,1.29-.16,1.75,1.8,2.69,1.85s2.12-2.65,3.2-3.25c1.32-.73,2-.47,3.25.17,2.1,1.07,2.81,2.4,5.14,1.46,3-1.18,4.18-2.67,6.56-.07a12.07,12.07,0,0,0,3.49,2.86c1.87.92,2.7.15,4.4-.6,1.51-.67,1.22-.1,2.49,0,2.53.27,2.06-4.58,4.66-3.66,2,.71,2.23,4.39,4.91,4.18,1.93-.16,3.46-2.87,5-3.88a4,4,0,0,1,3.4-.82c1.24.38,4.29,4.18,4.6,0a.8.8,0,0,1,.57-.76,7.9,7.9,0,0,1,3-.29c1,.12,4.16,1.75,5.06,1.27,1.88-1-1.1-3.87.34-5.17s4.81.56,5.16-2c0-.18-.72-3.22-.83-3.57-1.33-4-3.69-2.26-5.81-1.42,1.84,1.58,2.64,4.13.11,5.81-3.45,2.29-9.25,2.47-13.28,1.94C69.79,60,68,61.5,66.29,63a.77.77,0,0,1-.76.21c-3.46-1.38-7-2.54-10.54-3.63C49.2,62.69,41.38,63,35.92,59.06a.79.79,0,0,1-.27-.34c-4,1.86-9.94.77-14,.15-2.83-.43-6.3-1.44-7.44-4.43a3.47,3.47,0,0,1,.3-3.26l-.14-.06q-4.44,1.74-2.86,3.63l.08.18c0,.33.32.63.28,1a1.92,1.92,0,0,1-.38.77c-.37.6-1.46.79-2,1.22-.93.8-.53.21-.42,1.07C9.87,64.53,16.2,59.23,18.82,61.5Z" transform="translate(-6.6 -11.97)"/><path class="cls-3" d="M89.36,74.48c0-.26,0-.55,0-.86-1.52,1.9-5.31,2.31-7.49,2.79C72,78.62,61.52,79.12,51.4,79.23c-10.84.12-21.2-1.61-31.91-2.84-2.92-.33-5.38-.82-6.9-2.21a25.64,25.64,0,0,0,.57,2.59,13.9,13.9,0,0,0,2,4.72c1.89,2.53,5.18,3,8.12,3.29,5,.57,10.06.39,15.07.9,2.27.24,4.53.67,6.81.83,2.69.2,5.34-.19,8-.25,5.54-.11,10.86.44,16.37-.57,4.4-.8,8.7-2.11,13.07-3,2.59-.54,5-.93,6-3.74A13.31,13.31,0,0,0,89.36,74.48Z" transform="translate(-6.6 -11.97)"/><path class="cls-3" d="M52.59,52.92c6.9.32,13.53-.79,20.35-1.63,4.82-.59,13.58-2.11,15.89-7.12,2.46-5.3-2.46-13.79-5.93-17.66-4.19-4.69-10.11-7.69-16-9.66C54.13,12.59,39.16,13,27.08,19.28a25.12,25.12,0,0,0-11.6,11.81C13.45,35.35,11.6,41,13,45.67c2.41,5.2,11.08,6.07,16,6.81C36.88,53.65,44.72,52.55,52.59,52.92Zm23.16-14c1,1,.65,2.8-.19,3.77-1.08,1.25-2.75.95-3.87-.07-1.37-1.27-1.54-3.09-1.55-4.85a.66.66,0,0,1,.17-.47.68.68,0,0,1,.61-.31,5.86,5.86,0,0,1,2.42.62A8.06,8.06,0,0,1,75.75,38.9ZM65.41,21.28a.44.44,0,0,1,.2,0c1.49.3,3.41.26,4.64,1.21,1.08.83,1,2.58.38,3.68-.86,1.47-2.66,1.4-3.93.5-1.47-1-1.89-2.71-2.14-4.39A.82.82,0,0,1,65.41,21.28Zm-18,2c1-1.42,2.65-1.86,4.31-2.15a.92.92,0,0,1,.33,0,.76.76,0,0,1,.41.23.72.72,0,0,1,.25.45.65.65,0,0,1,0,.31c-.26,1.53-.13,3.54-1.19,4.81a3,3,0,0,1-3.72.29C46.41,26.36,46.54,24.57,47.45,23.33ZM45.33,40.25c.8-1.62,2.42-2.3,4-2.87a.65.65,0,0,1,.8.24.86.86,0,0,1,.16.3,6.5,6.5,0,0,1,.17,2.67A6.84,6.84,0,0,1,50,43.17a3,3,0,0,1-3.63.92C44.8,43.43,44.64,41.65,45.33,40.25ZM29.28,24c.45-1.57,2.17-1.95,3.58-1.56,1.68.45,2.68,1.82,3.56,3.22a.71.71,0,0,1,.08.65.65.65,0,0,1-.54.5c-1.55.34-3.56,1.32-5.15.77C29.5,27.09,28.93,25.21,29.28,24ZM25.63,42.61c-1.31.7-2.95-.26-3.61-1.44a2.56,2.56,0,0,1,1.22-3.48c1.7-1,3.53-.5,5.24.15a.91.91,0,0,1,.3.19A.64.64,0,0,1,29,39l-.07.1-.06.08A11.43,11.43,0,0,1,25.63,42.61Z" transform="translate(-6.6 -11.97)"/><path class="cls-1" d="M34.51,25.57a4.31,4.31,0,0,0-1.36-1.36c-.78-.46-2.41-.75-2.4.59C30.77,26.68,33,26.05,34.51,25.57Z" transform="translate(-6.6 -11.97)"/><path class="cls-1" d="M49.22,26.14c.48.1,1,.11,1.25-.33a4.39,4.39,0,0,0,.39-1.37c.11-.52.17-1,.23-1.55a4.49,4.49,0,0,0-1.71.68C48.49,24.21,47.69,25.83,49.22,26.14Z" transform="translate(-6.6 -11.97)"/><path class="cls-1" d="M69.48,24.83c.25-1.29-.9-1.39-1.9-1.57L66.25,23A4.4,4.4,0,0,0,67,24.87C67.72,25.75,69.2,26.31,69.48,24.83Z" transform="translate(-6.6 -11.97)"/><path class="cls-1" d="M74.48,41.5a1.6,1.6,0,0,0,.24-1.32c-.16-.37-.62-.52-1-.69a10.94,10.94,0,0,0-2-.84,4.34,4.34,0,0,0,.5,2.13C72.65,41.52,73.79,42.51,74.48,41.5Z" transform="translate(-6.6 -11.97)"/><path class="cls-1" d="M47.24,42.73c1.33.32,1.54-.71,1.65-1.77A9,9,0,0,0,49,39.18a4.94,4.94,0,0,0-1.66,1C46.65,40.8,45.89,42.41,47.24,42.73Z" transform="translate(-6.6 -11.97)"/><path class="cls-1" d="M23.85,40.9c1,.82,1.66-.14,2.32-.9.29-.34.57-.68.84-1a4.32,4.32,0,0,0-2-.25C23.88,38.89,22.59,39.88,23.85,40.9Z" transform="translate(-6.6 -11.97)"/><path class="cls-4" d="M78.88,56.83c1.36-.24,3.84-.4,4.89-1.37,1.79-1.65.77-3.42-1.17-4.19a30.41,30.41,0,0,1-3.45,1c-1.9,1.68-3.87,3.28-5.85,4.87A24.19,24.19,0,0,0,78.88,56.83Z" transform="translate(-6.6 -11.97)"/><path class="cls-5" d="M15.82,68.6c.87,2.62,3.68,2.93,6,3.24,3.7.5,7.41,1,11.14,1.3,7.1.54,14,.92,21.13.79,6.57-.11,13.3-.36,19.83-1.12a31,31,0,0,0,8.72-2c1.65-.74,1.94-1.37,1.89-3.17a6.79,6.79,0,0,0-.83-3.46h0a15.22,15.22,0,0,0-3.14-.85c-1.91-.14-1.17.13-2,.9-1.25,1.24-2.13,2.6-4,1.82s-1.86-2.32-4.26-1.25c-1.35.61-2.33,2.24-3.51,3.12-1.49,1.12-3.17,1.73-4.82.64-.71-.47-2.48-3.55-3.13-3.54-.34,0-1,1.94-1.3,2.37-1.2,2-1.56,1.88-3.32,1.29-.51-.82-1.05-.86-1.64-.13l-.73.43a6,6,0,0,1-1.08.53,4.36,4.36,0,0,1-2.85-.1,12.36,12.36,0,0,1-3.79-2.48c-.9-.83-1.39-2.15-2.59-2.12-2,0-3.76,2.63-5.82,2.37-1.46-.18-2.19-1.87-3.6-2.27-2.63-.74-2.79.9-4.16,2.41-1.07,1.17-1.78,1.15-2.95.22s-.86-1.09-2.21-.2a7.38,7.38,0,0,1-.77.6,3.69,3.69,0,0,1-2.22.24c-2.69-.62-1.59-2.51-2.11-4.49a2,2,0,0,0-.17-.42C15.89,64.11,15.26,66.89,15.82,68.6Z" transform="translate(-6.6 -11.97)"/><path class="cls-6" d="M66.16,61.07c1.41-.54,3.21-2.71,4.38-3.66C72.37,55.94,74.2,54.48,76,53c-.61.1-1.21.19-1.79.26-4.33.52-8.64,1.26-13,1.65s-8.61,0-12.95,0l-3.56,0c3.42,1,6.85,2,10.26,3a.68.68,0,0,1,.4.12c1.81.55,3.61,1.12,5.4,1.73C62.31,60.35,64.51,61.7,66.16,61.07Z" transform="translate(-6.6 -11.97)"/><path class="cls-4" d="M52.77,59c-4.43-1.31-8.88-2.54-13.29-3.93h-.23A6.92,6.92,0,0,1,37,57.91C41.57,61,47.75,61.05,52.77,59Z" transform="translate(-6.6 -11.97)"/><path class="cls-4" d="M18.09,56.28a11.59,11.59,0,0,0,2.82.9,40.24,40.24,0,0,0,5.49.59c3.74.24,9.09,1.09,11.14-2.76a70.46,70.46,0,0,1-12.88-1.18,37.66,37.66,0,0,1-8.1-2.31C15.55,53.87,16.05,55.46,18.09,56.28Z" transform="translate(-6.6 -11.97)"/><path class="cls-7" d="M89.48,58.85c1.45-.23,3.56-.61,3.67-2.45.08-1.37-.71-3.18-1-4.46-.28-1.1-.34-2.19-1.33-3a3.53,3.53,0,0,0-2.48-.83,12.24,12.24,0,0,0,1.32-1.27c3.87-4.38,1-11.53-1.28-16-2.91-5.77-7.79-10-13.46-12.9a55.16,55.16,0,0,0-45-2.24C23.05,18.45,17.53,22.58,14.1,29.2,11.54,34.15,9.3,40.77,11,46.33a.8.8,0,0,0,.1.23v0A8.27,8.27,0,0,0,13,49.23c-2.14-.1-4.41,1-4.39,3.51,0,1.18.67,1.12.95,2.15.41,1.49.61.41-.52,1.48-.8.74-2,.8-2.43,1.93a.78.78,0,0,0,.2.76C8.45,60.7,8.31,62.37,10.76,63a10.47,10.47,0,0,0,3.53.12,11.45,11.45,0,0,0,1.32-.28,5.2,5.2,0,0,0-1.33,2.42,1.13,1.13,0,0,0-.31,0c-6,1.42-3.41,11.35-1.79,15.06,3.77,8.64,16.18,7,24,7.32,2.42.09,4.8.52,7.2.8a51.57,51.57,0,0,0,8.61,0c5.58-.26,11,.43,16.61-.44,4.93-.77,9.71-2.27,14.59-3.3,3.58-.75,6.15-1.52,7.47-5.19,1.45-4,1.66-13.6-3.26-15.43a2.24,2.24,0,0,0,.75-1.53c.12-1-1-2.72-.74-3.4C87.39,59.14,88.75,59,89.48,58.85Zm-6.86,23.8c-4.37.93-8.67,2.24-13.07,3-5.51,1-10.83.46-16.37.57-2.68.06-5.33.45-8,.25-2.28-.16-4.54-.59-6.81-.83-5-.51-10-.33-15.07-.9-2.94-.34-6.23-.76-8.12-3.29a13.9,13.9,0,0,1-2-4.72,25.64,25.64,0,0,1-.57-2.59c1.52,1.39,4,1.88,6.9,2.21,10.71,1.23,21.07,3,31.91,2.84,10.12-.11,20.58-.61,30.48-2.82,2.18-.48,6-.89,7.49-2.79,0,.31,0,.6,0,.86a13.31,13.31,0,0,1-.72,4.43C87.6,81.72,85.21,82.11,82.62,82.65ZM9.12,59c-.11-.86-.51-.27.42-1.07.49-.43,1.58-.62,2-1.22a1.92,1.92,0,0,0,.38-.77c0-.34-.29-.64-.28-1l-.08-.18q-1.57-1.89,2.86-3.63l.14.06a3.47,3.47,0,0,0-.3,3.26c1.14,3,4.61,4,7.44,4.43,4.06.62,10,1.71,14-.15a.79.79,0,0,0,.27.34C41.38,63,49.2,62.69,55,59.62c3.55,1.09,7.08,2.25,10.54,3.63a.77.77,0,0,0,.76-.21c1.72-1.54,3.5-3,5.3-4.46,4,.53,9.83.35,13.28-1.94,2.53-1.68,1.73-4.23-.11-5.81,2.12-.84,4.48-2.55,5.81,1.42.11.35.85,3.39.83,3.57-.35,2.58-3.84.81-5.16,2S87.78,62,85.9,63c-.9.48-4-1.15-5.06-1.27a7.9,7.9,0,0,0-3,.29.8.8,0,0,0-.57.76c-.31,4.21-3.36.41-4.6,0a4,4,0,0,0-3.4.82c-1.53,1-3.06,3.72-5,3.88-2.68.21-2.89-3.47-4.91-4.18-2.6-.92-2.13,3.93-4.66,3.66-1.27-.13-1-.7-2.49,0-1.7.75-2.53,1.52-4.4.6a12.07,12.07,0,0,1-3.49-2.86c-2.38-2.6-3.6-1.11-6.56.07-2.33.94-3-.39-5.14-1.46-1.24-.64-1.93-.9-3.25-.17-1.08.6-2.14,3.32-3.2,3.25s-1.4-2-2.69-1.85c-.53.06-.64.4-1,.58-.14.06-.17.3-.3.36l-.3.53-2.59-.71c-.67-1.17.79-2.73-.47-3.81C16.2,59.23,9.87,64.53,9.12,59ZM13,45.67c-1.41-4.71.44-10.32,2.47-14.58a25.12,25.12,0,0,1,11.6-11.81C39.16,13,54.13,12.59,66.9,16.85c5.89,2,11.81,5,16,9.66,3.47,3.87,8.39,12.36,5.93,17.66-2.31,5-11.07,6.53-15.89,7.12-6.82.84-13.45,2-20.35,1.63-7.87-.37-15.71.73-23.54-.44C24.09,51.74,15.42,50.87,13,45.67ZM55.37,58.09A.68.68,0,0,0,55,58c-3.41-1-6.84-2-10.26-3l3.56,0c4.34,0,8.61.36,12.95,0s8.66-1.13,13-1.65c.58-.07,1.18-.16,1.79-.26-1.8,1.51-3.63,3-5.46,4.44-1.17,1-3,3.12-4.38,3.66-1.65.63-3.85-.72-5.39-1.25C59,59.21,57.18,58.64,55.37,58.09ZM16.56,51.52a37.66,37.66,0,0,0,8.1,2.31A70.46,70.46,0,0,0,37.54,55c-2,3.85-7.4,3-11.14,2.76a40.24,40.24,0,0,1-5.49-.59,11.59,11.59,0,0,1-2.82-.9C16.05,55.46,15.55,53.87,16.56,51.52ZM39.25,55h.23c4.41,1.39,8.86,2.62,13.29,3.93-5,2.1-11.2,2.06-15.75-1A6.92,6.92,0,0,0,39.25,55Zm39.9-2.7a30.41,30.41,0,0,0,3.45-1c1.94.77,3,2.54,1.17,4.19-1,1-3.53,1.13-4.89,1.37a24.19,24.19,0,0,1-5.58.36C75.28,55.6,77.25,54,79.15,52.32ZM17.62,63.24a2,2,0,0,1,.17.42c.52,2-.58,3.87,2.11,4.49a3.69,3.69,0,0,0,2.22-.24,7.38,7.38,0,0,0,.77-.6c1.35-.89.9-.84,2.21.2s1.88.95,2.95-.22c1.37-1.51,1.53-3.15,4.16-2.41,1.41.4,2.14,2.09,3.6,2.27,2.06.26,3.82-2.32,5.82-2.37,1.2,0,1.69,1.29,2.59,2.12A12.36,12.36,0,0,0,48,69.38a4.36,4.36,0,0,0,2.85.1A6,6,0,0,0,51.94,69l.73-.43c.59-.73,1.13-.69,1.64.13,1.76.59,2.12.71,3.32-1.29.26-.43,1-2.36,1.3-2.37.65,0,2.42,3.07,3.13,3.54,1.65,1.09,3.33.48,4.82-.64,1.18-.88,2.16-2.51,3.51-3.12,2.4-1.07,2.54.53,4.26,1.25s2.73-.58,4-1.82c.78-.77,0-1,2-.9a15.22,15.22,0,0,1,3.14.85h0a6.79,6.79,0,0,1,.83,3.46c0,1.8-.24,2.43-1.89,3.17a31,31,0,0,1-8.72,2c-6.53.76-13.26,1-19.83,1.12-7.13.13-14-.25-21.13-.79-3.73-.29-7.44-.8-11.14-1.3-2.35-.31-5.16-.62-6-3.24C15.26,66.89,15.89,64.11,17.62,63.24Zm-3.49,4.15A6.12,6.12,0,0,0,18,72.78c2.16.73,4.7.73,7,1,2.89.38,5.77.71,8.68.94,5.52.46,10.84.76,16.38.77,9.21,0,19.07.07,28.12-1.82,2.14-.45,6.4-1,7.65-3.17A7.19,7.19,0,0,0,86,65.86a3.48,3.48,0,0,1,2.61,2.56,7.61,7.61,0,0,1-.16,3.17c-.61,1.81-2.58,2.2-4.29,2.66A73.8,73.8,0,0,1,76,76a180.07,180.07,0,0,1-25.73,1.72,159.15,159.15,0,0,1-25.24-2c-2.48-.39-4.91-.75-7.4-1-3.39-.35-5.25-1.81-5.08-5.18A2.9,2.9,0,0,1,14.13,67.39Z" transform="translate(-6.6 -11.97)"/><path class="cls-7" d="M29,39a.64.64,0,0,0-.17-1,.91.91,0,0,0-.3-.19c-1.71-.65-3.54-1.12-5.24-.15A2.56,2.56,0,0,0,22,41.17c.66,1.18,2.3,2.14,3.61,1.44a11.43,11.43,0,0,0,3.19-3.44l.06-.08ZM25,38.72A4.32,4.32,0,0,1,27,39c-.27.35-.55.69-.84,1-.66.76-1.32,1.72-2.32.9C22.59,39.88,23.88,38.89,25,38.72Z" transform="translate(-6.6 -11.97)"/><path class="cls-7" d="M30.81,27.55c1.59.55,3.6-.43,5.15-.77a.65.65,0,0,0,.54-.5.71.71,0,0,0-.08-.65c-.88-1.4-1.88-2.77-3.56-3.22-1.41-.39-3.13,0-3.58,1.56C28.93,25.21,29.5,27.09,30.81,27.55Zm-.06-2.75c0-1.34,1.62-1.05,2.4-.59a4.31,4.31,0,0,1,1.36,1.36C33,26.05,30.77,26.68,30.75,24.8Z" transform="translate(-6.6 -11.97)"/><path class="cls-7" d="M70.31,37.28a.66.66,0,0,0-.17.47c0,1.76.18,3.58,1.55,4.85,1.12,1,2.79,1.32,3.87.07.84-1,1.18-2.79.19-3.77a8.06,8.06,0,0,0-2.41-1.31A5.86,5.86,0,0,0,70.92,37,.68.68,0,0,0,70.31,37.28Zm1.41,1.37a10.94,10.94,0,0,1,2,.84c.36.17.82.32,1,.69a1.6,1.6,0,0,1-.24,1.32c-.69,1-1.83,0-2.26-.72A4.34,4.34,0,0,1,71.72,38.65Z" transform="translate(-6.6 -11.97)"/><path class="cls-7" d="M66.7,26.7c1.27.9,3.07,1,3.93-.5.64-1.1.7-2.85-.38-3.68-1.23-.95-3.15-.91-4.64-1.21a.44.44,0,0,0-.2,0,.82.82,0,0,0-.85,1C64.81,24,65.23,25.66,66.7,26.7ZM66.25,23l1.33.24c1,.18,2.15.28,1.9,1.57-.28,1.48-1.76.92-2.46,0A4.4,4.4,0,0,1,66.25,23Z" transform="translate(-6.6 -11.97)"/><path class="cls-7" d="M46.38,44.09A3,3,0,0,0,50,43.17a6.84,6.84,0,0,0,.49-2.58,6.5,6.5,0,0,0-.17-2.67.86.86,0,0,0-.16-.3.65.65,0,0,0-.8-.24c-1.62.57-3.24,1.25-4,2.87C44.64,41.65,44.8,43.43,46.38,44.09ZM48.89,41c-.11,1.06-.32,2.09-1.65,1.77s-.59-1.93.07-2.58a4.94,4.94,0,0,1,1.66-1A9,9,0,0,1,48.89,41Z" transform="translate(-6.6 -11.97)"/><path class="cls-7" d="M47.85,27.27A3,3,0,0,0,51.57,27c1.06-1.27.93-3.28,1.19-4.81a.65.65,0,0,0,0-.31.72.72,0,0,0-.25-.45.76.76,0,0,0-.41-.23.92.92,0,0,0-.33,0c-1.66.29-3.27.73-4.31,2.15C46.54,24.57,46.41,26.36,47.85,27.27Zm3.24-4.38c-.06.51-.12,1-.23,1.55a4.39,4.39,0,0,1-.39,1.37c-.28.44-.77.43-1.25.33-1.53-.31-.73-1.93.16-2.57A4.49,4.49,0,0,1,51.09,22.89Z" transform="translate(-6.6 -11.97)"/></svg>