<svg xmlns="http://www.w3.org/2000/svg" viewBox="0 0 89.99 71.07"><defs><style>.cls-1{isolation:isolate;}.cls-2{fill:#f75f3c;}.cls-3{fill:#c93218;}.cls-4{fill:#ffdfdc;mix-blend-mode:soft-light;}.cls-5{fill:#e2ccbc;mix-blend-mode:multiply;}.cls-6{fill:#ffd8b8;}</style></defs><title>2</title><g class="cls-1"><g id="Layer_3" data-name="Layer 3"><path class="cls-2" d="M69.89,18.37c-11,0-19.83,7.83-19.83,15.32,0-7.38-8.88-15.32-19.83-15.32a19.89,19.89,0,0,0-19.84,20c0,29.53,39.67,51.13,39.67,51.13s39.67-21.6,39.67-51.13A19.89,19.89,0,0,0,69.89,18.37Z" transform="translate(-5.06 -18.37)"/><path class="cls-3" d="M69.89,18.37c-11,0-19.83,7.83-19.83,15.32H59.9L50.06,41.2V89.45s39.67-21.6,39.67-51.13A19.89,19.89,0,0,0,69.89,18.37Z" transform="translate(-5.06 -18.37)"/><path class="cls-4" d="M30.23,18.37A19.86,19.86,0,0,0,11,33.69H50.06C50.06,26.31,41.18,18.37,30.23,18.37Z" transform="translate(-5.06 -18.37)"/><path class="cls-2" d="M50.06,83.74c-8.16-5-34.75-23.1-34.75-45.42a15,15,0,0,1,14.92-15c8.65,0,14.91,6.21,14.91,10.4H55c0-4.71,6.65-10.4,14.91-10.4a15,15,0,0,1,14.92,15C84.81,60.7,58.23,78.73,50.06,83.74Z" transform="translate(-5.06 -18.37)"/><path class="cls-5" d="M89.73,38.32A19.89,19.89,0,0,0,69.89,18.37c-11,0-19.83,7.83-19.83,15.32V89.45S89.73,67.85,89.73,38.32Z" transform="translate(-5.06 -18.37)"/><polygon class="cls-6" points="48.93 54.91 41.7 41.78 35.31 54.56 28.08 37.69 22.12 51.6 0 51.6 0 47.29 19.28 47.29 28.08 26.76 35.61 44.33 41.52 32.51 47.83 43.98 57.86 11.88 66.47 47.29 89.99 47.29 89.99 51.6 63.09 51.6 57.34 27.97 48.93 54.91"/><polygon class="cls-5" points="22.12 51.6 28.08 37.69 35.31 54.56 41.7 41.78 48.93 54.91 57.34 27.97 63.09 51.6 89.99 51.6 89.99 49.44 64.78 49.44 57.6 19.92 48.38 49.44 41.61 37.14 35.46 49.44 28.08 32.22 20.7 49.44 0 49.44 0 51.6 22.12 51.6"/></g></g></svg>