<svg xmlns="http://www.w3.org/2000/svg" viewBox="0 0 71.96 91.18"><defs><style>.cls-1{isolation:isolate;}.cls-2{fill:#d1c5bd;}.cls-3{fill:#f75f3c;}.cls-4{fill:#e0dddc;}.cls-10,.cls-4,.cls-9{mix-blend-mode:multiply;}.cls-5{fill:#f7f4f2;}.cls-6{fill:#635952;}.cls-7{fill:#a3978e;}.cls-8{fill:#c93218;}.cls-9{fill:#e2ccbc;}.cls-10{fill:#dbdbdb;}</style></defs><title>3</title><g class="cls-1"><g id="Layer_4" data-name="Layer 4"><path class="cls-2" d="M17.91,91.07C12.12,85.28,12.6,75.38,19,69l22.6-22.6,1.73,1.73L20.71,70.74c-5.42,5.42-5.9,13.76-1.07,18.59s13.18,4.36,18.6-1.07L68.12,58.38l1.73,1.73L40,90C33.59,96.38,23.7,96.86,17.91,91.07Z" transform="translate(-13.86 -3.93)"/><path class="cls-3" d="M20.71,70.74l22.6-22.61L41.58,46.4,19,69l-.36.38,1.73,1.74Z" transform="translate(-13.86 -3.93)"/><path class="cls-4" d="M18.78,90.2C24.07,95.5,33.22,95,39.1,89.13L69,59.25l-.87-.87L38.24,88.26c-5.42,5.43-13.77,5.9-18.6,1.07s-4.35-13.17,1.07-18.59l22.6-22.61-.86-.86-22.6,22.6C14,75.76,13.48,84.9,18.78,90.2Z" transform="translate(-13.86 -3.93)"/><path class="cls-2" d="M75.4,14.35A52.24,52.24,0,0,0,60.63,3.93L32.46,32.09a5.88,5.88,0,0,0-1.61,5.24c.2,1.13,1.34,16.14,1.34,16.14l-4.11,4.11,4.09,4.09,4.11-4.11S51.4,58.75,52.6,58.93a5.88,5.88,0,0,0,5.06-1.64L85.82,29.12A52.1,52.1,0,0,0,75.4,14.35Z" transform="translate(-13.86 -3.93)"/><path class="cls-5" d="M60.93,5.7,33.5,33.13a4.45,4.45,0,0,0-1.21,3.93c.21,1.15,1.18,13.78,1.37,16.3l.05.68-4.59,4.58,2,2L35.71,56l.68.05c1.56.13,15.22,1.2,16.43,1.39a4.47,4.47,0,0,0,3.8-1.23L84,28.82a50.26,50.26,0,0,0-9.68-13.43A50.68,50.68,0,0,0,60.93,5.7Z" transform="translate(-13.86 -3.93)"/><path class="cls-3" d="M46.79,19.84,33.5,33.13a4.45,4.45,0,0,0-1.21,3.93c.21,1.15,1.18,13.78,1.37,16.3l.05.68-4.59,4.58,2,2L35.71,56l.68.05c1.56.13,15.22,1.2,16.43,1.39a4.47,4.47,0,0,0,3.8-1.23L69.91,43Z" transform="translate(-13.86 -3.93)"/><rect class="cls-6" x="29.16" y="55.74" width="2.21" height="7.48" transform="translate(-47.06 34.9) rotate(-45.01)"/><path class="cls-7" d="M26.51,56.82l-2.05,2.06a1.47,1.47,0,0,0,0,2.07l4.33,4.34a1.48,1.48,0,0,0,2.08,0l2.05-2.05Z" transform="translate(-13.86 -3.93)"/><path class="cls-6" d="M24.6,58.73l-.14.15a1.47,1.47,0,0,0,0,2.07l4.33,4.34a1.48,1.48,0,0,0,2.08,0l.15-.15Z" transform="translate(-13.86 -3.93)"/><rect class="cls-6" x="71.05" y="14.07" width="0.69" height="8.56" transform="translate(-5.93 51.93) rotate(-45)"/><rect class="cls-6" x="69.84" y="16.48" width="0.69" height="6.16" transform="translate(-7.13 51.44) rotate(-45.01)"/><rect class="cls-6" x="68.63" y="17.69" width="0.69" height="6.16" transform="translate(-8.34 50.94) rotate(-45.01)"/><rect class="cls-6" x="67.42" y="18.9" width="0.69" height="6.16" transform="translate(-9.55 50.43) rotate(-45)"/><rect class="cls-6" x="66.21" y="20.11" width="0.7" height="6.16" transform="translate(-10.76 49.93) rotate(-45)"/><rect class="cls-6" x="65" y="20.11" width="0.69" height="8.57" transform="translate(-11.97 49.43) rotate(-45)"/><rect class="cls-6" x="63.79" y="22.53" width="0.69" height="6.16" transform="translate(-13.18 48.92) rotate(-44.99)"/><polygon class="cls-6" points="51 25.31 46.65 20.95 47.14 20.46 51.49 24.82 51 25.31"/><rect class="cls-6" x="61.38" y="24.94" width="0.69" height="6.16" transform="translate(-15.6 47.92) rotate(-44.99)"/><rect class="cls-6" x="60.17" y="26.15" width="0.69" height="6.16" transform="translate(-16.81 47.43) rotate(-45)"/><rect class="cls-6" x="58.96" y="26.16" width="0.69" height="8.56" transform="translate(-18.02 46.92) rotate(-45)"/><rect class="cls-6" x="57.75" y="28.57" width="0.69" height="6.16" transform="translate(-19.22 46.43) rotate(-45.01)"/><rect class="cls-6" x="56.54" y="29.78" width="0.69" height="6.16" transform="translate(-20.44 45.92) rotate(-45)"/><polygon class="cls-6" points="43.75 32.56 39.39 28.21 39.88 27.71 44.24 32.07 43.75 32.56"/><rect class="cls-6" x="54.12" y="32.2" width="0.69" height="6.16" transform="translate(-22.85 44.92) rotate(-45)"/><rect class="cls-6" x="52.92" y="32.2" width="0.69" height="8.56" transform="translate(-24.06 44.42) rotate(-45)"/><rect class="cls-6" x="51.71" y="34.62" width="0.69" height="6.16" transform="translate(-25.27 43.93) rotate(-45.01)"/><rect class="cls-6" x="50.5" y="35.82" width="0.69" height="6.16" transform="translate(-26.48 43.43) rotate(-45.01)"/><rect class="cls-6" x="49.29" y="37.03" width="0.7" height="6.16" transform="translate(-27.69 42.92) rotate(-45.01)"/><rect class="cls-6" x="48.08" y="38.24" width="0.69" height="6.16" transform="translate(-28.9 42.41) rotate(-44.99)"/><rect class="cls-6" x="46.87" y="38.25" width="0.69" height="8.56" transform="translate(-30.11 41.92) rotate(-45)"/><rect class="cls-6" x="45.66" y="40.66" width="0.69" height="6.16" transform="translate(-31.32 41.41) rotate(-44.99)"/><rect class="cls-6" x="44.45" y="41.87" width="0.69" height="6.16" transform="translate(-32.52 40.91) rotate(-44.99)"/><polygon class="cls-6" points="31.66 44.65 27.3 40.3 27.8 39.8 32.15 44.16 31.66 44.65"/><rect class="cls-6" x="42.03" y="44.29" width="0.69" height="6.16" transform="translate(-34.94 39.9) rotate(-44.99)"/><rect class="cls-6" x="40.83" y="44.29" width="0.69" height="8.56" transform="translate(-36.15 39.41) rotate(-44.99)"/><path class="cls-8" d="M47.63,29.09a.86.86,0,0,1-1.22,0,.87.87,0,1,1,1.22,0Z" transform="translate(-13.86 -3.93)"/><path class="cls-8" d="M45.09,35.56a1.27,1.27,0,1,1,0-1.8A1.27,1.27,0,0,1,45.09,35.56Z" transform="translate(-13.86 -3.93)"/><path class="cls-8" d="M47.55,35.1a.62.62,0,1,1,0-.88A.63.63,0,0,1,47.55,35.1Z" transform="translate(-13.86 -3.93)"/><path class="cls-8" d="M60,41.75a.62.62,0,1,1-.88-.88.61.61,0,0,1,.88,0A.63.63,0,0,1,60,41.75Z" transform="translate(-13.86 -3.93)"/><path class="cls-8" d="M46.8,52.49a.62.62,0,0,1-.88-.88.62.62,0,1,1,.88.88Z" transform="translate(-13.86 -3.93)"/><path class="cls-8" d="M61.62,49.31a1.28,1.28,0,1,1,0-1.8A1.28,1.28,0,0,1,61.62,49.31Z" transform="translate(-13.86 -3.93)"/><path class="cls-8" d="M36,35.74a.89.89,0,0,1-1.23,0,.87.87,0,1,1,1.23,0Z" transform="translate(-13.86 -3.93)"/><path class="cls-8" d="M54.11,45.62a.88.88,0,0,1-1.23,0,.87.87,0,0,1,1.23-1.23A.89.89,0,0,1,54.11,45.62Z" transform="translate(-13.86 -3.93)"/><path class="cls-9" d="M28.79,65.29a1.48,1.48,0,0,0,2.08,0l.15-.15,1.9-1.9-.56-.57,1.33-1.33-.6-.59,3.19-3.19S51.4,58.75,52.6,58.93a5.88,5.88,0,0,0,5.06-1.64L85.82,29.12A52.1,52.1,0,0,0,75.4,14.35L26.63,63.12Z" transform="translate(-13.86 -3.93)"/><rect class="cls-2" x="67.67" y="55.65" width="4" height="5.8" transform="translate(-34.86 62.49) rotate(-45)"/><rect class="cls-4" x="68.02" y="56.5" width="1.6" height="5.8" transform="translate(-35.71 62.1) rotate(-44.98)"/><polygon class="cls-6" points="67.8 42.05 57.96 51.89 58.54 52.48 69.32 41.7 67.8 42.05"/><polygon class="cls-2" points="57.89 51.08 55.95 52.74 57.7 54.48 59.36 52.55 57.89 51.08"/><polygon class="cls-10" points="59.36 52.55 58.92 52.11 69.32 41.7 68.56 41.88 54.4 56.04 56.45 58.09 57.58 56.96 59.28 55.26 58.07 54.05 59.36 52.55"/></g></g></svg>