<svg id="Layer_5" data-name="Layer 5" xmlns="http://www.w3.org/2000/svg" viewBox="0 0 87.97 62.52"><defs><style>.cls-1{fill:#deab71;}.cls-2{fill:#ffdfb8;}.cls-3{fill:#534741;}</style></defs><title>4</title><path class="cls-1" d="M37.12,56.07C36.35,51,35.77,46,35.3,40.9c-.33-3.53-1.44-8.36-.38-12-4.46-1.46-11.13,1.72-14.54,4.19-2,1.43-4.54,3.47-4.54,6.11s1.87,5.81,3,8.17a101.46,101.46,0,0,0,7.46,13.26,61.05,61.05,0,0,1,11-3.57C37.22,56.75,37.17,56.4,37.12,56.07Z" transform="translate(-6.2 -20.24)"/><path class="cls-1" d="M76.38,61.75c2.28-3.19,4.49-6.41,6.48-9.78C84.29,49.53,86,46.78,86.73,44c.86-3.39-.2-6-2.65-8.32a25.65,25.65,0,0,0-6.43-4c-2-1-5.19-3.41-7.53-2.55,0,.45,0,.89,0,1.3.1,6.3-1.48,12.74-2.75,18.87-.56,2.68-1.19,5.35-2,8,1.25.32,2.52.67,3.87,1.06A23.83,23.83,0,0,1,76.38,61.75Z" transform="translate(-6.2 -20.24)"/><path class="cls-1" d="M87.2,48.13c-.49,1-1,1.92-1.51,2.82a110,110,0,0,1-6.91,10.81c-.27.38-.54.79-.81,1.21A18.23,18.23,0,0,1,81.8,67.4c2.53,4.19,1.67,8.62.53,12.94a3.5,3.5,0,0,0,2-.35c1-.42,2.07-2.16,2.68-3a25.84,25.84,0,0,0,5.15-14.73C92.34,57.86,90.94,51.09,87.2,48.13Z" transform="translate(-6.2 -20.24)"/><path class="cls-1" d="M24.31,61.58a102.07,102.07,0,0,1-8.63-16.4c-.18-.43-.38-.87-.56-1.31C12.43,46.63,10.82,50.42,9.5,54a21.76,21.76,0,0,0-.14,14.74c.69,2.21,1.56,6.12,3.51,7.63a3,3,0,0,0,1.75.7C16.38,71,18.67,64.48,24.31,61.58Z" transform="translate(-6.2 -20.24)"/><path class="cls-1" d="M55.1,55.76a48,48,0,0,1,8.44,1.13c.54-1.86,1-3.74,1.43-5.62,1.4-6.16,2.93-12.67,3.18-19,0-1,.12-2.12.06-3.24a1.11,1.11,0,0,1-.06-.74,6.27,6.27,0,0,0-.29-1.42c-.72-2.06-2.33-2.62-4.12-3.25a27.71,27.71,0,0,0-9.82-1.37c-5.14.11-14.08.93-16.77,6.29-1.14,2.26-.44,5.6-.25,8q.23,3.06.54,6.11c.45,4.56,1,9.11,1.7,13.63l.06.4.52-.1A70.55,70.55,0,0,1,55.1,55.76ZM47,33.94a1,1,0,0,1,0,1.39l-1.42,1.12a1,1,0,0,1-1.4,0,1,1,0,0,1,0-1.39l1.43-1.12A1,1,0,0,1,47,33.94Zm-5.74,0A26.46,26.46,0,0,1,44,30.08c.82-1,2.21.43,1.39,1.39A23.74,23.74,0,0,0,43,34.92,1,1,0,0,1,41.3,33.92Z" transform="translate(-6.2 -20.24)"/><path class="cls-2" d="M81.8,67.4A18.23,18.23,0,0,0,78,63c-.89,1.4-1.82,3-2.85,4.38,2.24,1.34,4.3,2.73,5.19,5.36A20.88,20.88,0,0,1,81,77.36c.12,1.16.12,2.71,1.35,3C83.47,76,84.33,71.59,81.8,67.4Z" transform="translate(-6.2 -20.24)"/><path class="cls-2" d="M33.22,67.43A10,10,0,0,0,39,64.85c-1.12-2.25-1.41-5.23-1.74-7.75a61.05,61.05,0,0,0-11,3.57c.24.36.47.71.72,1.06C28.49,63.92,30.21,67.58,33.22,67.43Z" transform="translate(-6.2 -20.24)"/><path class="cls-2" d="M62.25,60.86c.49-1.3.91-2.63,1.29-4a48,48,0,0,0-8.44-1.13,70.55,70.55,0,0,0-15.38.86l-.52.1c.35,2.43.55,5.62,1.83,7.73,2.7,2.8,9.78,2.1,13.24,1.75C58,65.82,60.82,64.64,62.25,60.86Z" transform="translate(-6.2 -20.24)"/><path class="cls-2" d="M24.31,61.58c-5.64,2.9-7.93,9.46-9.69,15.49,2.47.06,4.19-3.93,5.25-5.44a19.79,19.79,0,0,1,7.2-6.22Q25.63,63.57,24.31,61.58Z" transform="translate(-6.2 -20.24)"/><path class="cls-2" d="M74.36,64.54l2-2.79a23.83,23.83,0,0,0-7.07-3.35c-1.35-.39-2.62-.74-3.87-1.06-.16.56-.32,1.12-.5,1.68-.67,2.13-1.36,4.64-2.9,6.35,1.16,1.2,3,1.74,4.54,2.43,1.86.85,3.82,1.58,5.59-.19A25.05,25.05,0,0,0,74.36,64.54Z" transform="translate(-6.2 -20.24)"/><path class="cls-3" d="M94.15,60.44C94,55.74,92.06,49.23,88,46.31a12.2,12.2,0,0,0,1.08-5.26c-.16-2.91-2.22-5.55-4.36-7.37-2.53-2.14-5.78-3.52-8.72-5-1.91-.94-4.05-2-6.1-1.55a5.92,5.92,0,0,0-1.09-2.83c-1.29-1.65-3.74-2.38-5.67-2.95A35,35,0,0,0,47,21c-4,.74-9.11,2.4-11.33,6.17-5.21-1.7-12.21,1.33-16.3,4.27-2,1.44-4.31,3.28-5.18,5.67a7.17,7.17,0,0,0,.14,4.75h0c-3.5,3.19-5.63,8.09-7,12.55-2,6.39-1,12.17,1.39,18.32,1.37,3.49,3.86,8.08,8.27,5.66C19.08,77.2,20,74.9,21.32,73a18.21,18.21,0,0,1,7-6c.05.06.1.13.16.19,3.18,3.75,8.45,2.16,11.77-.77,2.36,1.79,6.32,1.86,9,1.94,3.31.1,8.09.18,11.22-1.7C61.91,68.2,64,68.81,66,69.7s4.7,1.69,6.71.18a8.41,8.41,0,0,0,1.1-1c2.56,1.54,4.52,3,5,6.24.27,1.89,0,4.08,1,5.77,2.84,4.71,7.25-.69,9.14-3.28A27.7,27.7,0,0,0,94.15,60.44Zm-2,1.84A25.84,25.84,0,0,1,87,77c-.61.82-1.65,2.56-2.68,3a3.5,3.5,0,0,1-2,.35c-1.23-.27-1.23-1.82-1.35-3a20.88,20.88,0,0,0-.67-4.65c-.89-2.63-3-4-5.19-5.36,1-1.39,2-3,2.85-4.38.27-.42.54-.83.81-1.21A110,110,0,0,0,85.69,51c.5-.9,1-1.84,1.51-2.82C90.94,51.09,92.34,57.86,92.16,62.28ZM66.58,67.8c-1.5-.69-3.38-1.23-4.54-2.43,1.54-1.71,2.23-4.22,2.9-6.35.18-.56.34-1.12.5-1.68.76-2.63,1.39-5.3,2-8,1.27-6.13,2.85-12.57,2.75-18.87,0-.41,0-.85,0-1.3,2.34-.86,5.57,1.56,7.53,2.55a25.65,25.65,0,0,1,6.43,4c2.45,2.34,3.51,4.93,2.65,8.32-.7,2.75-2.44,5.5-3.87,7.94-2,3.37-4.2,6.59-6.48,9.78l-2,2.79a25.05,25.05,0,0,1-2.19,3.07C70.4,69.38,68.44,68.65,66.58,67.8ZM19.87,71.63c-1.06,1.51-2.78,5.5-5.25,5.44a3,3,0,0,1-1.75-.7c-1.95-1.51-2.82-5.42-3.51-7.63A21.76,21.76,0,0,1,9.5,54c1.32-3.58,2.93-7.37,5.62-10.13.18.44.38.88.56,1.31a102.07,102.07,0,0,0,8.63,16.4q1.32,2,2.76,3.83A19.79,19.79,0,0,0,19.87,71.63ZM27,61.73c-.25-.35-.48-.7-.72-1.06a101.46,101.46,0,0,1-7.46-13.26c-1.11-2.36-3-5.45-3-8.17s2.57-4.68,4.54-6.11c3.41-2.47,10.08-5.65,14.54-4.19-1.06,3.6,0,8.43.38,12C35.77,46,36.35,51,37.12,56.07c.05.33.1.68.15,1,.33,2.52.62,5.5,1.74,7.75a10,10,0,0,1-5.79,2.58C30.21,67.58,28.49,63.92,27,61.73Zm14,2.72c-1.28-2.11-1.48-5.3-1.83-7.73l-.06-.4c-.72-4.52-1.25-9.07-1.7-13.63q-.31-3-.54-6.11c-.19-2.44-.89-5.78.25-8,2.69-5.36,11.63-6.18,16.77-6.29a27.71,27.71,0,0,1,9.82,1.37c1.79.63,3.4,1.19,4.12,3.25a6.27,6.27,0,0,1,.29,1.42,1.11,1.11,0,0,0,.06.74c.06,1.12,0,2.28-.06,3.24-.25,6.33-1.78,12.84-3.18,19-.43,1.88-.89,3.76-1.43,5.62-.38,1.34-.8,2.67-1.29,4-1.43,3.78-4.26,5-8,5.34C50.81,66.55,43.73,67.25,41,64.45Z" transform="translate(-6.2 -20.24)"/><path class="cls-3" d="M43,34.92a23.74,23.74,0,0,1,2.42-3.45c.82-1-.57-2.36-1.39-1.39a26.46,26.46,0,0,0-2.73,3.84A1,1,0,0,0,43,34.92Z" transform="translate(-6.2 -20.24)"/><path class="cls-3" d="M44.22,35.06a1,1,0,0,0,0,1.39,1,1,0,0,0,1.4,0L47,35.33a1,1,0,0,0,0-1.39,1,1,0,0,0-1.39,0Z" transform="translate(-6.2 -20.24)"/></svg>