<svg id="Layer_6" data-name="Layer 6" xmlns="http://www.w3.org/2000/svg" viewBox="0 0 85.63 61.39"><defs><style>.cls-1{fill:none;}.cls-2{fill:#deab71;}.cls-3{fill:#ffb0e4;}.cls-4{fill:#ffdbf3;}.cls-5{fill:#534741;}</style></defs><title>5</title><path class="cls-1" d="M46.72,44.68c-2.41,1.07-5.19,2.3-6.21,4.85a27.33,27.33,0,0,0,7.85-2,32.25,32.25,0,0,0,7.58-4.27C53.93,41.29,48.82,43.73,46.72,44.68Z" transform="translate(-7.46 -20.88)"/><path class="cls-2" d="M88.83,44.5c-.79.07-1.61-.31-2.38-.22-2.58.31-2.42,1.47-3.09,3.21a4.41,4.41,0,0,1-1.21,2.14,5.09,5.09,0,0,1-2.37.54c-2.17.26-2.36,1.22-2,3.22s2.11,7.3-1.85,7.06c-1.46-.09-2.64-1.37-3.53-2.39-.59-.67-1.11-1.4-1.68-2.08-.18-.21-.47-.76-.72-.85-1.15-.42-1.13,1.35-1.27,2.18-.24,1.42-.13,2.6-1.68,3.11-1.83.6-2.88-.76-4.27,1.94-.52,1-.46,2.29-1,3.32-2.1,3.91-8.67,4.45-12.12,2.24-2.63-1.69-3.35-5.8-6.76-6.13-3-.3-4.18,1.68-5,4.15-.23.69-.19,1.28-.77,1.8a2.49,2.49,0,0,1-3.37-.08c-.3-.3-.42-.77-.71-1-1.2-1.17-1.87-.74-2.6.52-.83,1.44-.25,3.62-.48,5.2-.62,4.3-4.54,3-6,0-1.18-2.44-2.27-6.47-4.61-8-4.64-3.09-4.69,2.12-7,3.92a28.93,28.93,0,0,0,3.23,5c9.28,11.56,28.51,7.11,40.73,3.5,7.77-2.36,15.06-5.29,21.46-10.4,5.39-4.3,10.63-8.66,12.83-15.45a18.23,18.23,0,0,0,.51-8.51A2.63,2.63,0,0,1,88.83,44.5Z" transform="translate(-7.46 -20.88)"/><path class="cls-3" d="M16.56,62.07a5.74,5.74,0,0,1,5,2.54c1.75,2.24,2.09,5.67,3.92,7.73q.78,2.2,3.24-1.08c0-.53,0-1.06,0-1.59A11.92,11.92,0,0,1,28.88,68a6.29,6.29,0,0,1,1.19-3A2.28,2.28,0,0,1,33,64.32c.65.37.75,1.16,1.27,1.61.23.75.68.78,1.36.09l1-.43a17.7,17.7,0,0,0,.52-2,6,6,0,0,1,9-2c1.15,1,1.76,2.39,2.69,3.53a6.83,6.83,0,0,0,5.09,2.65,9,9,0,0,0,5.32-1.3c2-1.37,1.73-3,2.42-4.88a3.49,3.49,0,0,1,3.15-2.61c1.17-.21,1.72.84,2.6-1.1a5.53,5.53,0,0,0,.1-1.31,5.56,5.56,0,0,1,.68-2.32c1.69-2.56,3.59.79,4.71,2.15.59.72,1.53,2.09,2.47,2.4,2.22.72,1.85-2.11,1.57-3.45s-1.09-3.31-.65-4.74,1.63-1.55,2.92-1.82c1.94-.4,2.62-1.38,3.38-3.22a5.07,5.07,0,0,1,1.14-1.89c1.71-1.62,4.72.46,5.94-1.28.65-.93.55-3.19.24-4.77a28.13,28.13,0,0,0-3.47-6.62C81.88,24.76,73,22.82,65.68,22.7a67.6,67.6,0,0,0-23.37,3.37c-7.22,2.43-14.74,5.06-21.1,9.32S10.05,45.8,9.35,53.52A27.09,27.09,0,0,0,11.76,67C13.74,65.49,13.32,62.4,16.56,62.07Zm60-21.33c-1.79,0-1.79-2,0-2A1,1,0,0,1,76.52,40.74ZM63.06,25.32c4.5-.24,10.5-.47,14.42,2.22a6.61,6.61,0,0,1,2,8.87c-.6,1.14-2.32.13-1.72-1,4.46-8.42-10.34-8.33-14.67-8.1C61.78,27.38,61.79,25.39,63.06,25.32ZM44.12,36.71l.08,0,.08,0c4-1.66,14-5.67,16.1.6C62.17,42.5,53.25,47,49.61,48.5c-3.81,1.6-14.18,5-16.19-.93S40.15,38.43,44.12,36.71Z" transform="translate(-7.46 -20.88)"/><path class="cls-4" d="M63.06,27.31c4.33-.23,19.13-.32,14.67,8.1-.6,1.13,1.12,2.14,1.72,1a6.61,6.61,0,0,0-2-8.87c-3.92-2.69-9.92-2.46-14.42-2.22C61.79,25.39,61.78,27.38,63.06,27.31Z" transform="translate(-7.46 -20.88)"/><path class="cls-4" d="M76.52,38.74c-1.79,0-1.79,2,0,2A1,1,0,0,0,76.52,38.74Z" transform="translate(-7.46 -20.88)"/><path class="cls-2" d="M38.63,49.48c1.15-3.9,5.25-5.63,8.77-7,3-1.19,7.29-2.93,9.87-.34,1.76-1.78,2.58-3.75.95-5.56-2.75-3-10.27,0-13.58,1.4h0c-1.61.68-3.26,1.27-4.8,2.1-1.85,1-7.5,4.73-4.89,7.67A5.68,5.68,0,0,0,38.63,49.48Z" transform="translate(-7.46 -20.88)"/><path class="cls-5" d="M90.33,34.31c-3.15-6.66-8.79-10.63-15.88-12.48-4.26-1.1-8.82-1-13.19-.91a56,56,0,0,0-13,1.49A102.49,102.49,0,0,0,23,32.2c-6.53,3.72-12.4,9.26-14.54,16.67-2,6.82-.73,14.3,2.51,20.53,4.12,7.93,10.6,12.18,19.5,12.75S48.29,81,56.79,78.53c7.46-2.27,14.65-5,20.9-9.8,5.28-4,10.82-8.38,13.6-14.6C94.21,47.61,93.33,40.66,90.33,34.31Zm.27,16.63c-2.2,6.79-7.44,11.15-12.83,15.45-6.4,5.11-13.69,8-21.46,10.4-12.22,3.61-31.45,8.06-40.73-3.5a28.93,28.93,0,0,1-3.23-5c2.35-1.8,2.4-7,7-3.92,2.34,1.57,3.43,5.6,4.61,8,1.45,3,5.37,4.25,6,0,.23-1.58-.35-3.76.48-5.2.73-1.26,1.4-1.69,2.6-.52.29.28.41.75.71,1a2.49,2.49,0,0,0,3.37.08c.58-.52.54-1.11.77-1.8.83-2.47,2-4.45,5-4.15,3.41.33,4.13,4.44,6.76,6.13,3.45,2.21,10,1.67,12.12-2.24.55-1,.49-2.31,1-3.32,1.39-2.7,2.44-1.34,4.27-1.94,1.55-.51,1.44-1.69,1.68-3.11.14-.83.12-2.6,1.27-2.18.25.09.54.64.72.85.57.68,1.09,1.41,1.68,2.08.89,1,2.07,2.3,3.53,2.39,4,.24,2.26-5,1.85-7.06s-.21-3,2-3.22a5.09,5.09,0,0,0,2.37-.54,4.41,4.41,0,0,0,1.21-2.14c.67-1.74.51-2.9,3.09-3.21.77-.09,1.59.29,2.38.22a2.63,2.63,0,0,0,2.28-2.07A18.23,18.23,0,0,1,90.6,50.94ZM9.35,53.52c.7-7.72,5.58-13.92,11.86-18.13s13.88-6.89,21.1-9.32A67.6,67.6,0,0,1,65.68,22.7c7.29.12,16.2,2.06,20.72,8.38a28.13,28.13,0,0,1,3.47,6.62c.31,1.58.41,3.84-.24,4.77-1.22,1.74-4.23-.34-5.94,1.28a5.07,5.07,0,0,0-1.14,1.89c-.76,1.84-1.44,2.82-3.38,3.22-1.29.27-2.47.36-2.92,1.82s.36,3.36.65,4.74.65,4.17-1.57,3.45c-.94-.31-1.88-1.68-2.47-2.4-1.12-1.36-3-4.71-4.71-2.15a5.56,5.56,0,0,0-.68,2.32,5.53,5.53,0,0,1-.1,1.31c-.88,1.94-1.43.89-2.6,1.1a3.49,3.49,0,0,0-3.15,2.61c-.69,1.87-.46,3.51-2.42,4.88a9,9,0,0,1-5.32,1.3,6.83,6.83,0,0,1-5.09-2.65c-.93-1.14-1.54-2.56-2.69-3.53a6,6,0,0,0-9,2,17.7,17.7,0,0,1-.52,2l-1,.43c-.68.69-1.13.66-1.36-.09-.52-.45-.62-1.24-1.27-1.61a2.28,2.28,0,0,0-2.89.64,6.29,6.29,0,0,0-1.19,3,11.92,11.92,0,0,0-.15,1.69c0,.53,0,1.06,0,1.59q-2.46,3.28-3.24,1.08c-1.83-2.06-2.17-5.49-3.92-7.73a5.74,5.74,0,0,0-5-2.54c-3.24.33-2.82,3.42-4.8,5A27.09,27.09,0,0,1,9.35,53.52Z" transform="translate(-7.46 -20.88)"/><path class="cls-5" d="M49.61,48.5c3.64-1.52,12.56-6,10.77-11.25C58.25,31,48.25,35,44.28,36.65l-.08,0-.08,0c-4,1.72-12.73,4.89-10.7,10.86S45.8,50.1,49.61,48.5Zm-9.78-8.45c1.54-.83,3.19-1.42,4.8-2.1h0c3.31-1.39,10.83-4.45,13.58-1.4,1.63,1.81.81,3.78-.95,5.56-2.58-2.59-6.86-.85-9.87.34-3.52,1.4-7.62,3.13-8.77,7a5.68,5.68,0,0,1-3.69-1.76C32.33,44.78,38,41,39.83,40.05Zm16.11,3.24a32.25,32.25,0,0,1-7.58,4.27,27.33,27.33,0,0,1-7.85,2c1-2.55,3.8-3.78,6.21-4.85C48.82,43.73,53.93,41.29,55.94,43.29Z" transform="translate(-7.46 -20.88)"/></svg>