<svg id="Layer_7" data-name="Layer 7" xmlns="http://www.w3.org/2000/svg" viewBox="0 0 85.18 81.59"><defs><style>.cls-1{fill:#efefef;}.cls-2{fill:none;}.cls-3{fill:#534741;}.cls-4{fill:#fbbe3b;}.cls-5{fill:#d6d4d4;}.cls-6{fill:#fff;}</style></defs><title>6</title><path class="cls-1" d="M40.43,8.76s-19-1.58-26.64,14.44-3.1,27.36-3.1,27.36,2.65,11.92,1.92,16.19S11.28,81.62,23.06,86.33s24.29-2.21,24.29-2.21,8.48-6.18,14.72-7.21S82.6,71.16,87.53,61,93.31,44.38,91,35.11,80.09,20.49,70.31,16.26,40.43,8.76,40.43,8.76Z" transform="translate(-7.9 -7.62)"/><path class="cls-2" d="M83.66,24.64c-6.12-6.33-15-7.69-23-10.41-8.17-2.79-16.25-5.06-25-4.45C18.34,11,6.71,30.1,10.84,46.26A84.73,84.73,0,0,1,13.4,59.55c.46,4.51-.5,9,0,13.45,1,10,11.83,14.67,20.78,14.06a35,35,0,0,0,14.61-4.6c3.22-1.8,6.21-3.89,9.62-5.34,7.39-3.14,15.89-4.44,22.3-9.57C93,57.71,94.68,36,83.66,24.64ZM61.2,42.86a20.49,20.49,0,0,1-8.84,15C47.26,61.09,40.17,60.8,34.53,59c-5-1.57-9.17-8.06-10-13.44a2,2,0,0,1,0-.54A12.5,12.5,0,0,1,24.36,43a21,21,0,0,1,4.17-13,17.33,17.33,0,0,1,24-3.41s0,0,.06.05l.1.07A22.65,22.65,0,0,1,57,31.17,15.48,15.48,0,0,1,61.2,42.86Z" transform="translate(-7.9 -7.62)"/><path class="cls-3" d="M87.88,26.53C82.74,19,74.78,16.37,66.48,13.89,56.83,11,48.12,7.55,37.87,7.62c-19.65.13-33.79,20.64-29,39.2a73.78,73.78,0,0,1,2.71,15.67c.21,4.24-.9,8.56.08,12.74,1.74,7.45,8.88,12.3,16.09,13.57,9.66,1.71,18.33-2.26,26.39-7.11,8.36-5,18.68-5.93,26.68-11.61C94,60.72,96.91,39.69,87.88,26.53Zm-7.2,41c-6.41,5.13-14.91,6.43-22.3,9.57C55,78.57,52,80.66,48.76,82.46a35,35,0,0,1-14.61,4.6C25.2,87.67,14.41,83,13.37,73c-.47-4.44.49-8.94,0-13.45a84.73,84.73,0,0,0-2.56-13.29C6.71,30.1,18.34,11,35.69,9.78c8.75-.61,16.83,1.66,25,4.45,8,2.72,16.85,4.08,23,10.41C94.68,36,93,57.71,80.68,67.55Z" transform="translate(-7.9 -7.62)"/><path class="cls-4" d="M30.28,30.31a19.16,19.16,0,0,0-4.34,12.11c-.09,5,2.94,8.6,7.17,10.92a21.87,21.87,0,0,0,11.74,2.48c4.83-.48,8.12-5.15,10.22-9.12,1.6-3,2.82-6.84,2.36-10.28-.5-3.69-3-6.26-5.76-8.54A15.76,15.76,0,0,0,30.28,30.31Zm.84,16.9c-1.39,0-1.39-3.1,0-3.1C34.61,44.11,34.61,47.21,31.12,47.21ZM41.44,30.33c-4.88.3-8.41,5.39-8.95,9.93-.24,2-3.33,1.77-3.09-.21.76-6.42,5.58-12.4,12.26-12.81C43.64,27.12,43.4,30.21,41.44,30.33Z" transform="translate(-7.9 -7.62)"/><path class="cls-5" d="M57,31.17a11.34,11.34,0,0,1,2.1,5.66c.34,4.36-1.46,8.89-3.75,12.52s-5.38,7.39-9.94,8a22.52,22.52,0,0,1-14-3.14C27.9,52,25.29,49,24.57,45a2,2,0,0,0,0,.54c.78,5.38,5,11.87,10,13.44,5.64,1.78,12.73,2.07,17.83-1.16a20.49,20.49,0,0,0,8.84-15A15.48,15.48,0,0,0,57,31.17Z" transform="translate(-7.9 -7.62)"/><path class="cls-3" d="M31.42,54.17a22.52,22.52,0,0,0,14,3.14c4.56-.57,7.63-4.29,9.94-8s4.09-8.16,3.75-12.52A11.34,11.34,0,0,0,57,31.17a22.65,22.65,0,0,0-4.29-4.47l-.1-.07s0,0-.06-.05a17.33,17.33,0,0,0-24,3.41,21,21,0,0,0-4.17,13A12.5,12.5,0,0,0,24.57,45C25.29,49,27.9,52,31.42,54.17ZM51.67,27.88c2.74,2.28,5.26,4.85,5.76,8.54.46,3.44-.76,7.26-2.36,10.28-2.1,4-5.39,8.64-10.22,9.12a21.87,21.87,0,0,1-11.74-2.48c-4.23-2.32-7.26-5.88-7.17-10.92a19.16,19.16,0,0,1,4.34-12.11A15.76,15.76,0,0,1,51.67,27.88Z" transform="translate(-7.9 -7.62)"/><path class="cls-6" d="M29.4,40.05c-.24,2,2.85,2.18,3.09.21.54-4.54,4.07-9.63,8.95-9.93,2-.12,2.2-3.21.22-3.09C35,27.65,30.16,33.63,29.4,40.05Z" transform="translate(-7.9 -7.62)"/><path class="cls-6" d="M31.12,44.11c-1.39,0-1.39,3.1,0,3.1C34.61,47.21,34.61,44.11,31.12,44.11Z" transform="translate(-7.9 -7.62)"/></svg>