<svg id="Layer_8" data-name="Layer 8" xmlns="http://www.w3.org/2000/svg" viewBox="0 0 90.15 64.25"><defs><style>.cls-1{fill:#ffdfb8;}.cls-2{fill:#deab71;}.cls-3{fill:#534741;}</style></defs><title>7</title><path class="cls-1" d="M19,51.32a28.31,28.31,0,0,0,2.76,6.39,6.46,6.46,0,0,0,2.3,2.46c2.27,1.27,4.22-.14,4.41-2.45.31-3.93-.75-7.84-1.94-11.58a7.27,7.27,0,0,1-1.07,2A9.28,9.28,0,0,1,22,50.76,12.81,12.81,0,0,1,19,51.32Z" transform="translate(-4.9 -17)"/><path class="cls-1" d="M42.44,37.28a10.73,10.73,0,0,1-4,.45,45,45,0,0,0,2.87,8.86c1.21,2.38,5.76,7.93,7.39,2.55.87-2.86.15-6.56-.46-9.39-.52-2.44-1-4.91-1.8-7.29-.51.83-.64,2-1.29,2.84A6.15,6.15,0,0,1,42.44,37.28Z" transform="translate(-4.9 -17)"/><path class="cls-1" d="M66.23,39.31c3.11-.52,2.69-6.22,2.47-8.51A35.15,35.15,0,0,0,66.34,22c-.37.5-.62,1.45-1,1.91a6.47,6.47,0,0,1-3,2.14,7.81,7.81,0,0,1-3.54-.09C59.64,29.83,61.31,40.14,66.23,39.31Z" transform="translate(-4.9 -17)"/><path class="cls-2" d="M93.16,27.85c-.57-2.94-1.61-5.47-4.31-7a15.56,15.56,0,0,0-6.7-1.88A31.65,31.65,0,0,0,69.37,20.8c-.33.11-.85.23-1.37.37,0,0,0,0,0,.06,1.67,4.46,3,9,2.49,13.84-.24,2.16-.85,5.42-3.34,6C59.86,42.83,58.05,30.76,57,26a16.7,16.7,0,0,0-3.12,1.74c-1.43.85-2.84,1.71-4.26,2.57-.44.27-1,.55-1.61.87a51.39,51.39,0,0,1,2.76,12.28c.25,3.15.47,7.29-2.46,9.31S42.76,52,41.1,49.73c-2.52-3.38-3.37-7.6-4.45-11.6-.33.18-.66.42-1.13.73l-4.6,3.06a24.7,24.7,0,0,0-3.16,2,45.36,45.36,0,0,1,2.56,11.18c.13,2.36.22,5.92-2,7.41s-5.51-.59-7-2.29c-1.94-2.18-3-5.32-3.94-8.14-.82.7-1.67,1.8-2.32,2.47C11.71,58,8.44,61.69,7.21,66.38,5.94,71.23,7.37,77,12.58,78.76c3.61,1.19,7.8.31,11.38-.51a65.09,65.09,0,0,0,11.95-3.94A225.28,225.28,0,0,0,56.59,63.4a202.93,202.93,0,0,0,24-16.22c3.65-2.89,7.5-5.7,9.79-9.85C91.91,34.65,93.47,31,93.16,27.85Z" transform="translate(-4.9 -17)"/><path class="cls-3" d="M95,27.71a.24.24,0,0,0,0-.08.86.86,0,0,0,0-.16c-.73-3.84-2.26-6.81-5.85-8.62a20.79,20.79,0,0,0-10.73-1.78,39.3,39.3,0,0,0-11.89,2.85c-1.74.69-1.32.88-2.26,2.37a4.49,4.49,0,0,1-3.81,2.08c-1,.05-2.11-.65-3.09-.57s-2.08,1-2.86,1.44c-1.64,1-3.25,1.93-4.87,2.91a27.17,27.17,0,0,0-3.92,2.36c-1,.92-1,2.23-1.79,3.4-1.54,2.16-3.8,2-6.13,1.94a3.9,3.9,0,0,0-2.6,1l-4.5,3c-1.41.95-3.35,1.85-4.53,3.07S25.05,45.76,24,47a7.1,7.1,0,0,1-3.38,2.3c-.93.28-2.1,0-2.92.27-1.23.42-2.42,2.08-3.32,3A61.27,61.27,0,0,0,9.51,58C5,63.87,2.08,73.8,9.14,79c5.77,4.29,15,1.36,21-.6C38,75.91,45.3,71.82,52.46,67.86a214.19,214.19,0,0,0,28.6-18.69c4.2-3.28,8.62-6.48,11.16-11.29C93.79,34.94,95.39,31.13,95,27.71ZM80.64,47.18a202.93,202.93,0,0,1-24,16.22A225.28,225.28,0,0,1,35.91,74.31,65.09,65.09,0,0,1,24,78.25c-3.58.82-7.77,1.7-11.38.51C7.37,77,5.94,71.23,7.21,66.38,8.44,61.69,11.71,58,15,54.57c.65-.67,1.5-1.77,2.32-2.47.9,2.82,2,6,3.94,8.14,1.51,1.7,4.77,3.76,7,2.29s2.17-5.05,2-7.41a45.36,45.36,0,0,0-2.56-11.18,24.7,24.7,0,0,1,3.16-2l4.6-3.06c.47-.31.8-.55,1.13-.73,1.08,4,1.93,8.22,4.45,11.6,1.66,2.22,4.37,5,7.17,3.05s2.71-6.16,2.46-9.31A51.39,51.39,0,0,0,48,31.19c.57-.32,1.17-.6,1.61-.87,1.42-.86,2.83-1.72,4.26-2.57A16.7,16.7,0,0,1,57,26c1.09,4.75,2.9,16.82,10.21,15.08,2.49-.6,3.1-3.86,3.34-6,.52-4.81-.82-9.38-2.49-13.84,0,0,0,0,0-.06.52-.14,1-.26,1.37-.37a31.65,31.65,0,0,1,12.78-1.88,15.56,15.56,0,0,1,6.7,1.88c2.7,1.58,3.74,4.11,4.31,7.05.31,3.17-1.25,6.8-2.73,9.48C88.14,41.48,84.29,44.29,80.64,47.18ZM62.37,26a6.47,6.47,0,0,0,3-2.14c.38-.46.63-1.41,1-1.91A35.15,35.15,0,0,1,68.7,30.8c.22,2.29.64,8-2.47,8.51-4.92.83-6.59-9.48-7.4-13.38A7.81,7.81,0,0,0,62.37,26ZM46.44,32.46c.76,2.38,1.28,4.85,1.8,7.29.61,2.83,1.33,6.53.46,9.39-1.63,5.38-6.18-.17-7.39-2.55a45,45,0,0,1-2.87-8.86,10.73,10.73,0,0,0,4-.45,6.15,6.15,0,0,0,2.71-2C45.8,34.48,45.93,33.29,46.44,32.46Zm-21,15.7a7.27,7.27,0,0,0,1.07-2c1.19,3.74,2.25,7.65,1.94,11.58-.19,2.31-2.14,3.72-4.41,2.45a6.46,6.46,0,0,1-2.3-2.46A28.31,28.31,0,0,1,19,51.32a12.81,12.81,0,0,0,3-.56A9.28,9.28,0,0,0,25.46,48.16Z" transform="translate(-4.9 -17)"/></svg>