<svg id="Layer_9" data-name="Layer 9" xmlns="http://www.w3.org/2000/svg" viewBox="0 0 85.6 63.26"><defs><style>.cls-1{fill:#deab71;}.cls-2{fill:#ffdfb8;}.cls-3{fill:#534741;}</style></defs><title>8</title><path class="cls-1" d="M89.44,45.11c.79-2.6,1.76-5.5,1.58-8.24a19.61,19.61,0,0,0-2.25-7.37C83.9,19.76,71.5,21.24,62.39,21q-6.78-.19-13.55-.46A21.12,21.12,0,0,1,59,27.23c4.08,5.11,4.09,12.18,1.13,17.87a40.36,40.36,0,0,0-2.51,4.73c-.83,2.28-.76,4.62-.82,7-.07,2.91-.19,5.82-.3,8.73-.13,3.79.76,10.76-2.37,13.84,3.57,0,7.14,0,10.71-.08,4.77-.06,9.93.45,14.62-.55,3-.64,5.51-1.51,7-4.4,1.32-2.5,1-5.54,1-8.28,0-3.14-.25-6.28-.38-9.41a22,22,0,0,1,.29-6.27C87.92,48.59,88.89,46.92,89.44,45.11Z" transform="translate(-7.15 -18.2)"/><path class="cls-2" d="M51.28,79c3.91-1.1,3.23-7.06,3.32-10.26.08-2.83.2-5.67.29-8.5s-.14-6,.42-8.9a21.42,21.42,0,0,1,2.9-6.47C62,38.14,60.79,30.54,54.9,25.54c-2.66-2.26-6.11-3.16-9.44-4A47.25,47.25,0,0,0,35.65,20c-6.52-.16-14.65,1.63-19.76,5.89S7.12,36.83,10,43.5c.86,2,2.19,3.61,2.53,5.75s.55,4.35.77,6.53c.59,6,.34,12,.89,18,.23,2.46.71,4.52,3.3,5.29a15.6,15.6,0,0,0,4.71.43c3,0,5.9.08,8.85,0,3.53-.08,7.08-.07,10.61-.08C44.76,79.4,48.3,79.82,51.28,79ZM52.4,39.8c1.81,0,1.81,2.16,0,2.16C51.19,42,51.19,39.8,52.4,39.8ZM49.37,60c-2.42,0-1-2.15,0-2.15C50.58,57.89,50.58,60,49.37,60ZM47.54,31.28l.1-.18a1.08,1.08,0,0,1,1.47-.39,1.11,1.11,0,0,1,.39,1.48l-.09.18a1.1,1.1,0,0,1-1.48.39A1.12,1.12,0,0,1,47.54,31.28ZM47,68.76v.09a1.23,1.23,0,0,1-1.21,1.08,1.22,1.22,0,0,1-1.21-1.08v-.09a1.22,1.22,0,0,1,2.42,0ZM45.13,48.28c1.82,0,1.82,2.16,0,2.16C43.92,50.44,43.92,48.28,45.13,48.28ZM16,41.14l.09-.09a1.08,1.08,0,0,1,1.53,1.52l-.1.1a1.09,1.09,0,0,1-1.52,0A1.11,1.11,0,0,1,16,41.14ZM17.62,56h-.09a1,1,0,0,1-1.08-.91c0-.58.51-.91,1.08-.91h.09a.92.92,0,1,1,0,1.82ZM22.13,68.2a.92.92,0,1,1-1.82,0v-.1A1,1,0,0,1,21.22,67c.58,0,.91.51.91,1.07ZM21.63,30h-.09a1,1,0,0,1-1.08-.91c0-.58.51-.91,1.08-.91h.09a.92.92,0,1,1,0,1.82Zm2.92,17.46c-1.82,0-1.82-2.16,0-2.16C25.76,45.3,25.76,47.46,24.55,47.46Zm1.82,27.69c-1.22,0-1.22-2.16,0-2.16S27.58,75.15,26.37,75.15Zm.6-16.6c-1.21,0-1.21-2.15,0-2.15S28.18,58.55,27,58.55ZM30,38c-1.21,0-1.21-2.16,0-2.16S31.21,38,30,38Zm3.63,28.53c-2.08.34-1.44-2.15,0-2.15C34.84,64.42,34.83,66.38,33.63,66.57Zm.6-16.32c-.81.62-3-2.15,0-2.15C35.45,48.1,35.2,49.52,34.23,50.25Zm1.82-22.37c-1.21,0-1.21-2.16,0-2.16S37.26,27.88,36.05,27.88Zm3.63,46.43c-1.21,0-1.21-2.16,0-2.16S40.89,74.31,39.68,74.31Zm0-17.81c-1.21,0-1.21-2.16,0-2.16S40.89,56.5,39.68,56.5ZM40.29,40c-1.21,0-1.21-2.16,0-2.16S41.5,40,40.29,40Z" transform="translate(-7.15 -18.2)"/><path class="cls-1" d="M21.63,28.18h-.09c-.57,0-1.11.33-1.08.91a1,1,0,0,0,1.08.91h.09a.92.92,0,1,0,0-1.82Z" transform="translate(-7.15 -18.2)"/><path class="cls-1" d="M36.05,25.72c-1.21,0-1.21,2.16,0,2.16S37.26,25.72,36.05,25.72Z" transform="translate(-7.15 -18.2)"/><path class="cls-1" d="M47.93,32.76a1.1,1.1,0,0,0,1.48-.39l.09-.18a1.11,1.11,0,0,0-.39-1.48,1.08,1.08,0,0,0-1.47.39l-.1.18A1.12,1.12,0,0,0,47.93,32.76Z" transform="translate(-7.15 -18.2)"/><path class="cls-1" d="M17.54,42.67l.1-.1a1.08,1.08,0,0,0-1.53-1.52l-.09.09a1.11,1.11,0,0,0,0,1.53A1.09,1.09,0,0,0,17.54,42.67Z" transform="translate(-7.15 -18.2)"/><path class="cls-1" d="M30,35.88c-1.21,0-1.21,2.16,0,2.16S31.21,35.88,30,35.88Z" transform="translate(-7.15 -18.2)"/><path class="cls-1" d="M40.29,37.84c-1.21,0-1.21,2.16,0,2.16S41.5,37.84,40.29,37.84Z" transform="translate(-7.15 -18.2)"/><path class="cls-1" d="M52.4,42c1.81,0,1.81-2.16,0-2.16C51.19,39.8,51.19,42,52.4,42Z" transform="translate(-7.15 -18.2)"/><path class="cls-1" d="M24.55,45.3c-1.82,0-1.82,2.16,0,2.16C25.76,47.46,25.76,45.3,24.55,45.3Z" transform="translate(-7.15 -18.2)"/><path class="cls-1" d="M17.62,54.21h-.09c-.57,0-1.11.33-1.08.91a1,1,0,0,0,1.08.91h.09a.92.92,0,1,0,0-1.82Z" transform="translate(-7.15 -18.2)"/><path class="cls-1" d="M34.23,48.1c-3,0-.81,2.77,0,2.15C35.2,49.52,35.45,48.1,34.23,48.1Z" transform="translate(-7.15 -18.2)"/><path class="cls-1" d="M45.13,50.44c1.82,0,1.82-2.16,0-2.16C43.92,48.28,43.92,50.44,45.13,50.44Z" transform="translate(-7.15 -18.2)"/><path class="cls-1" d="M27,56.4c-1.21,0-1.21,2.15,0,2.15S28.18,56.4,27,56.4Z" transform="translate(-7.15 -18.2)"/><path class="cls-1" d="M39.68,54.34c-1.21,0-1.21,2.16,0,2.16S40.89,54.34,39.68,54.34Z" transform="translate(-7.15 -18.2)"/><path class="cls-1" d="M49.37,60c1.21,0,1.21-2.15,0-2.15C48.41,57.89,47,60,49.37,60Z" transform="translate(-7.15 -18.2)"/><path class="cls-1" d="M33.63,64.42c-1.44,0-2.08,2.49,0,2.15C34.83,66.38,34.84,64.42,33.63,64.42Z" transform="translate(-7.15 -18.2)"/><path class="cls-1" d="M44.53,68.76v.09a1.22,1.22,0,0,0,1.21,1.08A1.23,1.23,0,0,0,47,68.85v-.09a1.22,1.22,0,0,0-2.42,0Z" transform="translate(-7.15 -18.2)"/><path class="cls-1" d="M21.22,67a1,1,0,0,0-.91,1.07v.1a.92.92,0,1,0,1.82,0v-.1C22.13,67.54,21.8,67,21.22,67Z" transform="translate(-7.15 -18.2)"/><path class="cls-1" d="M26.37,73c-1.22,0-1.22,2.16,0,2.16S27.58,73,26.37,73Z" transform="translate(-7.15 -18.2)"/><path class="cls-1" d="M39.68,72.15c-1.21,0-1.21,2.16,0,2.16S40.89,72.15,39.68,72.15Z" transform="translate(-7.15 -18.2)"/><path class="cls-3" d="M92,32.67c-1.28-4.08-3.25-7.61-7-9.88-4.44-2.72-8.75-3.28-13.85-3.4-11.32-.26-22.64-.69-34-1.13h-.17a37.32,37.32,0,0,0-17.71,3.35C13.5,24.32,8.72,29.5,7.44,35.93a13.14,13.14,0,0,0,1,8.48c.65,1.46,1.81,2.92,2.23,4.45A28.94,28.94,0,0,1,11.22,53c.46,4,.68,7.89.76,11.87.08,3.8-.19,8.18.9,11.86.88,2.94,3.23,4,6.12,4.4,3.89.52,8.16.2,12.09.12,3.53-.07,7.08-.06,10.61-.07,1.58,0,3.22.07,4.86.06a.77.77,0,0,0,.27,0c6.16-.13,12.32-.09,18.48-.18,4.43-.06,9.12.35,13.5-.38,4.58-.77,8.55-2.44,10-7.23,1-3.27.57-7.15.39-10.55-.15-2.71-.28-5.43-.33-8.14-.05-2.87.79-4.92,1.73-7.54C92.36,42.51,93.59,37.64,92,32.67Zm-4.87,24c.13,3.13.37,6.27.38,9.41,0,2.74.29,5.78-1,8.28-1.52,2.89-4,3.76-7,4.4-4.69,1-9.85.49-14.62.55-3.57.05-7.14.06-10.71.08,3.13-3.08,2.24-10.05,2.37-13.84.11-2.91.23-5.82.3-8.73.06-2.38,0-4.72.82-7a40.36,40.36,0,0,1,2.51-4.73c3-5.69,3-12.76-1.13-17.87a21.12,21.12,0,0,0-10.17-6.7q6.77.25,13.55.46c9.11.25,21.51-1.23,26.38,8.51A19.61,19.61,0,0,1,91,36.87c.18,2.74-.79,5.64-1.58,8.24-.55,1.81-1.52,3.48-2,5.3A22,22,0,0,0,87.15,56.68ZM31.09,79.48c-2.95,0-5.9,0-8.85,0A15.6,15.6,0,0,1,17.53,79c-2.59-.77-3.07-2.83-3.3-5.29-.55-6-.3-12-.89-18-.22-2.18-.44-4.37-.77-6.53S10.9,45.47,10,43.5c-2.92-6.67.67-13.31,5.85-17.62S29.13,19.83,35.65,20a47.25,47.25,0,0,1,9.81,1.59c3.33.8,6.78,1.7,9.44,4,5.89,5,7.08,12.6,3.31,19.31a21.42,21.42,0,0,0-2.9,6.47c-.56,2.87-.32,6-.42,8.9s-.21,5.67-.29,8.5c-.09,3.2.59,9.16-3.32,10.26-3,.84-6.52.42-9.58.42C38.17,79.41,34.62,79.4,31.09,79.48Z" transform="translate(-7.15 -18.2)"/></svg>