<svg id="Layer_10" data-name="Layer 10" xmlns="http://www.w3.org/2000/svg" viewBox="0 0 73.36 88.66"><defs><style>.cls-1{fill:none;}.cls-2{fill:#c96649;}.cls-3{fill:#a3533b;}.cls-4{fill:#534741;}.cls-5{fill:#fff;}</style></defs><title>9</title><path class="cls-1" d="M59.3,45.76c.15.64.3,1.63.51,2.34s.31,1,.95.81.78-.58.55-1.59-.23-1.59-.33-2.27l-1.76.37C59.25,45.53,59.27,45.64,59.3,45.76Z" transform="translate(-13.74 -5.7)"/><path class="cls-1" d="M54.34,49.46c1.24.35,1.09-1.77.83-3.39l-1.79.2C53.65,47.52,54.07,49.38,54.34,49.46Z" transform="translate(-13.74 -5.7)"/><path class="cls-2" d="M79.25,11.54c-4.49-1-7.4,1.53-10.16,4.34-.3,3.21-.71,6.42-1.23,9.61-.13.79-1.17.89-1.67.44-1.69-1.5-.86-3.88-.58-5.86,0-.3.1-.6.14-.9l-.29.24a27.75,27.75,0,0,1-6.56,4c-.07.47-.14.94-.23,1.4-.29,1.6-.4,4.26-1.76,5.35a1,1,0,0,1-1.68-.44,12.06,12.06,0,0,1-.07-4.91l-.4.12a.78.78,0,0,1-.21,0,39.13,39.13,0,0,1-6.43.81c-.34.92-.69,1.83-1.11,2.73-.51,1.11-1.37,4.14-3.09,3.84-2-.35-1.3-3.54-.18-6.63a38.26,38.26,0,0,1-5.59-.82l-1.45-.35a38.26,38.26,0,0,1-3.4,6.65c-.48.75-2,.54-1.86-.51a30.34,30.34,0,0,1,1.63-6.55c0-.14.1-.3.15-.46-5.18-1.19-11.41-1.89-13,3.46A8.85,8.85,0,0,0,20,30.74,18.35,18.35,0,0,0,26.43,37c3.28,1.9,6,2.47,9.65,3.39a44.36,44.36,0,0,0,12.08,1.18c0-.31-.11-.62-.16-.93a.66.66,0,0,1,0-.14.54.54,0,0,1,.47-.69c.79-.11,1.56-.28,2.35-.39a.7.7,0,0,1,.83.47c.14.48.27,1,.4,1.43.72-.07,1.42-.15,2.13-.24-.11-.48-.21-1-.32-1.46a.68.68,0,0,1,.47-.83c.88-.14,1.77-.25,2.65-.42a.7.7,0,0,1,.84.47c.1.54.22,1.08.33,1.62L60.31,40c-.09-.56-.17-1.12-.26-1.67a.69.69,0,0,1,.47-.83c.91-.2,1.82-.39,2.72-.64a.71.71,0,0,1,.84.47c.16.53.31,1.07.46,1.6,6.37-1.84,12.08-4.75,16-10.48a16.19,16.19,0,0,0,2.6-4.84c.39-1.47,1-2.52,1.31-4,.16-.77.31-1.56.45-2.38C84.47,14.57,82.88,12.36,79.25,11.54Z" transform="translate(-13.74 -5.7)"/><path class="cls-3" d="M52.94,44.48l1.88-.2c-.19-1.07-.41-2.13-.64-3.19-.71.09-1.41.17-2.13.24C52.35,42.38,52.65,43.43,52.94,44.48Z" transform="translate(-13.74 -5.7)"/><path class="cls-3" d="M58.83,43.66c.64-.12,1.28-.25,1.91-.39-.12-1.09-.27-2.17-.43-3.24l-2.16.44C58.37,41.53,58.6,42.6,58.83,43.66Z" transform="translate(-13.74 -5.7)"/><path class="cls-3" d="M83.18,23.64a16.19,16.19,0,0,1-2.6,4.84c-4,5.73-9.67,8.64-16,10.48.28,1,.54,2,.77,3.08a45,45,0,0,0,9-4A20.37,20.37,0,0,0,84,25.83a19.65,19.65,0,0,0,1-8.57c-.14.82-.29,1.61-.45,2.38C84.18,21.12,83.57,22.17,83.18,23.64Z" transform="translate(-13.74 -5.7)"/><path class="cls-3" d="M36.08,40.4c-3.67-.92-6.37-1.49-9.65-3.39A18.35,18.35,0,0,1,20,30.74c.5,4,3.54,7.7,6.84,9.77,4.72,3,10.62,3.78,16.08,4.11,1.92.11,3.87.15,5.83.1-.18-1-.37-2.1-.55-3.14A44.36,44.36,0,0,1,36.08,40.4Z" transform="translate(-13.74 -5.7)"/><path class="cls-3" d="M31.44,30.72c-.14,1.05,1.38,1.26,1.86.51a38.26,38.26,0,0,0,3.4-6.65c-1-.27-2.23-.58-3.48-.87,0,.16-.1.32-.15.46A30.34,30.34,0,0,0,31.44,30.72Z" transform="translate(-13.74 -5.7)"/><path class="cls-3" d="M43.92,32.38c1.72.3,2.58-2.73,3.09-3.84.42-.9.77-1.81,1.11-2.73a37.66,37.66,0,0,1-4.38-.06C42.62,28.84,42,32,43.92,32.38Z" transform="translate(-13.74 -5.7)"/><path class="cls-3" d="M55.23,29.75a1,1,0,0,0,1.68.44c1.36-1.09,1.47-3.75,1.76-5.35.09-.46.16-.93.23-1.4a35.79,35.79,0,0,1-3.74,1.4A12.06,12.06,0,0,0,55.23,29.75Z" transform="translate(-13.74 -5.7)"/><path class="cls-3" d="M66.19,25.93c.5.45,1.54.35,1.67-.44.52-3.19.93-6.4,1.23-9.61C68,17,66.9,18.16,65.75,19.17c0,.3-.1.6-.14.9C65.33,22.05,64.5,24.43,66.19,25.93Z" transform="translate(-13.74 -5.7)"/><path class="cls-2" d="M81.42,9.92c.65-.31,1.3-.61,1.94-.94.32-.17,1.09-.47.75-1-.12-.18-.72-.25-.89-.29-.48-.1-2.32-.47-2.39.29a4.29,4.29,0,0,0,.34,1C81.26,9.32,81.34,9.62,81.42,9.92Z" transform="translate(-13.74 -5.7)"/><path class="cls-2" d="M19.29,23.83c.11-.77.3-2-.12-2.45-.6-.65-2.41.26-3,.62-1.59.93.54,1.34,1.3,1.48Z" transform="translate(-13.74 -5.7)"/><path class="cls-4" d="M85.69,13.73a8.67,8.67,0,0,0-2.61-2.58c1.17-.51,2.45-1.13,2.85-2.29.49-1.43-.59-2.44-1.89-2.81s-3.36-.66-4.41.25S79,8.55,79.44,9.77a11.29,11.29,0,0,0-7.79,1.41c-2.81,1.73-4.66,4.54-7.12,6.68a27.79,27.79,0,0,1-10.25,5.37,35.54,35.54,0,0,1-12,.61c-3.51-.43-6.84-1.56-10.3-2.21s-7.9-.89-10.84,1.22c0-1.31-.15-2.76-1.3-3.36-1.38-.72-3.78.37-4.93,1.15a2.27,2.27,0,0,0-.62,3.46,4,4,0,0,0,2.28,1c.77.16,1.55.3,2.33.44-1.93,4.16-.19,9.25,2.55,12.62,3.63,4.46,9.25,6.53,14.79,7.47A65.29,65.29,0,0,0,49,46.54c.14.78.27,1.57.41,2.35.36,2,.37,4.76,1.69,6.48A7,7,0,0,0,53.47,57a6.4,6.4,0,0,1,3.09,3.95,28.34,28.34,0,0,1,.71,4.1c1,7.11,1.86,14.25,2.58,21.39.32,3.11.63,6.3,4,7.57s7.57-.6,8.17-4.32c.51-3.11-1.12-7.05-1.86-10.05-1.07-4.39-2.16-8.78-3.37-13.13-.93-3.37-3.56-8.5-2.16-11.88,1.08-2.6,1.82-4.22,1.56-7.16-.11-1.22-.28-2.44-.5-3.64A51.89,51.89,0,0,0,74,40.31,22.41,22.41,0,0,0,84.74,29.15C86.55,24.74,88.49,18.13,85.69,13.73ZM84,25.83a20.37,20.37,0,0,1-9.65,12.24,45,45,0,0,1-9,4c-.23-1-.49-2.06-.77-3.08-.15-.53-.3-1.07-.46-1.6a.71.71,0,0,0-.84-.47c-.9.25-1.81.44-2.72.64a.69.69,0,0,0-.47.83c.09.55.17,1.11.26,1.67.16,1.07.31,2.15.43,3.24-.63.14-1.27.27-1.91.39-.23-1.06-.46-2.13-.68-3.19-.11-.54-.23-1.08-.33-1.62a.7.7,0,0,0-.84-.47c-.88.17-1.77.28-2.65.42a.68.68,0,0,0-.47.83c.11.49.21,1,.32,1.46.23,1.06.45,2.12.64,3.19l-1.88.2c-.29-1-.59-2.1-.89-3.15-.13-.47-.26-.95-.4-1.43a.7.7,0,0,0-.83-.47c-.79.11-1.56.28-2.35.39a.54.54,0,0,0-.47.69.66.66,0,0,0,0,.14c0,.31.11.62.16.93.18,1,.37,2.09.55,3.14-2,.05-3.91,0-5.83-.1-5.46-.33-11.36-1.15-16.08-4.11-3.3-2.07-6.34-5.77-6.84-9.77a8.85,8.85,0,0,1,.27-3.57c1.58-5.35,7.81-4.65,13-3.46,1.25.29,2.44.6,3.48.87l1.45.35a38.26,38.26,0,0,0,5.59.82,37.66,37.66,0,0,0,4.38.06A39.13,39.13,0,0,0,54.55,25a.78.78,0,0,0,.21,0l.4-.12a35.79,35.79,0,0,0,3.74-1.4,27.75,27.75,0,0,0,6.56-4l.29-.24c1.15-1,2.23-2.17,3.34-3.29,2.76-2.81,5.67-5.35,10.16-4.34,3.63.82,5.22,3,5.69,5.72A19.65,19.65,0,0,1,84,25.83ZM64.67,46.31A14.15,14.15,0,0,1,64.74,51c-.3,1.34-1.2,2.39-1.65,3.65-.84,2.36.24,5.07.92,7.36,2,6.73,3.73,13.5,5.38,20.32.3,1.23.6,2.45.88,3.68s.7,2.81.25,4.06a5,5,0,0,1-7,2.31c-2.66-1.69-2.37-6.67-2.69-9.54-.71-6.22-1.44-12.44-2.31-18.64-.4-2.89-.82-6.28-3.53-8-1.59-1-2.85-1.52-3.5-3.62A28.35,28.35,0,0,1,50.85,49q-.72-4-1.42-8l1.07-.18a88,88,0,0,0,2.64,9.28c.37,1,1,2,2.18,1.89,1.52-.16,1.83-1.87,1.73-3.09A61.26,61.26,0,0,0,55.34,40l1.29-.2c.35,1.75.72,3.49,1.11,5.24.36,1.58.51,4.84,2.17,5.75,4.32,2.36,2.2-8.88,1.58-12.09L63,38.35A50.4,50.4,0,0,1,64.67,46.31Zm-3.36,1c.23,1,.08,1.37-.55,1.59s-.81-.19-.95-.81-.36-1.7-.51-2.34c0-.12,0-.23-.08-.34L61,45.05C61.08,45.73,61.2,46.45,61.31,47.32Zm-7,2.14c-.27-.08-.69-1.94-1-3.19l1.79-.2C55.43,47.69,55.58,49.81,54.34,49.46ZM16.16,22c.6-.36,2.41-1.27,3-.62.42.45.23,1.68.12,2.45l-1.83-.35C16.7,23.34,14.57,22.93,16.16,22ZM83.22,7.7c.17,0,.77.11.89.29.34.52-.43.82-.75,1-.64.33-1.29.63-1.94.94-.08-.3-.16-.6-.25-.9a4.29,4.29,0,0,1-.34-1C80.9,7.23,82.74,7.6,83.22,7.7Z" transform="translate(-13.74 -5.7)"/><path class="cls-5" d="M63,38.35l-1.46.35c.62,3.21,2.74,14.45-1.58,12.09-1.66-.91-1.81-4.17-2.17-5.75-.39-1.75-.76-3.49-1.11-5.24l-1.29.2a61.26,61.26,0,0,1,1.71,8.92c.1,1.22-.21,2.93-1.73,3.09-1.21.13-1.81-.94-2.18-1.89a88,88,0,0,1-2.64-9.28L49.43,41q.7,4,1.42,8a28.35,28.35,0,0,0,.63,3.57c.65,2.1,1.91,2.61,3.5,3.62,2.71,1.7,3.13,5.09,3.53,8,.87,6.2,1.6,12.42,2.31,18.64.32,2.87,0,7.85,2.69,9.54a5,5,0,0,0,7-2.31c.45-1.25,0-2.8-.25-4.06s-.58-2.45-.88-3.68C67.74,75.5,66,68.73,64,62c-.68-2.29-1.76-5-.92-7.36.45-1.26,1.35-2.31,1.65-3.65a14.15,14.15,0,0,0-.07-4.68A50.4,50.4,0,0,0,63,38.35Z" transform="translate(-13.74 -5.7)"/></svg>