<svg id="Layer_1" data-name="Layer 1" xmlns="http://www.w3.org/2000/svg" viewBox="0 0 31.32 91.69"><defs><style>.cls-1{fill:#099baa;}</style></defs><title>fig</title><path class="cls-1" d="M66.25,49.62a.19.19,0,0,0,0-.08c0-.39,0-.78,0-1.17C66.2,47,66,45.56,66,44.16A19.63,19.63,0,0,0,64.93,37a1.41,1.41,0,0,1-.11-.57A19.27,19.27,0,0,0,63.87,29a7.38,7.38,0,0,1-.31-1.81,12.38,12.38,0,0,0-1.05-5.14,4.75,4.75,0,0,0-3.24-2.73,7.82,7.82,0,0,1-2.49-1.05c-.69-.44-1.38-.88-2.1-1.26a2.52,2.52,0,0,1-1.42-1.79,4.18,4.18,0,0,0,.65-.9c.23-.61.45-1.23.65-1.86,1.13-.25,1.39-2.16.83-2.69a.54.54,0,0,0-.71-.12A5.39,5.39,0,0,0,55,7.78a4.08,4.08,0,0,0-.82-2.24,1.65,1.65,0,0,0-1.3-.62s-.38-.63-2.09-.74-3.75.64-4.3,2.2a5.32,5.32,0,0,0-.11,3.34h0a.54.54,0,0,0-.75.09c-.57.53-.29,2.49.87,2.7A9.93,9.93,0,0,0,47,13.73c.2.45.44.87.67,1.3,0,.12.17.25.14.35a2.23,2.23,0,0,1-1,1.47C45.86,17.4,45,18,44,18.59a4.48,4.48,0,0,1-1.41.6,5.39,5.39,0,0,0-4.29,4.07,14.74,14.74,0,0,0-.58,4.43,3,3,0,0,1-.15.94,19.09,19.09,0,0,0-1.12,7.82,1.43,1.43,0,0,1-.11.61,16.84,16.84,0,0,0-1,4.58c-.13,2.13-.22,4.27-.32,6.4,0,.39-.06.78-.06,1.17,0,.1,0,.21,0,.32h0l0,1.31a29.21,29.21,0,0,0,.21,3.34,8.33,8.33,0,0,0,.74,1.75,6.69,6.69,0,0,0,1,1.09c.36.24.9.53.75,0s-1-1.16-1.14-1.62l1,.38c.2.08.21-.17.21-.17-.15-.48-.92-.94-1.43-1.21a3,3,0,0,1,0-1.26c.23-.92.49-1.3.92-1.29s.54.89,1,1.18.63-.14.63-.14c-.46-.48-.3-1.64-.45-2.33a1.92,1.92,0,0,0-.61-1,2.14,2.14,0,0,1,.09-.7c.77-2.54,1.58-5.06,2.21-7.64a18.19,18.19,0,0,0,.37-3.91,4.24,4.24,0,0,1,.19-1.5c.42-1.19.81-2.39,1.21-3.59,0-.12.09-.24.14-.36h.17c.19,2.59.43,5.18.56,7.77a23.46,23.46,0,0,1-.09,3.84c-.31,2.9-.84,5.78-1.05,8.69a39,39,0,0,0,1.1,11.08,30.48,30.48,0,0,1,.74,6.72,11.34,11.34,0,0,1-.32,2c-.11.63-.3,1.25-.37,1.88a19.35,19.35,0,0,0,.71,7.3c.54,2,1.25,4,1.93,6a11.39,11.39,0,0,1,.71,2.9,7.2,7.2,0,0,0-.42,1.68c0,.72-2.28,2.3-2.58,3.16s.17,1,.17,1h5.55c.57,0,.88-.43.88-1.13s-.62-4.51-.67-4.83A45.34,45.34,0,0,1,49.23,80a20.61,20.61,0,0,0-.47-7.42,5.45,5.45,0,0,1,.17-2.94,11.27,11.27,0,0,0,.51-2.44c.37-4.31.68-8.63,1-12.94,0-.53.09-1.06.13-1.6a.34.34,0,0,1,.14.26c.33,4.4.65,8.81,1,13.21a10.21,10.21,0,0,0,.57,3.46,4.76,4.76,0,0,1,.2,3A20.64,20.64,0,0,0,52,79.86c.1.81.24,1.62.26,2.43a66.26,66.26,0,0,1-.11,7.59h0S51.5,94,51.5,94.73s.31,1.13.88,1.13h5.55s.48-.19.17-1-2.54-2.44-2.59-3.16A6.88,6.88,0,0,0,55.1,90h0a8.57,8.57,0,0,1,.74-2.88,42.66,42.66,0,0,0,2.15-7,18.08,18.08,0,0,0,.36-7.1,19.57,19.57,0,0,1-.55-2.54,30.13,30.13,0,0,1,.72-7.31c.81-4.11,1.55-8.26.92-12.51-.26-1.77-.43-3.57-.62-5.35a38.61,38.61,0,0,1-.39-4.41c0-2,.21-3.91.37-5.86.08-1,.26-2,.39-3,.6,1.47,1.1,2.93,1.6,4.4a1.08,1.08,0,0,1,0,.31,24,24,0,0,0,.09,3.29,50.62,50.62,0,0,0,2.41,8.79,2.35,2.35,0,0,1,.11.75,2,2,0,0,0-.65,1.07c-.15.69,0,1.85-.45,2.33,0,0,.13.44.63.15S63.54,52,64,52s.69.36.92,1.28a3,3,0,0,1,.05,1.26c-.51.27-1.28.73-1.43,1.21,0,0,0,.25.21.17l1-.38c-.17.46-1,1.11-1.14,1.62s.39.24.76,0a7,7,0,0,0,1-1.09,8.33,8.33,0,0,0,.74-1.75A29.21,29.21,0,0,0,66.29,51Z" transform="translate(-34.96 -4.17)"/></svg>