<svg xmlns="http://www.w3.org/2000/svg" xmlns:xlink="http://www.w3.org/1999/xlink" viewBox="0 0 405.42 227.5"><defs><style>.cls-1{fill:none;}.cls-2{isolation:isolate;}.cls-3{clip-path:url(#clip-path);}.cls-4{fill:url(#linear-gradient);}.cls-5{clip-path:url(#clip-path-2);}.cls-6,.cls-7,.cls-8{fill:#fff;}.cls-6{opacity:0.22;}.cls-7{opacity:0.16;}.cls-8{opacity:0.3;}.cls-9{opacity:0.26;fill:url(#linear-gradient-2);}.cls-15,.cls-16,.cls-18,.cls-19,.cls-23,.cls-28,.cls-29,.cls-9{mix-blend-mode:multiply;}.cls-10{opacity:0.42;fill:url(#linear-gradient-3);}.cls-11{fill:url(#linear-gradient-4);}.cls-12{opacity:0.13;fill:url(#linear-gradient-5);}.cls-12,.cls-14,.cls-22,.cls-25,.cls-31{mix-blend-mode:screen;}.cls-13{fill:url(#linear-gradient-6);}.cls-14{opacity:0.08;fill:url(#linear-gradient-7);}.cls-15{fill:url(#linear-gradient-8);}.cls-16{fill:url(#linear-gradient-9);}.cls-17{fill:url(#linear-gradient-10);}.cls-18{opacity:0.61;}.cls-19,.cls-28{opacity:0.58;}.cls-19{fill:url(#linear-gradient-12);}.cls-20{clip-path:url(#clip-path-3);}.cls-21{fill:url(#linear-gradient-13);}.cls-22{opacity:0.72;fill:url(#linear-gradient-14);}.cls-23{opacity:0.23;}.cls-24{fill:url(#linear-gradient-15);}.cls-25{opacity:0.47;fill:url(#linear-gradient-17);}.cls-26{opacity:0.51;}.cls-27{fill:#c7ffff;}.cls-28{fill:url(#linear-gradient-18);}.cls-29{fill:url(#linear-gradient-19);}.cls-30{fill:#043246;}.cls-31{opacity:0.18;}.cls-32{fill:url(#linear-gradient-20);}.cls-33{fill:url(#linear-gradient-21);}</style><clipPath id="clip-path" transform="translate(49.96 17.82)"><rect class="cls-1" width="286" height="180"/></clipPath><linearGradient id="linear-gradient" x1="192.96" y1="158.71" x2="192.96" y2="-14.74" gradientUnits="userSpaceOnUse"><stop offset="0.3" stop-color="#32f6f6"/><stop offset="0.4" stop-color="#32eff1"/><stop offset="0.53" stop-color="#30dce1"/><stop offset="0.68" stop-color="#2ebdc9"/><stop offset="0.85" stop-color="#2b92a6"/><stop offset="0.96" stop-color="#29738e"/></linearGradient><clipPath id="clip-path-2" transform="translate(49.96 17.82)"><rect class="cls-1" x="-5.93" y="-9.29" width="297.86" height="198.57"/></clipPath><linearGradient id="linear-gradient-2" x1="239.01" y1="95.58" x2="225.66" y2="35.49" gradientUnits="userSpaceOnUse"><stop offset="0" stop-color="#00979c"/><stop offset="1" stop-color="#00697a"/></linearGradient><linearGradient id="linear-gradient-3" x1="65.03" y1="41.29" x2="103.14" y2="149.06" gradientUnits="userSpaceOnUse"><stop offset="0" stop-color="#00697a"/><stop offset="1" stop-color="#00979c"/></linearGradient><linearGradient id="linear-gradient-4" x1="-1460.64" y1="106.68" x2="-1462.07" y2="206.6" gradientTransform="matrix(-0.99, 0.11, 0.11, 0.99, -1305.16, 78.81)" xlink:href="#linear-gradient-3"/><linearGradient id="linear-gradient-5" x1="158.66" y1="31.39" x2="170.59" y2="130.62" gradientUnits="userSpaceOnUse"><stop offset="0" stop-color="#006376"/><stop offset="1" stop-color="#1b9e9c"/></linearGradient><linearGradient id="linear-gradient-6" x1="74.17" y1="86.97" x2="74.17" y2="136.16" xlink:href="#linear-gradient-3"/><linearGradient id="linear-gradient-7" x1="74.17" y1="89.21" x2="74.17" y2="152.19" xlink:href="#linear-gradient-5"/><linearGradient id="linear-gradient-8" x1="106" y1="138.79" x2="106" y2="130.47" gradientUnits="userSpaceOnUse"><stop offset="0" stop-color="#1b9e9c" stop-opacity="0"/><stop offset="1" stop-color="#006376"/></linearGradient><linearGradient id="linear-gradient-9" x1="37.12" y1="138.79" x2="37.12" y2="130.47" xlink:href="#linear-gradient-8"/><linearGradient id="linear-gradient-10" x1="189.03" y1="78.31" x2="189.66" y2="140.26" xlink:href="#linear-gradient-5"/><linearGradient id="linear-gradient-12" x1="251.97" y1="146.24" x2="251.97" y2="132.16" xlink:href="#linear-gradient-8"/><clipPath id="clip-path-3" transform="translate(49.96 17.82)"><polygon class="cls-1" points="-22.66 112.64 87.2 112.64 308.66 112.64 308.66 187.44 49 187.44 -14.54 187.44 -22.66 112.64"/></clipPath><linearGradient id="linear-gradient-13" x1="27.3" y1="167.86" x2="358.62" y2="167.86" gradientUnits="userSpaceOnUse"><stop offset="0" stop-color="#057187"/><stop offset="0.52" stop-color="#27a3bb"/><stop offset="1" stop-color="#006a7b"/></linearGradient><linearGradient id="linear-gradient-14" x1="35.13" y1="148.35" x2="230.12" y2="148.35" gradientUnits="userSpaceOnUse"><stop offset="0" stop-color="#057187"/><stop offset="1" stop-color="#27a3bb" stop-opacity="0.3"/></linearGradient><linearGradient id="linear-gradient-15" x1="192.74" y1="1825.46" x2="193.21" y2="1872.17" gradientTransform="matrix(1, 0, 0, -1, 0, 1959.4)" xlink:href="#linear-gradient-5"/><linearGradient id="linear-gradient-17" x1="-1440.51" y1="148.35" x2="-1321.85" y2="148.35" gradientTransform="matrix(-1, 0, 0, 1, -1240.57, 0)" gradientUnits="userSpaceOnUse"><stop offset="0" stop-color="#27a3bb" stop-opacity="0.2"/><stop offset="1" stop-color="#057187"/></linearGradient><linearGradient id="linear-gradient-18" x1="202.02" y1="1969.98" x2="202.02" y2="1960.18" gradientTransform="matrix(1, 0, 0, -1, 49.96, 2088.28)" xlink:href="#linear-gradient-8"/><linearGradient id="linear-gradient-19" x1="50.75" y1="1967.77" x2="50.75" y2="1959.44" gradientTransform="matrix(1, 0, 0, -1, 49.96, 2088.28)" xlink:href="#linear-gradient-8"/><linearGradient id="linear-gradient-20" x1="87.36" y1="107.47" x2="87.44" y2="114.79" xlink:href="#linear-gradient-5"/><linearGradient id="linear-gradient-21" x1="190.71" y1="74.19" x2="191.2" y2="122.38" xlink:href="#linear-gradient-5"/></defs><title>1</title><g class="cls-2"><g id="Layer_1" data-name="Layer 1"><g class="cls-3"><rect class="cls-4" x="44.03" y="8.53" width="297.86" height="198.57"/><g class="cls-5"><path class="cls-6" d="M-37.46,38.64c17.72-4.24,96.75-2.57,85.47.5S1,41.08-1.36,43.23c-3.1,2.83,91.42-1.38,84.44,5.89C79.41,52.94-47.71,65.44-48.42,45-48.53,42.09-41.51,39.61-37.46,38.64Z" transform="translate(49.96 17.82)"/><path class="cls-7" d="M335.72-3.89S211.37-5.72,225.66,2.31,285.22,7.39,288.2,13c3.92,7.43-131.82-1.89-107,15.42,9.06,6.31,154.49-.25,154.49-.25Z" transform="translate(49.96 17.82)"/><path class="cls-8" d="M-17.89-17.63s101.69-1.95,90,6.6S23.41-5.62,21,.38c-3.21,7.91,94.69-3.84,87.47,16.42-3.81,10.66-126.34-.27-126.34-.27Z" transform="translate(49.96 17.82)"/><path class="cls-9" d="M333.66,54.67,285,39.62,278,43s-1.62-1.27-8.2-.5-13,1.46-13,1.46L234,36.5l-20.66-1.26L185.37,45.59,145.4,54,118.17,78.44,230.51,93.23l125-.27Z" transform="translate(49.96 17.82)"/><path class="cls-10" d="M212.56,91.6s-42.77-9.58-46-8.3-19.79-.12-19.79-.12l-9.57-10.09s-7.66-4.47-12.13-5.75-21.71,0-21.71,0L78.51,58.41,67,54.58,50.42,43.09S26.81,51.38,23,51.38,14.68,61,14.68,61L0,67.34-11.49,80.11l-35.75,45.32H236.81Z" transform="translate(49.96 17.82)"/><path class="cls-11" d="M62.43,93.81s33.94-11.46,36.64-10.7S142.52,63,142.52,63l30.06-1.92,31.7-14.21,21.65,1.35L242,57.67l50.18,52.4L45.62,123.39Z" transform="translate(49.96 17.82)"/><path class="cls-12" d="M49.1,131.43,56,114.55,65.6,97.11a23.51,23.51,0,0,0,14.32,8S70.61,98,70.52,95.9s9.4-2.22,9.4-2.22l6-1.43,6.85,11.6s-5.34-14.33,0-14.94a51.2,51.2,0,0,0,9.63-2.07,16,16,0,0,1,7,13.61S109.09,90,108,85.15s8.22-4.44,8.22-4.44L118.35,78s7.37-1.61,7.3-1.61,2.61,3.33,13.73,6.9c0,0-10-7.23-10-8.54s6.08-4,6.08-4l3.95-1.52s-.35-6.08,3.62,0,4.67,18.53,4.32,21,1.44-20,.08-23.66,5,1.79,5,1.79h11.5l7.61-3.05s2.91,11.91,8.91,17.86l-5.11-17.86,8.16-6.16h6.23s5.28.7,4.81,7.08,3.15-11.29,3.15-11.29L202,51.55S208.43,57,208.84,64s0-12.45,0-12.45h7.43l4.44,1.52,11.31,6,3.58,5.26v19l5.48-20.18,9.18,9.72,4.62,4s24.41,22.78,27.51,25.82,9.83,7.49,9.83,7.49L242,57.67l-16.11-9.41-21.65-1.35-31.7,14.21L142.52,63l-40.17,20-7.36.2L62.43,93.81,45.62,123.39Z" transform="translate(49.96 17.82)"/><path class="cls-13" d="M140.37,108.83,104.78,92.6H95.36l-9.94,3.14S77.57,79,74.43,79s-13.09,2.62-13.09,2.62L51.4,88.94l-6.28,7.85-17.8,7.85S19.47,113,13.71,116.15L8,119.29H140.37Z" transform="translate(49.96 17.82)"/><path class="cls-14" d="M10.18,129.05l11.66-13.86L30,106.83l13.23-6.38a15.39,15.39,0,0,0,9.3,6.64s-6.52-2.5-6.93-8l4.94-4.27,1.31-2.51S56,97,56,101.23c0,0-2.11-6.7-2.18-10.38S56,88.91,56,88.91l2-1.24,2.09-.83S66,97.06,71.17,97.22c0,0-8.05-7.23-8.05-12.07l3.06-1.88h2.21l3.67,1.88v5.54l4.78-7.42,1.8,5.64L82.37,96l3.12,3.1,4.59-1.43-.68,6.72,3.32-8.05,4.18-.51,2.25-.16s.09,6.74,3.2,8.72-1.41-6.05-1.32-8.22l5.44-.84,4.18,2.51,5.61,1.26s3.26,7.78,2.93,11a19.5,19.5,0,0,0,0-8.36l5.65,2.69,3.06,1.73,3.23,3.29,3.48,3.32,5.74-3.94L104.78,92.6H95.36l-9.94,3.14S78,79.85,74.43,79L61.34,81.61,51.4,88.94,41.2,98.51l-13.88,6.13L8,119.29l2.88,11.3" transform="translate(49.96 17.82)"/><polygon class="cls-15" points="137.16 130.21 135.38 126.3 134.89 128.56 133.6 125.25 132.87 128.65 132.18 126.77 131.98 127.56 131.59 126.65 131.11 128.26 130.32 126.24 129.81 128.62 129.12 126.74 128.92 127.52 128.53 126.61 128.35 127.2 127.88 126.09 127.35 128.4 126.09 125.18 125.07 129.95 123.49 125.92 122.9 128.05 122.17 125.89 121.95 126.82 121.53 125.74 121.34 126.43 120.82 125.12 120.3 127.57 119.58 125.72 118.78 128.6 117.93 126.44 117.19 129.15 115.89 125.84 115.05 128.91 114.23 126.58 113.83 128.6 112.8 125.66 112.21 128.68 111.66 127.01 111.5 127.7 111.18 126.9 110.79 128.34 110.16 126.54 109.75 128.65 109.2 126.98 109.03 127.68 108.72 126.87 108.58 127.39 108.2 126.41 107.77 128.46 106.77 125.59 105.97 129.67 104.43 125.29 104.11 126.55 102.99 124.07 102.67 125.57 102.5 125.1 102.31 125.86 101.81 124.43 101.54 125.8 100.24 122.46 99.31 126.82 98.97 125.87 98.76 126.73 98.05 124.8 97.74 126.02 97.14 124.61 96.39 127.11 95.17 123.99 94.62 126.53 94.03 124.84 93.79 126.05 93.32 124.75 93 125.97 92.4 124.56 92.13 125.46 91.41 123.76 90.58 127.32 88.63 122.34 87.78 126.3 87.24 124.77 86.53 128.4 84.61 123.48 83.89 126.11 83.7 125.48 83.53 126.27 82.58 123.44 82.23 124.88 81.58 123.2 81.28 124.28 80.49 122.25 79.68 126.03 78.56 123.17 77.33 127.64 76.02 124.29 74.87 128.48 74.84 128.4 74.84 130.32 76.86 130.31 76.79 130.59 137.16 130.21"/><polygon class="cls-16" points="68.28 130.21 66.5 126.3 66.01 128.56 64.72 125.25 63.99 128.65 63.31 126.77 63.1 127.56 62.72 126.65 62.23 128.26 61.44 126.24 60.93 128.62 60.24 126.74 60.04 127.52 59.65 126.61 59.48 127.2 59.01 126.09 58.47 128.4 57.21 125.18 56.19 129.95 54.61 125.92 54.02 128.05 53.3 125.89 53.07 126.82 52.65 125.74 52.46 126.43 51.95 125.12 51.42 127.57 50.7 125.72 49.9 128.6 49.06 126.44 48.31 129.15 47.02 125.84 46.17 128.91 45.35 126.58 44.96 128.6 43.92 125.66 43.33 128.68 42.78 127.01 42.62 127.7 42.31 126.9 41.92 128.34 41.28 126.54 40.87 128.65 40.32 126.98 40.16 127.68 39.85 126.87 39.7 127.39 39.33 126.41 38.9 128.46 37.89 125.59 37.09 129.67 35.55 125.29 35.24 126.55 34.11 124.07 33.79 125.57 33.62 125.1 33.43 125.86 32.93 124.43 32.67 125.8 31.36 122.46 30.43 126.82 30.09 125.87 29.88 126.73 29.17 124.8 28.86 126.02 28.26 124.61 27.51 127.11 26.29 123.99 25.75 126.53 25.15 124.84 24.92 126.05 24.44 124.75 24.13 125.97 23.53 124.56 23.25 125.46 22.53 123.76 21.7 127.32 19.76 122.34 18.91 126.3 18.36 124.77 17.66 128.4 15.74 123.48 15.01 126.11 14.82 125.48 14.65 126.27 13.7 123.44 13.36 124.88 12.7 123.2 12.4 124.28 11.61 122.25 10.8 126.03 9.68 123.17 8.45 127.64 7.15 124.29 5.99 128.48 5.96 128.4 5.96 130.32 7.98 130.31 7.92 130.59 68.28 130.21"/><path class="cls-17" d="M70,114.06s24.6-8.9,29.31-8.9,14.13-2.62,21.46-3.66S152.17,91,152.17,91h13.61l9.94-4.71s14.66,2.62,16.75,2.62,15.7-7.33,15.7-7.33l14.66-10.47H233.3L249,61.72l16.42-2.67,19.69,13.66,23.55,24.08v22H70Z" transform="translate(49.96 17.82)"/><g class="cls-18"><path class="cls-17" d="M70,114.06s24.6-8.9,29.31-8.9,14.13-2.62,21.46-3.66S152.17,91,152.17,91h13.61l9.94-4.71s14.66,2.62,16.75,2.62,15.7-7.33,15.7-7.33l14.66-10.47H233.3L249,61.72l16.42-2.67,19.69,13.66,23.55,24.08v22H70Z" transform="translate(49.96 17.82)"/></g><polygon class="cls-19" points="359 130.39 356.26 119.65 353.92 126.61 352.42 120.96 350.89 125.51 349.29 119.49 347.98 123.38 346.91 118.28 345.99 121.03 345.6 119.58 344.83 121.86 344.38 119.91 343.07 124.46 341.89 120.01 339.04 128.49 336.95 118.53 334.68 125.3 333.59 120.49 332.73 122.82 332.38 121.6 331.68 123.51 331.27 121.87 330.03 125.82 328.99 120.87 327.56 125.11 326.59 121.74 325.89 123.66 325.48 122.02 324.24 125.97 322.75 118.88 320.42 125.83 319.42 121.11 318.05 125.19 316.61 119.76 314.07 127.33 312.44 121.19 310.78 126.13 309.04 119.59 307.62 123.81 306.45 118.27 305.45 121.27 305.03 119.69 304.2 122.16 303.7 120.04 302.29 124.99 301 120.15 297.91 129.36 296.12 120.85 294.1 126.87 293.13 122.6 292.37 124.67 292.06 123.58 291.47 125.18 290.5 121.37 289.4 124.65 289.04 122.94 288.04 125.92 287.14 122.52 286.24 125.21 285.92 123.96 285.49 125.34 284.4 121.23 283.85 122.86 283.49 121.17 282.9 122.95 282.31 120.17 281.5 122.59 281.16 121.31 280.54 123.17 280.54 123.15 280.49 123.29 280.1 121.6 278.95 125.59 277.91 121.69 277.45 123.08 277.03 121.64 274.99 127.09 273.58 120.39 272.24 124.38 271.56 126.2 270.64 122.11 270 123.85 269.31 121.5 268.62 123.37 268.61 123.32 268.45 123.8 267.86 125.4 266.69 120.29 265.65 123.06 265.23 121.61 264.56 123.39 264.51 123.21 264.33 123.69 263.88 121.94 262.43 126.49 262.19 125.71 261.14 120.7 259.1 126.79 258.23 122.65 257.03 126.23 256.55 124.41 255.66 120.57 253.25 127.03 252.11 122.72 252.03 122.94 251.94 122.55 250.99 124.87 250.6 123.65 250.09 124.92 249.13 121.32 247.89 125.02 246.87 120.16 245.98 122.79 245.62 121.41 244.89 123.57 244.46 121.72 243.36 125.55 242.96 124.1 242.81 124.53 242.09 121.81 240.94 125.25 239.95 120.97 238.39 125.16 237.81 122.43 236.79 125.48 236.26 123.2 235.45 125.07 235.19 123.96 234.53 125.77 234.26 124.82 233.71 126.31 233.39 125.04 232.42 128.11 231.61 124.25 230.5 127.56 229.75 124.93 229.2 126.42 228.88 125.15 227.91 128.22 226.75 122.71 224.93 128.12 224.16 124.44 222.72 128.73 221.09 123.12 218.8 129.23 217.36 124.28 215.87 128.27 214.33 123 213.05 126.41 212.03 121.94 211.12 124.36 210.75 123.09 210 125.08 209.57 123.38 208.49 126.76 208.27 125.83 208.06 126.57 207.15 123.47 204.96 129.33 204.06 125.04 203.45 126.87 202.37 122.18 200.15 128.12 199.1 123.91 198.27 125.95 197.94 124.88 197.25 126.56 196.85 125.13 196.31 126.67 196.01 125.24 195.34 127.26 194.64 124.25 193.25 127.97 192.32 125.02 191.63 126.7 191.24 125.27 190.44 127.56 190.17 126.55 189.79 127.68 188.6 122.53 187.12 126.51 186.78 124.89 186.21 126.59 185.97 125.7 185.78 126.26 185.37 124.48 184.08 127.44 183.69 125.96 181.93 131.18 180.92 126.36 179.77 129.77 179.23 127.35 178.8 128.52 178.62 127.91 178.26 128.87 178.06 128.05 177.43 130.04 176.91 127.54 176.19 129.68 175.7 127.98 175.35 128.95 175.14 128.12 174.51 130.11 173.76 126.54 172.59 130.04 172.09 127.66 171.16 130.44 170.1 126.81 168.62 130.76 167.69 127.56 166.72 130.14 165.73 126.73 164.9 128.94 164.24 126.04 163.65 127.61 163.41 126.79 162.93 128.08 162.65 126.97 161.82 129.56 161.09 127.03 159.29 131.84 157.99 126.2 156.56 130.04 155.88 127.32 155.34 128.64 155.12 127.95 154.68 129.03 154.42 128.11 153.64 130.35 152.99 127.54 152.09 129.95 151.49 128.04 151.05 129.13 150.79 128.2 150.01 130.44 149.09 126.42 147.61 130.37 147 127.69 144.95 132.37 216.56 131.76 216.47 131.43 232.73 131.29 232.66 131.46 359 130.39"/><g class="cls-20"><polygon class="cls-21" points="27.3 130.46 137.16 130.46 358.62 130.46 358.62 205.26 98.96 205.26 35.42 205.26 27.3 130.46"/><path class="cls-22" d="M88.62,111.1s-59.21-1.14-53,2.27,40.15,2.64,34.31,5c-1.78.73-7.87,0-15.33,1.83-6.81,1.67-3.73,5.56,1.85,5.61,10.45.1,18.93,1,13.87,2.09-8.79,1.89-11.29,2.9-8.79,4.37,1.16.68,8.49-.43,9.12.7,2.15,3.84-16.37-.83-16.37,6.32,0,7.62,33.77.29,33.73,5.22,0,2.73-8.29,3.32-11.15,4.45-7,2.77-3.45,7.34,9.58,5.75,11.19-1.37,8.28,9.18-2.52,9.58-9.35.35-16,14.79,12.36,13.91l47.67,7,30.55-.23s33.36,3.5,25.13-3.83-4.26-6,2.61-12.66-7.13-7.52-14.63-11.1,4-2.62,19.59-5,15.28-15.76,1.55-15.87-15.31-5.68-5.25-6.21,32-6.7,15.79-9.44-.38-3.8,6.94-4.33,2.18-5.42,2.18-5.42Z" transform="translate(49.96 17.82)"/><g class="cls-23"><path class="cls-24" d="M73.63,107.27S98.23,114,102.94,114s14.13,2,21.46,2.75,31.4,7.88,31.4,7.88h13.61l9.94,3.54s14.66-2,16.75-2,15.7,5.51,15.7,5.51l14.66,7.88h10.46l15.71,7.08,16.42,2,19.69-10.27,23.55-18.11V103.72H73.63Z" transform="translate(49.96 17.82)"/><g class="cls-18"><path class="cls-24" d="M73.63,107.27S98.23,114,102.94,114s14.13,2,21.46,2.75,31.4,7.88,31.4,7.88h13.61l9.94,3.54s14.66-2,16.75-2,15.7,5.51,15.7,5.51l14.66,7.88h10.46l15.71,7.08,16.42,2,19.69-10.27,23.55-18.11V103.72H73.63Z" transform="translate(49.96 17.82)"/></g></g><path class="cls-25" d="M167.39,111.1s36-1.14,32.28,2.27-24.43,2.64-20.88,5c1.08.73,4.79,0,9.33,1.83,4.14,1.67,2.27,5.56-1.13,5.61-6.36.1-11.51,1-8.44,2.09,5.35,1.89,6.87,2.9,5.35,4.37-.7.68-5.16-.43-5.55.7-1.31,3.84,10-.83,10,6.32,0,7.62-20.54.29-20.52,5.22,0,2.73,5,3.32,6.78,4.45,4.25,2.77,2.1,7.34-5.83,5.75-6.81-1.37-5,9.18,1.54,9.58,5.69.35,9.75,14.79-7.53,13.91l-29,7-18.59-.23s-20.3,3.5-15.29-3.83,2.59-6-1.59-12.66,4.33-7.52,8.9-11.1,1.3-7.35-8.32-7.2c-12.91.2-8.27-9.06,0-11.08,13.31-3.25,11.41-9-1.35-8.78-17.11.37-19.5-6.7-9.61-9.44s.23-3.8-4.22-4.33c-2-.24-2.46-1.34-2.38-2.48a3,3,0,0,1,2.77-2.94Z" transform="translate(49.96 17.82)"/><g class="cls-26"><path class="cls-27" d="M128.69,133.17a76.35,76.35,0,0,1,10.63-1.56c3.54-.3,7.08-.45,10.63-.47s7.09.1,10.63.36A77.71,77.71,0,0,1,171.22,133a76.13,76.13,0,0,1-10.63,1.56q-5.31.45-10.62.46c-3.55,0-7.09-.1-10.64-.36A79.48,79.48,0,0,1,128.69,133.17Z" transform="translate(49.96 17.82)"/><path class="cls-27" d="M162.4,127.51a46.25,46.25,0,0,1,8.19-1.53,80.25,80.25,0,0,1,8.19-.44,77.48,77.48,0,0,1,8.2.39,46.2,46.2,0,0,1,8.2,1.48A47.2,47.2,0,0,1,187,129q-4.1.42-8.2.43c-2.73,0-5.46-.12-8.19-.39A47.91,47.91,0,0,1,162.4,127.51Z" transform="translate(49.96 17.82)"/><path class="cls-27" d="M69.54,124.77a48.13,48.13,0,0,1,8.19-1.53,80.25,80.25,0,0,1,8.19-.44,77.48,77.48,0,0,1,8.2.39,47.12,47.12,0,0,1,8.2,1.48,47.2,47.2,0,0,1-8.19,1.54,77.47,77.47,0,0,1-8.19.43,80.24,80.24,0,0,1-8.2-.39A48.08,48.08,0,0,1,69.54,124.77Z" transform="translate(49.96 17.82)"/><path class="cls-27" d="M153.37,138.18a141.05,141.05,0,0,1,14.7-1.59c4.9-.34,9.8-.48,14.7-.52s9.81.05,14.72.32a140.72,140.72,0,0,1,14.71,1.41,140.57,140.57,0,0,1-14.69,1.59c-4.91.34-9.81.48-14.71.52s-9.81-.06-14.71-.33A146.51,146.51,0,0,1,153.37,138.18Z" transform="translate(49.96 17.82)"/><path class="cls-27" d="M117.31,146.26a141.05,141.05,0,0,1,14.7-1.59c4.9-.34,9.8-.49,14.71-.52s9.8,0,14.71.32a143.91,143.91,0,0,1,14.72,1.4,143.85,143.85,0,0,1-14.7,1.6c-4.9.33-9.81.48-14.71.51s-9.81,0-14.71-.33A143.61,143.61,0,0,1,117.31,146.26Z" transform="translate(49.96 17.82)"/><path class="cls-27" d="M91.55,120.79a79.45,79.45,0,0,1,10.63-1.56q5.31-.44,10.63-.46c3.54,0,7.09.09,10.63.36a76.19,76.19,0,0,1,10.64,1.46,79.31,79.31,0,0,1-10.62,1.56q-5.33.43-10.63.46c-3.55,0-7.09-.1-10.64-.37A77.89,77.89,0,0,1,91.55,120.79Z" transform="translate(49.96 17.82)"/><path class="cls-27" d="M168.06,118.44a79.31,79.31,0,0,1,10.62-1.56c3.55-.3,7.09-.44,10.63-.46s7.09.09,10.64.36a76.39,76.39,0,0,1,10.64,1.46A79.45,79.45,0,0,1,200,119.8q-5.31.44-10.63.46c-3.54,0-7.09-.1-10.63-.37A77.68,77.68,0,0,1,168.06,118.44Z" transform="translate(49.96 17.82)"/></g><polygon class="cls-28" points="359 129.34 356.26 136.82 353.92 131.97 352.42 135.9 350.89 132.74 349.29 136.93 347.98 134.22 346.91 137.78 345.99 135.85 345.6 136.86 344.83 135.28 344.38 136.64 343.07 133.47 341.89 136.57 339.04 130.66 336.95 137.6 334.68 132.88 333.59 136.23 332.73 134.61 332.38 135.46 331.68 134.13 331.27 135.27 330.03 132.52 328.99 135.97 327.56 133.01 326.59 135.36 325.89 134.03 325.48 135.17 324.24 132.42 322.75 137.35 320.42 132.51 319.42 135.8 318.05 132.96 316.61 136.74 314.07 131.47 312.44 135.75 310.78 132.31 309.04 136.86 307.62 133.92 306.45 137.78 305.45 135.69 305.03 136.79 304.2 135.07 303.7 136.54 302.29 133.1 301 136.47 297.91 130.06 296.12 135.98 294.1 131.79 293.13 134.76 292.37 133.32 292.06 134.08 291.47 132.97 290.5 135.62 289.4 133.34 289.04 134.53 288.04 132.45 287.14 134.82 286.24 132.95 285.92 133.82 285.49 132.86 284.4 135.72 283.85 134.58 283.49 135.76 282.9 134.52 282.31 136.46 281.5 134.77 281.16 135.66 280.54 134.37 280.54 134.38 280.49 134.28 280.1 135.46 278.95 132.68 277.91 135.4 277.45 134.43 277.03 135.43 274.99 131.64 273.58 136.3 272.24 133.52 271.56 132.26 270.64 135.1 270 133.89 269.31 135.53 268.62 134.23 268.61 134.26 268.45 133.93 267.86 132.81 266.69 136.37 265.65 134.44 265.23 135.46 264.56 134.21 264.51 134.34 264.33 134 263.88 135.22 262.43 132.05 262.19 132.6 261.14 136.09 259.1 131.84 258.23 134.73 257.03 132.24 256.55 133.5 255.66 136.18 253.25 131.68 252.11 134.68 252.03 134.53 251.94 134.8 250.99 133.18 250.6 134.03 250.09 133.15 249.13 135.66 247.89 133.08 246.87 136.46 245.98 134.63 245.62 135.59 244.89 134.09 244.46 135.38 243.36 132.71 242.96 133.72 242.81 133.42 242.09 135.31 240.94 132.92 239.95 135.9 238.39 132.98 237.81 134.88 236.79 132.76 236.26 134.34 235.45 133.04 235.19 133.81 234.53 132.56 234.26 133.22 233.71 132.18 233.39 133.07 232.42 130.93 231.61 133.61 230.5 131.31 229.75 133.14 229.2 132.1 228.88 132.99 227.91 130.85 226.75 134.69 224.93 130.92 224.16 133.48 222.72 130.5 221.09 134.4 218.8 130.15 217.36 133.59 215.87 130.81 214.33 134.49 213.05 132.11 212.03 135.22 211.12 133.54 210.75 134.42 210 133.03 209.57 134.22 208.49 131.87 208.27 132.52 208.06 132 207.15 134.16 204.96 130.07 204.06 133.06 203.45 131.79 202.37 135.06 200.15 130.92 199.1 133.85 198.27 132.43 197.94 133.17 197.25 132 196.85 133 196.31 131.93 196.01 132.92 195.34 131.52 194.64 133.61 193.25 131.02 192.32 133.07 191.63 131.91 191.24 132.9 190.44 131.31 190.17 132.01 189.79 131.23 188.6 134.81 187.12 132.04 186.78 133.16 186.21 131.98 185.97 132.6 185.78 132.22 185.37 133.45 184.08 131.39 183.69 132.42 181.93 128.79 180.92 132.14 179.77 129.77 179.23 131.45 178.8 130.64 178.62 131.07 178.26 130.4 178.06 130.97 177.43 129.59 176.91 131.32 176.19 129.83 175.7 131.02 175.35 130.34 175.14 130.92 174.51 129.53 173.76 132.02 172.59 129.58 172.09 131.24 171.16 129.31 170.1 131.83 168.62 129.08 167.69 131.31 166.72 129.51 165.73 131.89 164.9 130.35 164.24 132.37 163.65 131.28 163.41 131.85 162.93 130.95 162.65 131.72 161.82 129.92 161.09 131.68 159.29 128.33 157.99 132.26 156.56 129.58 155.88 131.47 155.34 130.56 155.12 131.04 154.68 130.28 154.42 130.93 153.64 129.37 152.99 131.32 152.09 129.65 151.49 130.97 151.05 130.22 150.79 130.86 150.01 129.31 149.09 132.1 147.61 129.35 147 131.22 144.95 127.96 216.56 128.38 216.47 128.62 232.73 128.71 232.66 128.6 359 129.34"/><polygon class="cls-29" points="131.87 129.09 130.09 133.01 129.6 130.75 128.31 134.05 127.59 130.66 126.9 132.54 126.69 131.75 126.31 132.66 125.82 131.04 125.03 133.06 124.52 130.69 123.84 132.57 123.63 131.78 123.24 132.69 123.07 132.11 122.6 133.21 122.06 130.91 120.81 134.13 119.78 129.36 118.21 133.39 117.62 131.25 116.89 133.42 116.66 132.49 116.24 133.57 116.05 132.87 115.54 134.19 115.01 131.74 114.29 133.59 113.49 130.7 112.65 132.87 111.9 130.16 110.61 133.47 109.76 130.4 108.94 132.72 108.55 130.71 107.51 133.65 106.92 130.63 106.37 132.3 106.21 131.6 105.9 132.41 105.51 130.97 104.88 132.77 104.46 130.66 103.91 132.33 103.75 131.63 103.44 132.44 103.3 131.92 102.92 132.9 102.49 130.85 101.48 133.71 100.68 129.64 99.14 134.01 98.83 132.76 97.7 135.24 97.38 133.74 97.22 134.21 97.03 133.45 96.52 134.88 96.26 133.51 94.96 136.85 94.02 132.49 93.69 133.44 93.47 132.58 92.77 134.5 92.45 133.29 91.85 134.7 91.1 132.2 89.88 135.32 89.34 132.78 88.74 134.47 88.51 133.26 88.03 134.55 87.72 133.34 87.12 134.75 86.85 133.84 86.12 135.55 85.29 131.99 83.35 136.97 82.5 133 81.96 134.54 81.25 130.91 79.33 135.82 78.61 133.2 78.42 133.82 78.25 133.04 77.29 135.87 76.95 134.43 76.29 136.1 76 135.03 75.2 137.06 74.39 133.27 73.28 136.13 72.04 131.67 70.74 135.01 69.58 130.82 69.55 130.91 69.55 128.99 71.58 129 71.51 128.72 131.87 129.09"/></g><path class="cls-30" d="M-15,166.75l23.29-2.62H23.42l9.42,4.71H62.15a90.49,90.49,0,0,1,13.08,0c7.33.53,24.6-7.32,24.6-7.32l18.32,3.67,33,3.68h34.55l16.22-3.68h25.65l19.89-5.77,16.22,4.73h25.12l24.08,4.72,5.23,17.28V202l-338.63-5.94Z" transform="translate(49.96 17.82)"/><path class="cls-30" d="M53.75,178.28s0-19.75,15.06-26.44c0,0-14.75,10.37-9.7,28.11C62.42,191.61,53.75,178.28,53.75,178.28Z" transform="translate(49.96 17.82)"/><path class="cls-30" d="M52.58,181.46a38.72,38.72,0,0,1,11.58-35.65S53.75,157.91,54,178C54.09,191.88,52.58,181.46,52.58,181.46Z" transform="translate(49.96 17.82)"/><path class="cls-30" d="M55.12,187.33a38.72,38.72,0,0,1,1.46-37.45s-6.73,14.47-1.08,33.76C59.41,197,55.12,187.33,55.12,187.33Z" transform="translate(49.96 17.82)"/><path class="cls-30" d="M45.35,186.22a38.7,38.7,0,0,1,1.47-37.45s-6.74,14.47-1.08,33.76C49.64,195.84,45.35,186.22,45.35,186.22Z" transform="translate(49.96 17.82)"/><path class="cls-30" d="M46,190.71a38.71,38.71,0,0,1-3.49-37.32S37.79,168.63,45.94,187C51.57,199.68,46,190.71,46,190.71Z" transform="translate(49.96 17.82)"/><path class="cls-30" d="M50,197.5a38.7,38.7,0,0,1-3.5-37.32s-4.76,15.24,3.39,33.61C55.53,206.47,50,197.5,50,197.5Z" transform="translate(49.96 17.82)"/><path class="cls-30" d="M64.77,198.92a38.7,38.7,0,0,1-3.49-37.31s-4.77,15.23,3.39,33.61C70.29,207.9,64.77,198.92,64.77,198.92Z" transform="translate(49.96 17.82)"/><path class="cls-30" d="M65.42,187.33a38.72,38.72,0,0,1,1.48-37.45s-6.74,14.47-1.09,33.76C69.71,197,65.42,187.33,65.42,187.33Z" transform="translate(49.96 17.82)"/><path class="cls-30" d="M64,194.63a38.73,38.73,0,0,1,11-35.84s-10.2,12.28-9.64,32.37C65.7,205,64,194.63,64,194.63Z" transform="translate(49.96 17.82)"/><path class="cls-30" d="M66.81,185.09a38.7,38.7,0,0,1,5-37.14s-8.07,13.77-4.27,33.51C70.16,195.08,66.81,185.09,66.81,185.09Z" transform="translate(49.96 17.82)"/><path class="cls-30" d="M49,182.41A38.7,38.7,0,0,0,47.53,145s6.74,14.47,1.08,33.76C44.71,192,49,182.41,49,182.41Z" transform="translate(49.96 17.82)"/><path class="cls-30" d="M44.88,177.11s2.85-14.9-1-22.26c0,0,6.19,5.86,3.09,22.26Z" transform="translate(49.96 17.82)"/><path class="cls-30" d="M44.29,180s5.86-14,3.61-22c0,0,4.85,7-1.56,22.42Z" transform="translate(49.96 17.82)"/><path class="cls-30" d="M66.13,184.37s5.85-14,3.61-22c0,0,4.85,7-1.56,22.42Z" transform="translate(49.96 17.82)"/><path class="cls-30" d="M68.81,178.15s5.86-14,3.61-22c0,0,4.85,7-1.56,22.42Z" transform="translate(49.96 17.82)"/><path class="cls-30" d="M38.25,181.88s.07-15.16-5.06-21.7c0,0,7.16,4.63,7.11,21.32Z" transform="translate(49.96 17.82)"/><path class="cls-30" d="M33.48,180s.07-15.16-5.06-21.7c0,0,7.16,4.63,7.12,21.32Z" transform="translate(49.96 17.82)"/><path class="cls-30" d="M32.45,179.26s4.7-14.42,1.82-22.21c0,0,5.4,6.59.26,22.47Z" transform="translate(49.96 17.82)"/><path class="cls-30" d="M79.49,167.07s0-26.86,21.19-36c0,0-20.76,14.11-13.66,38.23C91.69,185.2,79.49,167.07,79.49,167.07Z" transform="translate(49.96 17.82)"/><path class="cls-30" d="M77.84,171.39a51.42,51.42,0,0,1,16.3-48.47s-14.65,16.45-14.37,43.79C80,185.57,77.84,171.39,77.84,171.39Z" transform="translate(49.96 17.82)"/><path class="cls-30" d="M81.41,179.38a51.11,51.11,0,0,1,2.06-50.93S74,148.13,82,174.36C87.44,192.46,81.41,179.38,81.41,179.38Z" transform="translate(49.96 17.82)"/><path class="cls-30" d="M67.67,177.87a51.11,51.11,0,0,1,2.06-50.93s-9.47,19.68-1.52,45.91C73.7,191,67.67,177.87,67.67,177.87Z" transform="translate(49.96 17.82)"/><path class="cls-30" d="M68.65,184a51.22,51.22,0,0,1-4.92-50.74S57,154,68.5,178.93C76.41,196.18,68.65,184,68.65,184Z" transform="translate(49.96 17.82)"/><path class="cls-30" d="M74.22,193.21a51.23,51.23,0,0,1-4.91-50.75s-6.71,20.72,4.76,45.71C82,205.41,74.22,193.21,74.22,193.21Z" transform="translate(49.96 17.82)"/><path class="cls-30" d="M95,195.14a51.21,51.21,0,0,1-4.91-50.74s-6.7,20.72,4.76,45.7C102.76,207.34,95,195.14,95,195.14Z" transform="translate(49.96 17.82)"/><path class="cls-30" d="M95.91,179.38A51.12,51.12,0,0,1,98,128.45s-9.48,19.68-1.54,45.91C101.93,192.46,95.91,179.38,95.91,179.38Z" transform="translate(49.96 17.82)"/><path class="cls-30" d="M93.91,189.31a51.38,51.38,0,0,1,15.42-48.74s-14.35,16.7-13.57,44C96.29,203.45,93.91,189.31,93.91,189.31Z" transform="translate(49.96 17.82)"/><path class="cls-30" d="M97.86,176.33a51.11,51.11,0,0,1,7-50.51s-11.36,18.73-6,45.57C102.58,189.91,97.86,176.33,97.86,176.33Z" transform="translate(49.96 17.82)"/><path class="cls-30" d="M72.8,172.69a51.11,51.11,0,0,0-2.06-50.93s9.47,19.68,1.52,45.91C66.77,185.78,72.8,172.69,72.8,172.69Z" transform="translate(49.96 17.82)"/><path class="cls-30" d="M67,165.47s4-20.25-1.41-30.26c0,0,8.71,8,4.35,30.26Z" transform="translate(49.96 17.82)"/><path class="cls-30" d="M66.18,169.34s8.24-19,5.07-29.89c0,0,6.83,9.53-2.19,30.48Z" transform="translate(49.96 17.82)"/><path class="cls-30" d="M96.9,175.35s8.24-19,5.08-29.9c0,0,6.82,9.53-2.2,30.49Z" transform="translate(49.96 17.82)"/><path class="cls-30" d="M100.68,166.9s8.23-19,5.07-29.9c0,0,6.82,9.53-2.2,30.48Z" transform="translate(49.96 17.82)"/><path class="cls-30" d="M57.68,172s.1-20.62-7.12-29.51c0,0,10.07,6.29,10,29Z" transform="translate(49.96 17.82)"/><path class="cls-30" d="M51,169.44s.11-20.62-7.11-29.51c0,0,10.07,6.3,10,29Z" transform="translate(49.96 17.82)"/><path class="cls-30" d="M49.52,168.4s6.62-19.61,2.56-30.2c0,0,7.6,9,.36,30.56Z" transform="translate(49.96 17.82)"/><path class="cls-30" d="M-15.09,156.09s5.18-23.24,25.27-27c0,0-20.68,8.21-19.18,30.46C-8,174.14-15.09,156.09-15.09,156.09Z" transform="translate(49.96 17.82)"/><path class="cls-30" d="M-17.35,159.52A45.61,45.61,0,0,1,6.1,120.7s-15.85,11.42-20.87,35.14C-18.24,172.2-17.35,159.52-17.35,159.52Z" transform="translate(49.96 17.82)"/><path class="cls-30" d="M-15.79,167.12a45.32,45.32,0,0,1,11.6-43.69s-12,15.21-10.17,39.45C-13.09,179.61-15.79,167.12-15.79,167.12Z" transform="translate(49.96 17.82)"/><path class="cls-30" d="M-27.4,163.16a45.35,45.35,0,0,1,11.6-43.69s-12,15.22-10.16,39.46C-24.7,175.65-27.4,163.16-27.4,163.16Z" transform="translate(49.96 17.82)"/><path class="cls-30" d="M-27.73,168.64a45.44,45.44,0,0,1,5.52-44.88s-9.79,16.65-4.68,40.49C-23.36,180.7-27.73,168.64-27.73,168.64Z" transform="translate(49.96 17.82)"/><path class="cls-30" d="M-24.68,177.71a45.44,45.44,0,0,1,5.52-44.88s-9.79,16.65-4.68,40.48C-20.31,189.77-24.68,177.71-24.68,177.71Z" transform="translate(49.96 17.82)"/><path class="cls-30" d="M-7.07,183.38a45.42,45.42,0,0,1,5.52-44.87S-11.34,155.15-6.23,179C-2.7,195.44-7.07,183.38-7.07,183.38Z" transform="translate(49.96 17.82)"/><path class="cls-30" d="M-3.24,169.91A45.32,45.32,0,0,1,8.37,126.23s-12,15.2-10.18,39.44C-.55,182.4-3.24,169.91-3.24,169.91Z" transform="translate(49.96 17.82)"/><path class="cls-30" d="M-6.89,178.12A45.57,45.57,0,0,1,15.85,138.9S.21,150.59-4.38,174.4C-7.55,190.82-6.89,178.12-6.89,178.12Z" transform="translate(49.96 17.82)"/><path class="cls-30" d="M-1,167.65a45.32,45.32,0,0,1,15.83-42.36s-13.44,14-14,38.28C.5,180.32-1,167.65-1,167.65Z" transform="translate(49.96 17.82)"/><path class="cls-30" d="M-22,159.67a45.32,45.32,0,0,0,8-44.48s4.41,18.86-7.53,40C-29.7,169.84-22,159.67-22,159.67Z" transform="translate(49.96 17.82)"/><path class="cls-30" d="M-25.58,152.31s7.37-16.76,4.61-26.47c0,0,6,8.57-2.06,27Z" transform="translate(49.96 17.82)"/><path class="cls-30" d="M-27,155.5s10.8-14.88,10.16-24.91c0,0,4.07,9.57-7.78,26Z" transform="translate(49.96 17.82)"/><path class="cls-30" d="M-1.61,166.62s10.8-14.88,10.16-24.9c0,0,4.07,9.56-7.78,26Z" transform="translate(49.96 17.82)"/><path class="cls-30" d="M3.29,160s10.79-14.88,10.15-24.91c0,0,4.07,9.57-7.77,26Z" transform="translate(49.96 17.82)"/><path class="cls-30" d="M-34.91,156.13s4.06-17.83-.47-26.91c0,0,7.5,7.39,3.07,27Z" transform="translate(49.96 17.82)"/><path class="cls-30" d="M-40.23,152.65s4.06-17.83-.47-26.91c0,0,7.5,7.39,3.07,27Z" transform="translate(49.96 17.82)"/><path class="cls-30" d="M-41.28,151.47s9.5-15.69,8-25.65c0,0,4.85,9.23-5.57,26.52Z" transform="translate(49.96 17.82)"/><path class="cls-30" d="M21.34,169.94s0-16.32-12.46-21.86c0,0,12.2,8.58,8,23.25C14.16,181,21.34,169.94,21.34,169.94Z" transform="translate(49.96 17.82)"/><path class="cls-30" d="M22.3,172.57a32,32,0,0,0-9.57-29.47s8.61,10,8.44,26.62C21.05,181.19,22.3,172.57,22.3,172.57Z" transform="translate(49.96 17.82)"/><path class="cls-30" d="M20.2,177.43a32,32,0,0,0-1.21-31s5.57,12,.9,27.92C16.66,185.38,20.2,177.43,20.2,177.43Z" transform="translate(49.96 17.82)"/><path class="cls-30" d="M28.28,176.51a32,32,0,0,0-1.21-31s5.57,12,.89,27.92C24.73,184.46,28.28,176.51,28.28,176.51Z" transform="translate(49.96 17.82)"/><path class="cls-30" d="M27.71,180.22a32,32,0,0,0,2.89-30.85s3.93,12.6-2.81,27.79C23.14,187.64,27.71,180.22,27.71,180.22Z" transform="translate(49.96 17.82)"/><path class="cls-30" d="M24.43,185.83A32,32,0,0,0,27.32,155s3.94,12.6-2.8,27.79C19.87,193.25,24.43,185.83,24.43,185.83Z" transform="translate(49.96 17.82)"/><path class="cls-30" d="M12.22,187a32,32,0,0,0,2.89-30.85s3.94,12.6-2.8,27.79C7.66,194.43,12.22,187,12.22,187Z" transform="translate(49.96 17.82)"/><path class="cls-30" d="M11.69,177.43a32,32,0,0,0-1.23-31s5.58,12,.91,27.92C8.14,185.38,11.69,177.43,11.69,177.43Z" transform="translate(49.96 17.82)"/><path class="cls-30" d="M12.86,183.46A32,32,0,0,0,3.8,153.83s8.43,10.15,8,26.77C11.46,192.06,12.86,183.46,12.86,183.46Z" transform="translate(49.96 17.82)"/><path class="cls-30" d="M10.54,175.58A32,32,0,0,0,6.4,144.87s6.68,11.38,3.53,27.7C7.77,183.83,10.54,175.58,10.54,175.58Z" transform="translate(49.96 17.82)"/><path class="cls-30" d="M25.26,173.36a32,32,0,0,1,1.22-31s-5.57,12-.9,27.91C28.81,181.32,25.26,173.36,25.26,173.36Z" transform="translate(49.96 17.82)"/><path class="cls-30" d="M28.67,169s-2.35-12.31.83-18.4c0,0-5.12,4.85-2.56,18.4Z" transform="translate(49.96 17.82)"/><path class="cls-30" d="M29.16,171.33s-4.84-11.57-3-18.18c0,0-4,5.79,1.29,18.53Z" transform="translate(49.96 17.82)"/><path class="cls-30" d="M11.1,175s-4.84-11.56-3-18.18c0,0-4,5.8,1.29,18.54Z" transform="translate(49.96 17.82)"/><path class="cls-30" d="M8.88,169.84S4,158.27,5.9,151.66c0,0-4,5.79,1.29,18.53Z" transform="translate(49.96 17.82)"/><path class="cls-30" d="M34.15,172.92s-.06-12.53,4.18-17.94c0,0-5.91,3.83-5.88,17.63Z" transform="translate(49.96 17.82)"/><path class="cls-30" d="M38.09,171.39s-.06-12.54,4.18-17.94c0,0-5.91,3.82-5.88,17.62Z" transform="translate(49.96 17.82)"/><path class="cls-30" d="M38.94,170.75s-3.88-11.92-1.5-18.36c0,0-4.46,5.45-.21,18.58Z" transform="translate(49.96 17.82)"/><path class="cls-30" d="M-3.09,167.81s0-18.41,12.45-24.65a26.06,26.06,0,0,0-8,26.21C4.08,180.24-3.09,167.81-3.09,167.81Z" transform="translate(49.96 17.82)"/><path class="cls-30" d="M-4.06,170.77s-4.15-18.57,9.58-33.23c0,0-8.61,11.28-8.45,30C-2.81,180.49-4.06,170.77-4.06,170.77Z" transform="translate(49.96 17.82)"/><path class="cls-30" d="M-2,176.24A40.09,40.09,0,0,1-.75,141.33s-5.57,13.49-.89,31.48C1.58,185.22-2,176.24-2,176.24Z" transform="translate(49.96 17.82)"/><path class="cls-30" d="M-10,175.21a40.16,40.16,0,0,1,1.21-34.92s-5.56,13.5-.89,31.48C-6.49,184.18-10,175.21-10,175.21Z" transform="translate(49.96 17.82)"/><path class="cls-30" d="M-9.46,179.4a39.82,39.82,0,0,1-2.89-34.79s-3.94,14.2,2.8,31.33C-4.9,187.76-9.46,179.4-9.46,179.4Z" transform="translate(49.96 17.82)"/><path class="cls-30" d="M-6.19,185.73a39.86,39.86,0,0,1-2.89-34.79s-3.93,14.2,2.81,31.33C-1.62,194.09-6.19,185.73-6.19,185.73Z" transform="translate(49.96 17.82)"/><path class="cls-30" d="M6,187.05a39.82,39.82,0,0,1-2.89-34.79s-3.94,14.21,2.8,31.34C10.58,195.42,6,187.05,6,187.05Z" transform="translate(49.96 17.82)"/><path class="cls-30" d="M6.56,176.24a40.11,40.11,0,0,1,1.22-34.91s-5.57,13.49-.9,31.48C10.1,185.22,6.56,176.24,6.56,176.24Z" transform="translate(49.96 17.82)"/><path class="cls-30" d="M5.38,183.05S1,164.57,14.45,149.64c0,0-8.44,11.45-8,30.18C6.78,192.75,5.38,183.05,5.38,183.05Z" transform="translate(49.96 17.82)"/><path class="cls-30" d="M7.7,174.16s-7-17.43,4.14-34.63c0,0-6.67,12.84-3.53,31.24C10.48,183.47,7.7,174.16,7.7,174.16Z" transform="translate(49.96 17.82)"/><path class="cls-30" d="M-7,171.66a40.12,40.12,0,0,0-1.21-34.92s5.56,13.5.89,31.48C-10.57,180.63-7,171.66-7,171.66Z" transform="translate(49.96 17.82)"/><path class="cls-30" d="M-10.42,166.71s2.35-13.88-.83-20.75c0,0,5.11,5.46,2.55,20.75Z" transform="translate(49.96 17.82)"/><path class="cls-30" d="M-10.91,169.37s4.84-13,3-20.5c0,0,4,6.53-1.29,20.9Z" transform="translate(49.96 17.82)"/><path class="cls-30" d="M7.14,173.49s4.84-13,3-20.5c0,0,4,6.53-1.29,20.9Z" transform="translate(49.96 17.82)"/><path class="cls-30" d="M9.36,167.69s4.84-13,3-20.5c0,0,4,6.53-1.29,20.9Z" transform="translate(49.96 17.82)"/><path class="cls-30" d="M-15.91,171.17s.06-14.14-4.18-20.23c0,0,5.92,4.31,5.88,19.87Z" transform="translate(49.96 17.82)"/><path class="cls-30" d="M-19.85,169.43s.06-14.13-4.18-20.23c0,0,5.92,4.32,5.88,19.88Z" transform="translate(49.96 17.82)"/><path class="cls-30" d="M-20.7,168.72s3.89-13.44,1.5-20.7c0,0,4.47,6.14.21,20.94Z" transform="translate(49.96 17.82)"/><path class="cls-30" d="M220.71,168.65s0-23.75,18.11-31.8c0,0-17.74,12.48-11.67,33.81C231.14,184.68,220.71,168.65,220.71,168.65Z" transform="translate(49.96 17.82)"/><path class="cls-30" d="M219.3,172.47a46.55,46.55,0,0,1,13.93-42.87S220.71,144.15,221,168.33C221.12,185,219.3,172.47,219.3,172.47Z" transform="translate(49.96 17.82)"/><path class="cls-30" d="M222.36,179.53a46.54,46.54,0,0,1,1.76-45s-8.1,17.41-1.3,40.61C227.51,191.1,222.36,179.53,222.36,179.53Z" transform="translate(49.96 17.82)"/><path class="cls-30" d="M210.61,178.2a46.54,46.54,0,0,1,1.76-45s-8.1,17.4-1.3,40.6C215.76,189.77,210.61,178.2,210.61,178.2Z" transform="translate(49.96 17.82)"/><path class="cls-30" d="M211.44,183.6a46.57,46.57,0,0,1-4.2-44.88s-5.73,18.32,4.08,40.42C218.08,194.39,211.44,183.6,211.44,183.6Z" transform="translate(49.96 17.82)"/><path class="cls-30" d="M216.21,191.76a46.52,46.52,0,0,1-4.2-44.87s-5.73,18.32,4.07,40.42C222.85,202.55,216.21,191.76,216.21,191.76Z" transform="translate(49.96 17.82)"/><path class="cls-30" d="M234,193.47a46.54,46.54,0,0,1-4.21-44.87S224,166.92,233.84,189C240.6,204.26,234,193.47,234,193.47Z" transform="translate(49.96 17.82)"/><path class="cls-30" d="M234.75,179.53a46.56,46.56,0,0,1,1.77-45s-8.1,17.41-1.31,40.61C239.9,191.11,234.75,179.53,234.75,179.53Z" transform="translate(49.96 17.82)"/><path class="cls-30" d="M233,188.31a46.56,46.56,0,0,1,13.18-43.1S234,160,234.62,184.14C235.08,200.82,233,188.31,233,188.31Z" transform="translate(49.96 17.82)"/><path class="cls-30" d="M236.41,176.84a46.56,46.56,0,0,1,6-44.67s-9.71,16.56-5.14,40.3C240.45,188.85,236.41,176.84,236.41,176.84Z" transform="translate(49.96 17.82)"/><path class="cls-30" d="M215,173.62a46.54,46.54,0,0,0-1.76-45s8.1,17.41,1.3,40.6C209.84,185.19,215,173.62,215,173.62Z" transform="translate(49.96 17.82)"/><path class="cls-30" d="M210,167.24s3.43-17.91-1.2-26.77c0,0,7.44,7,3.72,26.77Z" transform="translate(49.96 17.82)"/><path class="cls-30" d="M209.33,170.66s7-16.82,4.34-26.44c0,0,5.83,8.43-1.88,27Z" transform="translate(49.96 17.82)"/><path class="cls-30" d="M235.6,176s7-16.82,4.33-26.44c0,0,5.84,8.43-1.87,27Z" transform="translate(49.96 17.82)"/><path class="cls-30" d="M238.82,168.49s7-16.82,4.34-26.44c0,0,5.83,8.43-1.88,27Z" transform="translate(49.96 17.82)"/><path class="cls-30" d="M202.06,173s.09-18.23-6.08-26.09c0,0,8.61,5.56,8.56,25.63Z" transform="translate(49.96 17.82)"/><path class="cls-30" d="M196.33,170.75s.09-18.24-6.08-26.1c0,0,8.61,5.56,8.55,25.64Z" transform="translate(49.96 17.82)"/><path class="cls-30" d="M195.1,169.82s5.65-17.33,2.18-26.7c0,0,6.5,7.93.31,27Z" transform="translate(49.96 17.82)"/><path class="cls-30" d="M236.81,167.34s0-19.74,15.06-26.44c0,0-14.75,10.38-9.7,28.12C245.49,180.68,236.81,167.34,236.81,167.34Z" transform="translate(49.96 17.82)"/><path class="cls-30" d="M235.64,170.52a38.69,38.69,0,0,1,11.59-35.64S236.81,147,237,167.08C237.15,181,235.64,170.52,235.64,170.52Z" transform="translate(49.96 17.82)"/><path class="cls-30" d="M238.18,176.4a38.72,38.72,0,0,1,1.47-37.46s-6.74,14.48-1.08,33.77C242.47,186,238.18,176.4,238.18,176.4Z" transform="translate(49.96 17.82)"/><path class="cls-30" d="M228.41,175.28a38.7,38.7,0,0,1,1.47-37.45s-6.74,14.48-1.08,33.77C232.7,184.91,228.41,175.28,228.41,175.28Z" transform="translate(49.96 17.82)"/><path class="cls-30" d="M229.11,179.78a38.71,38.71,0,0,1-3.5-37.32s-4.76,15.24,3.39,33.61C234.63,188.75,229.11,179.78,229.11,179.78Z" transform="translate(49.96 17.82)"/><path class="cls-30" d="M233.07,186.57a38.71,38.71,0,0,1-3.5-37.32s-4.76,15.24,3.39,33.61C238.59,195.54,233.07,186.57,233.07,186.57Z" transform="translate(49.96 17.82)"/><path class="cls-30" d="M247.83,188a38.71,38.71,0,0,1-3.49-37.32s-4.76,15.24,3.39,33.61C253.36,197,247.83,188,247.83,188Z" transform="translate(49.96 17.82)"/><path class="cls-30" d="M248.48,176.4A38.74,38.74,0,0,1,250,138.94s-6.74,14.48-1.09,33.77C252.77,186,248.48,176.4,248.48,176.4Z" transform="translate(49.96 17.82)"/><path class="cls-30" d="M247.06,183.7a38.71,38.71,0,0,1,11-35.84s-10.2,12.28-9.65,32.37C248.76,194.1,247.06,183.7,247.06,183.7Z" transform="translate(49.96 17.82)"/><path class="cls-30" d="M249.87,174.16a38.71,38.71,0,0,1,5-37.15s-8.08,13.77-4.28,33.51C253.22,184.15,249.87,174.16,249.87,174.16Z" transform="translate(49.96 17.82)"/><path class="cls-30" d="M232.06,171.48A38.7,38.7,0,0,0,230.59,134s6.74,14.47,1.08,33.76C227.77,181.1,232.06,171.48,232.06,171.48Z" transform="translate(49.96 17.82)"/><path class="cls-30" d="M227.94,166.17s2.85-14.89-1-22.26c0,0,6.19,5.86,3.09,22.26Z" transform="translate(49.96 17.82)"/><path class="cls-30" d="M227.35,169s5.86-14,3.61-22c0,0,4.85,7-1.56,22.42Z" transform="translate(49.96 17.82)"/><path class="cls-30" d="M249.19,173.44s5.86-14,3.61-22c0,0,4.85,7-1.56,22.42Z" transform="translate(49.96 17.82)"/><path class="cls-30" d="M251.87,167.22s5.86-14,3.61-22c0,0,4.85,7-1.56,22.42Z" transform="translate(49.96 17.82)"/><path class="cls-30" d="M221.31,171s.07-15.16-5.06-21.7c0,0,7.16,4.63,7.11,21.32Z" transform="translate(49.96 17.82)"/><path class="cls-30" d="M216.54,169.09s.07-15.16-5.06-21.7c0,0,7.16,4.63,7.12,21.32Z" transform="translate(49.96 17.82)"/><path class="cls-30" d="M215.51,168.32s4.71-14.41,1.82-22.2c0,0,5.4,6.59.26,22.47Z" transform="translate(49.96 17.82)"/><path class="cls-30" d="M183.49,166.92s0-16.32,12.45-21.86c0,0-12.19,8.58-8,23.24C190.66,178,183.49,166.92,183.49,166.92Z" transform="translate(49.96 17.82)"/><path class="cls-30" d="M182.52,169.55a32,32,0,0,1,9.58-29.47s-8.61,10-8.44,26.62C183.77,178.17,182.52,169.55,182.52,169.55Z" transform="translate(49.96 17.82)"/><path class="cls-30" d="M184.62,174.41a32,32,0,0,1,1.22-31s-5.57,12-.9,27.92C188.17,182.36,184.62,174.41,184.62,174.41Z" transform="translate(49.96 17.82)"/><path class="cls-30" d="M176.55,173.49a32,32,0,0,1,1.21-31s-5.57,12-.89,27.92C180.09,181.44,176.55,173.49,176.55,173.49Z" transform="translate(49.96 17.82)"/><path class="cls-30" d="M177.12,177.2a32,32,0,0,1-2.89-30.85s-3.94,12.6,2.8,27.79C181.69,184.62,177.12,177.2,177.12,177.2Z" transform="translate(49.96 17.82)"/><path class="cls-30" d="M180.4,182.81A32,32,0,0,1,177.51,152s-3.94,12.6,2.8,27.79C185,190.23,180.4,182.81,180.4,182.81Z" transform="translate(49.96 17.82)"/><path class="cls-30" d="M192.61,184a32,32,0,0,1-2.89-30.85s-3.94,12.59,2.8,27.78C197.17,191.41,192.61,184,192.61,184Z" transform="translate(49.96 17.82)"/><path class="cls-30" d="M193.14,174.4a32,32,0,0,1,1.22-31s-5.57,12-.9,27.92C196.68,182.36,193.14,174.4,193.14,174.4Z" transform="translate(49.96 17.82)"/><path class="cls-30" d="M192,180.44A32,32,0,0,1,201,150.81s-8.43,10.15-8,26.76C193.37,189,192,180.44,192,180.44Z" transform="translate(49.96 17.82)"/><path class="cls-30" d="M194.29,172.56a32,32,0,0,1,4.14-30.71s-6.68,11.38-3.54,27.7C197.06,180.81,194.29,172.56,194.29,172.56Z" transform="translate(49.96 17.82)"/><path class="cls-30" d="M179.56,170.34a32,32,0,0,0-1.21-31s5.57,12,.89,27.91C176,178.3,179.56,170.34,179.56,170.34Z" transform="translate(49.96 17.82)"/><path class="cls-30" d="M176.16,166s2.35-12.31-.83-18.4c0,0,5.12,4.84,2.56,18.4Z" transform="translate(49.96 17.82)"/><path class="cls-30" d="M175.67,168.3s4.84-11.56,3-18.17c0,0,4,5.79-1.29,18.53Z" transform="translate(49.96 17.82)"/><path class="cls-30" d="M193.73,172s4.84-11.57,3-18.18c0,0,4,5.79-1.29,18.53Z" transform="translate(49.96 17.82)"/><path class="cls-30" d="M195.94,166.82s4.85-11.57,3-18.18c0,0,4,5.79-1.29,18.53Z" transform="translate(49.96 17.82)"/><path class="cls-30" d="M170.67,169.9s.07-12.53-4.18-17.94c0,0,5.92,3.83,5.88,17.63Z" transform="translate(49.96 17.82)"/><path class="cls-30" d="M166.73,168.36s.06-12.53-4.18-17.93c0,0,5.92,3.82,5.88,17.62Z" transform="translate(49.96 17.82)"/><path class="cls-30" d="M165.88,167.73s3.89-11.92,1.5-18.36c0,0,4.47,5.45.22,18.58Z" transform="translate(49.96 17.82)"/><path class="cls-30" d="M157.69,170.57s0-16.32,12.46-21.86c0,0-12.2,8.58-8,23.25C164.87,181.6,157.69,170.57,157.69,170.57Z" transform="translate(49.96 17.82)"/><path class="cls-30" d="M156.73,173.2a32,32,0,0,1,9.57-29.47s-8.61,10-8.44,26.63C158,181.82,156.73,173.2,156.73,173.2Z" transform="translate(49.96 17.82)"/><path class="cls-30" d="M158.83,178.06a32,32,0,0,1,1.21-31s-5.57,12-.9,27.91C162.37,186,158.83,178.06,158.83,178.06Z" transform="translate(49.96 17.82)"/><path class="cls-30" d="M150.75,177.14a32,32,0,0,1,1.21-31s-5.57,12-.89,27.91C154.29,185.1,150.75,177.14,150.75,177.14Z" transform="translate(49.96 17.82)"/><path class="cls-30" d="M151.32,180.85A32,32,0,0,1,148.43,150s-3.93,12.6,2.81,27.79C155.89,188.27,151.32,180.85,151.32,180.85Z" transform="translate(49.96 17.82)"/><path class="cls-30" d="M154.6,186.47a32,32,0,0,1-2.89-30.85s-3.94,12.59,2.8,27.78C159.16,193.88,154.6,186.47,154.6,186.47Z" transform="translate(49.96 17.82)"/><path class="cls-30" d="M166.81,187.64a32,32,0,0,1-2.89-30.85s-3.94,12.6,2.8,27.79C171.37,195.06,166.81,187.64,166.81,187.64Z" transform="translate(49.96 17.82)"/><path class="cls-30" d="M167.34,178.06a32,32,0,0,1,1.23-31s-5.58,12-.91,27.91C170.89,186,167.34,178.06,167.34,178.06Z" transform="translate(49.96 17.82)"/><path class="cls-30" d="M166.17,184.1a32,32,0,0,1,9.06-29.64s-8.43,10.16-8,26.77C167.57,192.69,166.17,184.1,166.17,184.1Z" transform="translate(49.96 17.82)"/><path class="cls-30" d="M168.49,176.21a32,32,0,0,1,4.14-30.71s-6.68,11.38-3.54,27.7C171.26,184.46,168.49,176.21,168.49,176.21Z" transform="translate(49.96 17.82)"/><path class="cls-30" d="M153.77,174a32,32,0,0,0-1.22-31s5.57,12,.9,27.91C150.22,182,153.77,174,153.77,174Z" transform="translate(49.96 17.82)"/><path class="cls-30" d="M150.36,169.61s2.35-12.32-.83-18.41c0,0,5.12,4.85,2.56,18.41Z" transform="translate(49.96 17.82)"/><path class="cls-30" d="M149.87,172s4.84-11.57,3-18.18c0,0,4,5.79-1.29,18.53Z" transform="translate(49.96 17.82)"/><path class="cls-30" d="M167.93,175.61s4.84-11.56,3-18.18c0,0,4,5.8-1.29,18.54Z" transform="translate(49.96 17.82)"/><path class="cls-30" d="M170.15,170.47s4.84-11.56,3-18.18c0,0,4,5.8-1.29,18.54Z" transform="translate(49.96 17.82)"/><path class="cls-30" d="M144.88,173.55s.06-12.53-4.18-17.93c0,0,5.91,3.82,5.88,17.62Z" transform="translate(49.96 17.82)"/><path class="cls-30" d="M140.94,172s.06-12.54-4.18-17.94c0,0,5.91,3.82,5.88,17.62Z" transform="translate(49.96 17.82)"/><path class="cls-30" d="M140.09,171.38s3.88-11.91,1.5-18.36c0,0,4.46,5.45.21,18.58Z" transform="translate(49.96 17.82)"/><path class="cls-30" d="M132.17,170.94s-1.47-8.71,4.68-12.78c0,0-5.74,5.67-2.19,13.12C137,176.17,132.17,170.94,132.17,170.94Z" transform="translate(49.96 17.82)"/><path class="cls-30" d="M131.89,172.43a17.32,17.32,0,0,1,2.46-16.58,23,23,0,0,0-2.11,15C133.33,176.91,131.89,172.43,131.89,172.43Z" transform="translate(49.96 17.82)"/><path class="cls-30" d="M133.45,174.83a17.32,17.32,0,0,1-2.14-16.63,23,23,0,0,0,2,15C136.05,178.75,133.45,174.83,133.45,174.83Z" transform="translate(49.96 17.82)"/><path class="cls-30" d="M129.06,175.07a17.32,17.32,0,0,1-2.14-16.63,23,23,0,0,0,2,15C131.66,179,129.06,175.07,129.06,175.07Z" transform="translate(49.96 17.82)"/><path class="cls-30" d="M129.7,177a17.32,17.32,0,0,1-4.32-16.2,23,23,0,0,0,4,14.57C132.8,180.54,129.7,177,129.7,177Z" transform="translate(49.96 17.82)"/><path class="cls-30" d="M132,179.69a17.29,17.29,0,0,1-4.32-16.19,23.06,23.06,0,0,0,4,14.57C135.05,183.24,132,179.69,132,179.69Z" transform="translate(49.96 17.82)"/><path class="cls-30" d="M138.57,179.22A17.29,17.29,0,0,1,134.25,163a23,23,0,0,0,4,14.57C141.67,182.77,138.57,179.22,138.57,179.22Z" transform="translate(49.96 17.82)"/><path class="cls-30" d="M138,174.06a17.29,17.29,0,0,1-2.13-16.62,23,23,0,0,0,2,15C140.6,178,138,174.06,138,174.06Z" transform="translate(49.96 17.82)"/><path class="cls-30" d="M137.91,177.39a17.31,17.31,0,0,1,2.17-16.62,23,23,0,0,0-1.85,15C139.43,181.85,137.91,177.39,137.91,177.39Z" transform="translate(49.96 17.82)"/><path class="cls-30" d="M138.43,173a17.31,17.31,0,0,1-.55-16.75,23,23,0,0,0,.61,15.1C140.66,177.13,138.43,173,138.43,173Z" transform="translate(49.96 17.82)"/><path class="cls-30" d="M130.38,173.12A17.33,17.33,0,0,0,127,156.71a23,23,0,0,1,3,14.81C129.21,177.68,130.38,173.12,130.38,173.12Z" transform="translate(49.96 17.82)"/><path class="cls-30" d="M128.17,171.08s.15-6.78-2.1-9.74c0,0,3.17,2.12,3,9.59Z" transform="translate(49.96 17.82)"/><path class="cls-30" d="M128.12,172.38s1.54-6.6,0-10c0,0,2.66,2.73,1,10Z" transform="translate(49.96 17.82)"/><path class="cls-30" d="M138.08,172.71s1.54-6.61,0-10c0,0,2.66,2.73,1,10Z" transform="translate(49.96 17.82)"/><path class="cls-30" d="M138.8,169.76s1.55-6.6,0-10c0,0,2.66,2.73,1,10Z" transform="translate(49.96 17.82)"/><path class="cls-30" d="M125.6,173.68s-1.09-6.69-3.84-9.19c0,0,3.5,1.51,4.72,8.87Z" transform="translate(49.96 17.82)"/><path class="cls-30" d="M123.36,173.22s-1.09-6.7-3.84-9.2c0,0,3.5,1.51,4.72,8.87Z" transform="translate(49.96 17.82)"/><path class="cls-30" d="M122.85,173s1-6.7-.85-9.92c0,0,2.87,2.5,1.78,9.89Z" transform="translate(49.96 17.82)"/><path class="cls-30" d="M112.59,164.44s2.71-12.71-8.65-18.66c0,0,10.6,8.28,4,19.16C103.68,172.08,112.59,164.44,112.59,164.44Z" transform="translate(49.96 17.82)"/><path class="cls-30" d="M113.1,166.61s6.83-12.27-4.54-24.2a27.8,27.8,0,0,1,3.9,21.84C110.44,173.16,113.1,166.61,113.1,166.61Z" transform="translate(49.96 17.82)"/><path class="cls-30" d="M110.23,170.12s10.79-10.35,4-24.27c0,0,3.5,10.05-3.76,21.85C105.41,175.85,110.23,170.12,110.23,170.12Z" transform="translate(49.96 17.82)"/><path class="cls-30" d="M118.34,170.46s10.8-10.35,4-24.27c0,0,3.51,10.05-3.76,21.86C113.52,176.19,118.34,170.46,118.34,170.46Z" transform="translate(49.96 17.82)"/><path class="cls-30" d="M117.16,173.28s12.43-9.13,8-23.65c0,0,1.79,10.33-7.39,21.28C111.42,178.46,117.16,173.28,117.16,173.28Z" transform="translate(49.96 17.82)"/><path class="cls-30" d="M113,177.22s12.44-9.13,8-23.64c0,0,1.79,10.32-7.38,21.27C107.26,182.4,113,177.22,113,177.22Z" transform="translate(49.96 17.82)"/><path class="cls-30" d="M100.76,176.53s12.43-9.13,8-23.64c0,0,1.79,10.33-7.38,21.27C95,181.71,100.76,176.53,100.76,176.53Z" transform="translate(49.96 17.82)"/><path class="cls-30" d="M101.82,169s10.8-10.35,4-24.27c0,0,3.5,10.05-3.75,21.85C97,174.73,101.82,169,101.82,169Z" transform="translate(49.96 17.82)"/><path class="cls-30" d="M102,173.86s7.1-12.18-4-24.27a27.63,27.63,0,0,1,3.42,21.89C99.17,180.37,102,173.86,102,173.86Z" transform="translate(49.96 17.82)"/><path class="cls-30" d="M101,167.41s9.51-11.11,1-24.46c0,0,4.69,9.74-1.12,22C96.9,173.47,101,167.41,101,167.41Z" transform="translate(49.96 17.82)"/><path class="cls-30" d="M115.89,167.62s-5.9-12.58,6.34-24a28.33,28.33,0,0,0-5.52,21.62C118.06,174.28,115.89,167.62,115.89,167.62Z" transform="translate(49.96 17.82)"/><path class="cls-30" d="M120,164.65s-.28-9.9,3.87-14.22c0,0-5.85,3.1-5.58,14Z" transform="translate(49.96 17.82)"/><path class="cls-30" d="M120.07,166.54s-2.85-9.64.08-14.54c0,0-4.92,4-1.81,14.6Z" transform="translate(49.96 17.82)"/><path class="cls-30" d="M101.66,167s-2.86-9.64.08-14.55c0,0-4.92,4-1.81,14.6Z" transform="translate(49.96 17.82)"/><path class="cls-30" d="M100.32,162.72s-2.85-9.64.08-14.54c0,0-4.91,4-1.8,14.6Z" transform="translate(49.96 17.82)"/><path class="cls-30" d="M124.73,168.44s2-9.77,7.1-13.42c0,0-6.47,2.2-8.72,12.95Z" transform="translate(49.96 17.82)"/><path class="cls-30" d="M128.87,167.76s2-9.77,7.11-13.42c0,0-6.48,2.2-8.73,12.95Z" transform="translate(49.96 17.82)"/><path class="cls-30" d="M129.82,167.38s-1.86-9.79,1.57-14.49c0,0-5.31,3.66-3.3,14.44Z" transform="translate(49.96 17.82)"/><path class="cls-30" d="M251.75,62.34l-.19,2.83,1.82.12-2.23,6.15,4.38-1.74L253.18,73l2.13.13-.16,2.43A6.21,6.21,0,0,0,259,73.8s0,3.88-3.58,5A25,25,0,0,0,259,77.68s-1.08,3.18-3.69,3c0,0-1.3.67,2.61.18,0,0-1.5,1.9-6.57,1.07,0,0,5.2,2.75,9.58.7a5.35,5.35,0,0,1-2.15,2.28,3,3,0,0,0,2.39-.22s-1.54,1.94-5.29.66a2.27,2.27,0,0,0,1.88,1.2c1.37.09-1,.73-3.82-.87s-3.18-1.13-3.18-1.13-.83,2.49,3.73,2.87,8.13.66,8.34.55-.18,1.49-3.73,2.26a2.41,2.41,0,0,0,2.24.14s.21,1.31-2,1.21-2.33.47-1.25.5-.19,1-1.48,1-2.1.94-.54,1,4.6-1.32,4.6-1.32-.31,1.6-1,1.56,1.83.24,2.81-.78-.4,1.48-1.71,1.81,3.59.53,4.2-.56a3.85,3.85,0,0,1-3.52,2.77c-3,.39.11.88.11.88a6.14,6.14,0,0,1-4.26,1.43s-1.77.93.14,1a15.08,15.08,0,0,0,3.69-.25s0,1-2.35,1.38,4.48.38,5.77-.79a8.4,8.4,0,0,1-4.38,3.26,4.52,4.52,0,0,0,3.45-.57,6.5,6.5,0,0,1-4.4,2.22s-.83,1.28,2.22,1.1,4.78-.4,4.78-.4a4,4,0,0,1-3.21,1.88,4.06,4.06,0,0,0,2.23.39s-1.18,1.47-4,1.07l-2.88-.52a2.22,2.22,0,0,0,2.27,2.19c2.29.11.94.94-1,.81s3,1.91,5.12,1.38-.3.81-.3.81,2,1.21,3.05.49-2.1,4.67-7.11,2.94-.11.93-.11.93a16.31,16.31,0,0,1-4.83-2c-1.71-1.23.66,2.13,2.77,2.35s.45,1.36.45,1.36,4.89,2.91,9.93,2.32l-2.42,1.43,3.1,1h-6.17l2.52,1-4.29.64,2.57.16-7.35.27s-2.52,1.59,3.37,2l9.71.63s1.37,2-.87,1.81,1.09,1.07,1.09,1.07a16.77,16.77,0,0,0-3-.19c-.93.11,1.5,1.18,1.5,1.18a15.77,15.77,0,0,0-3.73-.24c-1.93.12-1,1.68-1,1.68l-1.74-.11s.55,1.7,4.7,2l7.39.48s0,2.84-3.59,2.6a7.62,7.62,0,0,0,3.32,1.55,18.15,18.15,0,0,1-5.68.13l2.51,1.17-4-.26s-.46,1.88,3.61,2.15,1.7.78,1.7.78-.32,1.06.92,1.14-1.78.47-3.69.34,1.14,1.66,1.14,1.66l-3.65-.24s-2.9,3.56,2.87,4.52a10.57,10.57,0,0,0,5.4.36,8.17,8.17,0,0,1-2.55.66,5.36,5.36,0,0,0,4.86,1s-.7,1.79-3.64,2a5.11,5.11,0,0,0,3.46.64,8.12,8.12,0,0,1-7,1.63,2.6,2.6,0,0,0,2.53,2.08c2.24.15-7.83,1.24-10.87-.71l4.5,2.54s-7.07,1-10.79-3.29l1.18,2.33s-5-2.41-6.89-4.12c0,0-2.69,4.12-7,3.82l-.51-1.14a5.67,5.67,0,0,1-5.32,2.24l2-2.79s-1.76,2.72-6.91,2.47l2.47-2.09s-2.72,3.32-8,1.72l2.73-1.07s-6.22.84-9-1.5c0,0,5-.42,8.22-2.13a21.3,21.3,0,0,0,4.62-3.12s-5.81,3.54-10.61,1.64l2.65-.91s-5.16,1.16-6.17-.07l3.08-1.13-2.18-1.14s1.44-.33,3.56-.94l-2.35-2.32a11.77,11.77,0,0,0,3.41.23c2.25-.11,10.13-3.34,10.13-3.34l-5.42.06,2.19-1.52s-5.87,1.78-8.14.8l3.27-1.54s-4.47,2-6.15.93l2.63-2-3.23-.3s13.54-3.11,14.8-5.86c0,0-5.05,2.08-8.28,1.79l2-1.79s-3.44,1.7-5.41,1.23l2.49-2.42h-2.75l1.2-1.76-3,.56s6.07-2.14,8.14-4.5a21,21,0,0,1-5.34.06s7.21-3.27,8-5.55c0,0-3.08,2.54-6.47,2.07l7.26-5.19-3.8.75,5.87-4.45s4.7-2.94-.51-2.28-6-1.73-6-1.73l3.94-.24-4.68-1.14s7.4.24,10.1-1.42a8.12,8.12,0,0,0,3.43-4.11s-3,3-6.85,2.8L235,109s-3.85,1.58-5.59,1.47l6.59-4-3.62.6a23.14,23.14,0,0,0,8.25-3.88c3.61-2.84,3-3.72,3-3.72s-4.5,2.46-8.07,2.31.27-1.57.27-1.57l-4.55-.55s8.46-1.94,11.7-4.23,0-1.17-1.8-.54-5.62.47-6.93.22,7.5-2.6,9.81-4.86,1.59-2.42-.39-1.69c-7.73,2.84-6.66.24-7.07.21s3.95-.92,3.95-.92L236.73,86a64.31,64.31,0,0,0,6.44-1.06c2.22-.86,3.33-3.31.73-3.17-5,.27-6.31-1.18-6.31-1.18l6.54-1.9-3.91-.92,6-1s-5.23-2.14-5.15-3.31,3.08,1.29,6.4,1.51c0,0-.51-1.12-1.61-3.36s.61-.38,1.85-.3-.07-2.75-.07-2.75,0,.17,1.48.26-.64-1.62-.61-3.37.71-.7,1.5,0S251.75,62.34,251.75,62.34Z" transform="translate(49.96 17.82)"/><path class="cls-30" d="M46.91,108.1l-.19,2.83,1.82.12-2.23,6.15,4.38-1.75-2.35,3.3,2.13.14-.16,2.43a6.21,6.21,0,0,0,3.86-1.76s0,3.87-3.58,5a23.47,23.47,0,0,0,3.57-1.14s-1.08,3.18-3.69,3c0,0-1.3.67,2.61.17,0,0-1.5,1.9-6.57,1.07,0,0,5.2,2.75,9.58.71a5.35,5.35,0,0,1-2.15,2.28,3.05,3.05,0,0,0,2.39-.22s-1.54,1.94-5.29.65a2.27,2.27,0,0,0,1.88,1.21c1.37.09-1,.73-3.82-.88s-3.18-1.12-3.18-1.12-.83,2.49,3.73,2.87,8.13.66,8.34.54-.18,1.49-3.73,2.26a2.43,2.43,0,0,0,2.24.15s.21,1.3-2,1.2-2.33.47-1.25.5-.19,1-1.48,1-2.1.95-.54,1,4.6-1.33,4.6-1.33-.31,1.61-1,1.57,1.83.24,2.81-.78-.4,1.47-1.72,1.8,3.6.53,4.21-.55a3.87,3.87,0,0,1-3.52,2.77c-3,.38.11.88.11.88a6.2,6.2,0,0,1-4.26,1.43s-1.77.93.14,1.05a15.37,15.37,0,0,0,3.69-.26s0,1-2.35,1.39,4.48.38,5.77-.79a8.46,8.46,0,0,1-4.38,3.26,4.57,4.57,0,0,0,3.45-.57,6.47,6.47,0,0,1-4.4,2.21s-.83,1.28,2.22,1.11,4.78-.4,4.78-.4a4,4,0,0,1-3.21,1.87,4.12,4.12,0,0,0,2.23.4s-1.18,1.46-4,1.07l-2.88-.52a2.22,2.22,0,0,0,2.27,2.19c2.29.11.94.93-1,.81s3,1.9,5.12,1.37-.31.82-.31.82,2,1.21,3.06.49-2.1,4.67-7.11,2.94-.11.92-.11.92a16.17,16.17,0,0,1-4.83-1.94c-1.71-1.24.66,2.13,2.77,2.35s.45,1.36.45,1.36,4.89,2.9,9.93,2.32l-2.42,1.42,3.1.95-6.17,0,2.52,1-4.29.63,2.57.17-7.35.27s-2.52,1.59,3.37,2l9.71.64s1.37,1.95-.87,1.81S65,179.06,65,179.06a17.49,17.49,0,0,0-3-.2c-.93.11,1.5,1.19,1.5,1.19a16.09,16.09,0,0,0-3.73-.25c-1.93.13-1,1.69-1,1.69L57,181.37s.55,1.7,4.7,2l7.39.48s0,2.83-3.59,2.6A7.74,7.74,0,0,0,68.86,188a18.48,18.48,0,0,1-5.68.13l2.51,1.16-4-.26s-.46,1.89,3.61,2.15,1.7.78,1.7.78-.32,1.06.92,1.15-1.78.46-3.69.34,1.14,1.66,1.14,1.66l-3.65-.24s-2.9,3.56,2.87,4.52a10.5,10.5,0,0,0,5.4.35,8,8,0,0,1-2.55.67,5.37,5.37,0,0,0,4.86,1s-.7,1.79-3.64,2a5.18,5.18,0,0,0,3.46.64,8.1,8.1,0,0,1-7,1.62,2.6,2.6,0,0,0,2.53,2.09c2.24.14-7.83,1.23-10.87-.72l4.5,2.55s-7.07,1-10.79-3.29l1.18,2.33s-5-2.41-6.89-4.12c0,0-2.69,4.11-7,3.81l-.5-1.13A5.67,5.67,0,0,1,32,209.4l2-2.78s-1.76,2.71-6.91,2.46L29.53,207s-2.72,3.33-8,1.73l2.73-1.07s-6.22.84-9-1.51c0,0,5-.42,8.22-2.13a21.54,21.54,0,0,0,4.62-3.11s-5.81,3.53-10.61,1.64l2.65-.91S15,202.79,14,201.56L17,200.43l-2.18-1.15s1.44-.32,3.56-.93L16.07,196a12.08,12.08,0,0,0,3.41.22c2.25-.1,10.13-3.34,10.13-3.34l-5.42.07,2.19-1.53s-5.87,1.78-8.14.8l3.27-1.53s-4.47,2-6.15.93l2.63-2-3.23-.29s13.54-3.12,14.8-5.87c0,0-5,2.09-8.28,1.79l2-1.78s-3.44,1.69-5.41,1.23l2.49-2.42H17.64l1.2-1.76-3,.56S22,179,24,176.59a20.79,20.79,0,0,1-5.34.07s7.21-3.28,8-5.56c0,0-3.08,2.55-6.47,2.08L27.5,168l-3.8.75,5.87-4.45s4.7-2.95-.51-2.29-6-1.72-6-1.72L27,160l-4.68-1.14s7.4.23,10.1-1.43a8.08,8.08,0,0,0,3.43-4.11s-3,3.06-6.85,2.81l1.09-1.43s-3.85,1.58-5.59,1.47l6.59-4-3.62.6a23.14,23.14,0,0,0,8.25-3.88c3.61-2.85,3-3.72,3-3.72s-4.5,2.45-8.07,2.3.27-1.56.27-1.56l-4.55-.55s8.46-1.95,11.69-4.24,0-1.16-1.79-.53a18.47,18.47,0,0,1-6.94.21c-1.31-.25,7.51-2.59,9.82-4.86s1.59-2.41-.39-1.69c-7.73,2.85-6.66.24-7.07.21s3.95-.91,3.95-.91l-3.77-1.88a62,62,0,0,0,6.44-1.07c2.22-.85,3.33-3.3.73-3.16-5,.26-6.31-1.19-6.31-1.19l6.54-1.9-3.91-.91,6-1s-5.23-2.14-5.15-3.3,3.08,1.28,6.4,1.5c0,0-.51-1.12-1.61-3.35s.61-.38,1.85-.3-.07-2.76-.07-2.76,0,.17,1.48.27-.64-1.63-.61-3.38.71-.7,1.5,0S46.91,108.1,46.91,108.1Z" transform="translate(49.96 17.82)"/><path class="cls-30" d="M-10,21.54-10.27,25l2.21.14-2.71,7.45,5.31-2.11-2.85,4,2.58.16-.2,3a7.49,7.49,0,0,0,4.68-2.14s0,4.7-4.34,6.08a28.77,28.77,0,0,0,4.34-1.38S-2.57,44-5.73,43.76c0,0-1.57.81,3.16.21,0,0-1.81,2.3-8,1.3,0,0,6.3,3.33,11.61.85a6.53,6.53,0,0,1-2.6,2.76,3.65,3.65,0,0,0,2.89-.26S-.5,51-5,49.41a2.75,2.75,0,0,0,2.28,1.46c1.65.11-1.22.88-4.63-1.06s-3.85-1.36-3.85-1.36-1,3,4.52,3.48,9.84.79,10.1.66-.22,1.8-4.52,2.73a2.93,2.93,0,0,0,2.72.18S1.83,57.08-.84,57s-2.81.57-1.5.6-.24,1.25-1.8,1.25S-6.69,60-4.8,60s5.58-1.6,5.58-1.6S.4,60.37-.4,60.32s2.22.29,3.4-.94S2.52,61.16.93,61.57s4.35.63,5.09-.68a4.67,4.67,0,0,1-4.26,3.36c-3.66.46.13,1.06.13,1.06a7.44,7.44,0,0,1-5.16,1.74s-2.14,1.12.17,1.27A18.52,18.52,0,0,0,1.37,68s0,1.16-2.84,1.68,5.42.45,7-1a10.2,10.2,0,0,1-5.31,4A5.54,5.54,0,0,0,4.39,72,7.86,7.86,0,0,1-.94,74.67s-1,1.55,2.69,1.34,5.79-.48,5.79-.48A4.9,4.9,0,0,1,3.65,77.8a5,5,0,0,0,2.7.48s-1.43,1.77-4.88,1.29L-2,78.94A2.7,2.7,0,0,0,.73,81.6c2.77.13,1.14,1.13-1.23,1s3.64,2.3,6.21,1.66-.37,1-.37,1,2.38,1.47,3.7.59S6.49,91.48.42,89.38.3,90.5.3,90.5a19.76,19.76,0,0,1-5.86-2.35c-2.07-1.5.79,2.58,3.35,2.85s.55,1.65.55,1.65,5.93,3.52,12,2.8L7.43,97.18l3.77,1.15-7.48,0,3,1.21-5.2.77,3.12.2-8.91.33s-3,1.92,4.09,2.39l11.76.77s1.66,2.37-1.06,2.19,1.33,1.3,1.33,1.3a20.74,20.74,0,0,0-3.62-.23c-1.12.12,1.83,1.43,1.83,1.43a19.32,19.32,0,0,0-4.53-.3c-2.33.15-1.24,2-1.24,2l-2.11-.14s.67,2.07,5.7,2.4l9,.58s0,3.43-4.35,3.15c0,0,2.21,1.76,4,1.88a22.19,22.19,0,0,1-6.88.15l3,1.41-4.83-.31s-.55,2.28,4.38,2.61,2.06.94,2.06.94-.39,1.29,1.12,1.39-2.16.56-4.47.41,1.38,2,1.38,2l-4.42-.29S4.41,131,11.4,132.12a12.77,12.77,0,0,0,6.54.42,9.56,9.56,0,0,1-3.08.81,6.48,6.48,0,0,0,5.88,1.2s-.85,2.16-4.4,2.43a6.21,6.21,0,0,0,4.19.78,9.84,9.84,0,0,1-8.51,2,3.13,3.13,0,0,0,3.06,2.52c2.72.18-9.48,1.5-13.17-.86l5.46,3.09s-8.57,1.25-13.07-4l1.43,2.82s-6.07-2.92-8.36-5c0,0-3.25,5-8.48,4.62l-.62-1.38s-1.81,3-6.43,2.71l2.44-3.37s-2.14,3.29-8.38,3l3-2.53s-3.3,4-9.73,2.09l3.31-1.29s-7.54,1-10.88-1.83c0,0,6.09-.51,10-2.58a26.29,26.29,0,0,0,5.6-3.77s-7,4.28-12.85,2l3.2-1.11s-6.25,1.41-7.47-.08l3.73-1.37L-48.87,132s1.74-.39,4.32-1.13l-2.85-2.81a14.5,14.5,0,0,0,4.12.27c2.74-.12,12.28-4,12.28-4l-6.57.07,2.65-1.85s-7.11,2.17-9.86,1l4-1.87s-5.41,2.48-7.44,1.13l3.18-2.41L-49,120s16.4-3.78,17.93-7.11c0,0-6.12,2.53-10,2.17l2.47-2.16s-4.18,2-6.56,1.49l3-2.93-3.33,0,1.45-2.12-3.58.67s7.34-2.59,9.85-5.46a24.84,24.84,0,0,1-6.46.08s8.74-4,9.73-6.73c0,0-3.74,3.09-7.84,2.52l8.79-6.29-4.6.91,7.11-5.4s5.69-3.56-.62-2.76-7.24-2.09-7.24-2.09l4.77-.3-5.67-1.38s9,.29,12.23-1.72a9.85,9.85,0,0,0,4.16-5s-3.67,3.7-8.3,3.4l1.33-1.73s-4.67,1.91-6.78,1.77l8-4.83-4.39.73a28.16,28.16,0,0,0,10-4.7c4.37-3.45,3.63-4.51,3.63-4.51s-5.45,3-9.78,2.8.33-1.9.33-1.9l-5.51-.67s10.25-2.35,14.17-5.13,0-1.41-2.18-.64-6.81.56-8.4.25,9.09-3.14,11.9-5.88,1.92-2.93-.48-2.05c-9.37,3.45-8.07.29-8.57.25s4.79-1.11,4.79-1.11l-4.57-2.28a74,74,0,0,0,7.81-1.29c2.69-1,4-4,.88-3.83-6,.32-7.64-1.43-7.64-1.43l7.91-2.3L-24,40.18-16.69,39s-6.33-2.6-6.24-4,3.73,1.56,7.75,1.82c0,0-.61-1.35-1.95-4.06s.74-.46,2.24-.36S-15,29.07-15,29.07s0,.2,1.8.32-.78-2-.75-4.09.87-.85,1.82,0S-10,21.54-10,21.54Z" transform="translate(49.96 17.82)"/><polygon class="cls-30" points="341.27 51.38 342.54 54.04 343.84 51.2 342.68 40.08 341.27 51.38"/><path class="cls-30" d="M332.63,167.57c4.65-.66,5.58-3.58,5.58-3.58a8.55,8.55,0,0,1-7.84-1.07,12.76,12.76,0,0,0,4-1.32c-4,1.32-8.64,0-8.64,0-9.3-.93,4.52-5,4.52-5s-8.77-4.45-5.71-4.45,7.84-.93,5.84-.93-1.59-1.73-1.59-1.73,3.72-1.06-2.79-1.06-6-3.05-6-3.05h6.38l-4.12-1.6c3.72.53,9-.8,9-.8-2.39,0-5.44-2.12-5.44-2.12,5.71,0,5.44-4.52,5.44-4.52H319.48c-6.65,0-7.71-2.66-7.71-2.66h2.79S313,131.3,316,130.9a26.16,26.16,0,0,1,6,0s-4-1.46-2.52-1.72a26.78,26.78,0,0,1,4.78,0s-5.45-1.6-1.86-1.6a4.43,4.43,0,0,0,4.39-3.19H311.24c-9.43,0-5.58-2.79-5.58-2.79l11.69-1.19h-4.12L320,119l-4.12-1.33,9.83-.67-5.05-1.19,3.72-2.53c-8,1.46-16.07-2.65-16.07-2.65s2.52-2-.87-2.13S300,103.2,302.8,105s7.91,2.6,7.91,2.6-8.11-3.72.06-1.49,12.69-6.69,11-5.42-4.91-.47-4.91-.47,3.72-2.39.4-1.33-11.43-1.66-8.31-1.66,5.18-1.46,1.53-1.39a3.54,3.54,0,0,1-3.85-3.26l4.65.53c4.58.34,6.31-2.12,6.31-2.12a6.48,6.48,0,0,1-3.59-.4c3.39-.27,6.62-5.14,6.62-5.14s-6.25,2.79-11,2-5.45-2.52-1.75-3a9.65,9.65,0,0,0,7.82-5.94c-1.93,2-12.75,2.79-9.1,1.86S314.27,76,314.27,76s-6.88,2.69-9.94,2.69S304,77,304,77c13.06-1.82,15.85-8.6,15.85-8.6-1.77,1.93-12.86,1.69-10.8,1s4-4.78,2.54-3-5.47,1.53-4.4,1.53,1.39-2.6,1.39-2.6-8.5,1.07-6.44.93,4-1.86,2.26-1.79-1.6-.86,1.92-.93,3.06-2.13,3.06-2.13a3.85,3.85,0,0,1-3.59,0c5.58-1.59,8.42-5.14,8.08-4.94a32.16,32.16,0,0,1-16.53.29c-2.9-.81-2.61-3.2-.25-2,4.65,2.25,8.37,1,6.18,1A3.62,3.62,0,0,1,300.15,54c6.11,1.67,8.37-1.59,8.37-1.59a4.82,4.82,0,0,1-3.79.6c2-1,3.19-3.86,3.19-3.86-6.26,3.43-10.35.43-11.51,0L292.72,49c8,.74,10.22-2.4,10.22-2.4-6.18,1.2-4.19,0-4.19,0,4.19,0,5.58-5.18,5.58-5.18a38.81,38.81,0,0,1-5.58,2.19c5.58-2.19,5.18-8.37,5.18-8.37-2.79,3-8.81,2.92-8.81,2.92s8.24-2.93,6.65-3.6-8.82.8-7.21,0c4.2-2.06,3.43-4.3,3.43-4.3s-4.27,1.93-5.77,1.79-5.75-3-5.75-3,.15,4.06,3.4,5.5c1.72.77-4.22,0-7.5-.82-1.52-.37,1.68,3.94,4.1,4.71,3.93,1.26-1.48,0-6-3.21,0,0-.4,6.18,5.18,8.37a38.81,38.81,0,0,1-5.58-2.19s1.4,5.18,5.58,5.18c0,0,2,1.2-4.18,0,0,0-.44,3.25,7.6,2.51,0,0-6.33,3.44-12.59,0,0,0,1.2,2.86,3.19,3.86a4.8,4.8,0,0,1-3.78-.6s2.26,3.26,8.37,1.59a3.62,3.62,0,0,1-3.12,1.73c-2.2,0,1.52,1.26,6.17-1,2.37-1.15,1.91,2.23-1.06,2.72-8.34,1.37-13,.2-13.35,0s.13,2.39,5.71,4a3.85,3.85,0,0,1-3.59,0s-.46,2.06,3.06,2.13,3.65,1,1.93.93.19,1.66,2.25,1.79-6.44-.93-6.44-.93.33,2.6,1.4,2.6-3,.19-4.4-1.53.48,2.39,2.54,3-5.78.47-6.65-1.33c0,0,.53,3.86,5.32,4.79s-.27,1.39-.27,1.39A9.84,9.84,0,0,0,280.43,77s2.73,1.66-.33,1.66a24,24,0,0,1-5.84-.8s-.07,1.53,3.58,2.46-7.17.13-9.1-1.86a13.4,13.4,0,0,0,6.65,5.64s-3.33.6-5.45-1.26c0,0,8,6.11,3.12,5.52s-7.57-1.13-7.57-1.13a6.42,6.42,0,0,0,4.91,3.32,6.45,6.45,0,0,1-3.58.4s1.39,2,5,2.14a4.37,4.37,0,0,1,2.7,1c.31.28,0,.95-.5,1.71-1.42,2.09-11.36,2.88-12.25,2.2-1.66-1.26.53,5.79,11.16,5.79,8.47,0-3.06,7.5-14.61,6a6.73,6.73,0,0,0,5.42,5.88c5.57,1.32,9.66,1.52,8.26,1.3l-11.56,1.73s9.7,5.6,18.31,2.81c1.49-.48,3.86,2.79-5.58,2.79H257.65a4.43,4.43,0,0,0,4.38,3.19c3.59,0-1.86,1.6-1.86,1.6a26.88,26.88,0,0,1,4.79,0c1.46.26-2.53,1.72-2.53,1.72a26.16,26.16,0,0,1,6,0c3.06.4,1.46,2.79,1.46,2.79h2.79s-1.06,2.66-7.7,2.66H253.13s-.27,4.52,5.45,4.52c0,0-3.06,2.12-5.45,2.12,0,0,5.32,1.33,9,.8l-4.12,1.6h6.37s.54,3.05-6,3.05-2.8,1.06-2.8,1.06.4,1.73-1.59,1.73,2.79.93,5.85.93-2,2.53-2,2.53h3.72a3,3,0,0,1,3.09,3.1c-.1,1.61-1.36,3.34-6,3.81,0,0-4.65,1.32-8.64,0a12.76,12.76,0,0,0,4,1.32,8.55,8.55,0,0,1-7.84,1.07s.93,2.92,5.58,3.58a8.18,8.18,0,0,1-5.58.67s3.85,4.25,11,3.32a4.15,4.15,0,0,1-4.25,3.06c-3.47,0,11.34,2.61,16.88.25L263,178.2s11.16,2.4,17.54-4.11l-2.13,3.58s3.67-1.48,7.06-3.21c2.16-1.1,4.53-.56,6.75.41h.08c2.22-1,4.59-1.51,6.74-.41,3.39,1.73,7.06,3.21,7.06,3.21l-2.13-3.58c6.38,6.51,17.54,4.11,17.54,4.11l-6.91-3.33c5.54,2.36,20.35-.25,16.88-.25a4.16,4.16,0,0,1-4.26-3.06c7.18.93,11-3.32,11-3.32A8.2,8.2,0,0,1,332.63,167.57Z" transform="translate(49.96 17.82)"/><polygon class="cls-30" points="63.17 77.16 64.44 79.81 65.74 76.98 64.58 65.86 63.17 77.16"/><path class="cls-30" d="M54.53,193.35c4.65-.66,5.58-3.58,5.58-3.58a8.56,8.56,0,0,1-7.84-1.07,12.92,12.92,0,0,0,4-1.33c-4,1.33-8.64,0-8.64,0-9.3-.93,4.52-5,4.52-5s-8.77-4.45-5.71-4.45,7.84-.93,5.84-.93-1.59-1.73-1.59-1.73,3.72-1.06-2.79-1.06-6-3.06-6-3.06h6.38l-4.12-1.59c3.72.53,9-.8,9-.8-2.39,0-5.45-2.12-5.45-2.12,5.71,0,5.44-4.52,5.44-4.52H41.38c-6.64,0-7.71-2.66-7.71-2.66h2.79s-1.59-2.39,1.46-2.79a25.51,25.51,0,0,1,6,0s-4-1.46-2.52-1.72a26.78,26.78,0,0,1,4.78,0s-5.45-1.6-1.86-1.6a4.43,4.43,0,0,0,4.39-3.19H33.14c-9.43,0-5.58-2.79-5.58-2.79l11.69-1.19H35.13l6.78-1.47-4.12-1.32,9.83-.67-5-1.19L46.29,139c-8,1.46-16.07-2.66-16.07-2.66s2.52-2-.87-2.12-7.5-5.25-4.65-3.46,7.91,2.59,7.91,2.59-8.11-3.72.07-1.48,12.68-6.69,11-5.42-4.91-.47-4.91-.47,3.72-2.39.4-1.33S27.76,123,30.88,123s5.18-1.46,1.53-1.39a3.54,3.54,0,0,1-3.85-3.26l4.65.53c4.58.33,6.31-2.12,6.31-2.12a6.58,6.58,0,0,1-3.59-.4c3.39-.27,6.62-5.14,6.62-5.14s-6.24,2.79-11,2-5.45-2.53-1.75-3a9.65,9.65,0,0,0,7.82-5.94c-1.92,2-12.75,2.79-9.1,1.86s7.68-4.35,7.68-4.35-6.88,2.69-9.94,2.69-.33-1.66-.33-1.66C39,101,41.75,94.21,41.75,94.21,40,96.14,28.89,95.9,31,95.23s4-4.78,2.54-3S28,93.7,29.09,93.71s1.39-2.6,1.39-2.6S22,92.18,24,92s4-1.86,2.26-1.79-1.6-.86,1.92-.93,3.06-2.13,3.06-2.13a3.85,3.85,0,0,1-3.59,0c5.58-1.59,8.42-5.14,8.08-4.94a32.16,32.16,0,0,1-16.53.29c-2.9-.81-2.61-3.2-.25-2.06,4.65,2.26,8.37,1,6.18,1a3.62,3.62,0,0,1-3.12-1.73c6.11,1.66,8.37-1.59,8.37-1.59a4.88,4.88,0,0,1-3.79.6c2-1,3.19-3.86,3.19-3.86-6.26,3.43-10.35.43-11.51-.05l-3.68-.07c8,.74,10.21-2.4,10.21-2.4-6.18,1.19-4.19,0-4.19,0,4.19,0,5.58-5.18,5.58-5.18a38.81,38.81,0,0,1-5.58,2.19C26.23,67.2,25.83,61,25.83,61,23,64,17,63.94,17,63.94s8.24-2.93,6.64-3.6-8.82.8-7.21,0c4.2-2.07,3.43-4.3,3.43-4.3S15.62,58,14.12,57.83s-5.75-3-5.75-3,.15,4,3.4,5.5c1.72.77-4.22,0-7.5-.83-1.52-.37,1.68,3.94,4.1,4.72,3.93,1.26-1.48,0-6-3.21,0,0-.4,6.18,5.18,8.37A38.81,38.81,0,0,1,2,67.2s1.4,5.18,5.58,5.18c0,0,2,1.19-4.18,0,0,0-.44,3.25,7.6,2.51,0,0-6.33,3.44-12.58,0,0,0,1.19,2.86,3.18,3.86a4.85,4.85,0,0,1-3.78-.6s2.26,3.25,8.37,1.59a3.62,3.62,0,0,1-3.12,1.73c-2.2,0,1.52,1.26,6.17-1,2.37-1.14,1.91,2.24-1.06,2.73-8.34,1.37-13,.2-13.35,0s.13,2.39,5.71,4a3.85,3.85,0,0,1-3.59,0S-3.51,89.25,0,89.32s3.65,1,1.93.93S2.14,91.91,4.2,92s-6.45-.93-6.45-.93.33,2.6,1.4,2.6-3,.19-4.4-1.53.48,2.39,2.54,3-5.78.47-6.65-1.33c0,0,.53,3.86,5.32,4.79s-.27,1.39-.27,1.39a9.85,9.85,0,0,0,6.65,2.73s2.72,1.66-.34,1.66a24,24,0,0,1-5.84-.8s-.07,1.53,3.58,2.46-7.17.13-9.1-1.86a13.4,13.4,0,0,0,6.65,5.64s-3.33.6-5.45-1.26c0,0,8,6.11,3.12,5.52S-12.61,113-12.61,113a6.44,6.44,0,0,0,4.91,3.32,6.56,6.56,0,0,1-3.58.4s1.4,2,5,2.14a4.37,4.37,0,0,1,2.7,1c.31.27,0,.95-.5,1.71-1.42,2.09-11.35,2.88-12.25,2.2-1.66-1.26.53,5.78,11.16,5.78,8.47,0-3,7.51-14.61,6a6.73,6.73,0,0,0,5.42,5.88c5.57,1.32,9.66,1.52,8.26,1.3l-11.56,1.73s9.7,5.6,18.31,2.81c1.49-.48,3.86,2.79-5.58,2.79H-20.45a4.43,4.43,0,0,0,4.38,3.19c3.59,0-1.86,1.6-1.86,1.6a26.88,26.88,0,0,1,4.79,0c1.46.26-2.53,1.72-2.53,1.72a25.51,25.51,0,0,1,6,0c3.06.4,1.46,2.79,1.46,2.79h2.79s-1.06,2.66-7.7,2.66H-25s-.26,4.52,5.45,4.52c0,0-3.06,2.12-5.45,2.12,0,0,5.32,1.33,9,.8L-20,171.16h6.37s.54,3.06-6,3.06-2.79,1.06-2.79,1.06S-22,177-24,177s2.79.93,5.85.93-2,2.53-2,2.53h3.72a3,3,0,0,1,3.09,3.1c-.1,1.61-1.36,3.34-6,3.8,0,0-4.65,1.33-8.63,0a12.79,12.79,0,0,0,4,1.33,8.55,8.55,0,0,1-7.84,1.07s.93,2.92,5.58,3.58a8.18,8.18,0,0,1-5.58.67s3.86,4.25,11,3.32a4.14,4.14,0,0,1-4.25,3.06c-3.47,0,11.34,2.61,16.88.25L-15.14,204S-4,206.37,2.4,199.86L.28,203.45s3.66-1.48,7.05-3.21c2.16-1.1,4.53-.56,6.75.4,0,0,0,0,0,0s0,0,0,0c2.22-1,4.59-1.5,6.74-.4C24.29,202,28,203.45,28,203.45l-2.13-3.59c6.38,6.51,17.54,4.12,17.54,4.12l-6.91-3.33c5.54,2.36,20.35-.25,16.88-.25a4.16,4.16,0,0,1-4.26-3.06c7.18.93,11-3.32,11-3.32A8.2,8.2,0,0,1,54.53,193.35Z" transform="translate(49.96 17.82)"/><g class="cls-31"><path class="cls-32" d="M87.2,112.39l12.11-7.23c-3.3,0-16.34,4.36-23.87,7Z" transform="translate(49.96 17.82)"/><path class="cls-33" d="M102.35,107.5l-.46-1.86,13.25-2,2.15,2.9-.67-2.9,3,2-1.23-2.57L131,99.14l6.19-1.31a6.94,6.94,0,0,1,5.73,1.33l4.15,3.24-5-6,3.57,2.23-.56-3.24.5-.23a5.34,5.34,0,0,1,5.78.89l3.43,3.11-4-5.46h1.56l4.58,4.7-2.57-6h4l2.12,3.12V92.36L163,98.27V92.36h2.34l6.36,8.59L168,93.68l.44-2.66,1.89-1.12,3.47,4.82-.3-5.81,7.26,7.63-3.45-7.63,4.41,3.57c-.71-1.4-1.56-4.57,0-4.19l4.67,1.14a6,6,0,0,1,3.21,2l5.94,7.21-3.75-6.18a1.81,1.81,0,0,1,1.15-2.69l2-.45a3.45,3.45,0,0,1,3.18.89c2.69,2.62,8.38,8.1,7.06,6.35-1.11-1.47-2.77-3.63-4.14-5.4a3.27,3.27,0,0,1,1-4.88l2.26-1.21a5,5,0,0,1,4.17-.23l12.62,8.2-13-9.73,1.54-.84a1.73,1.73,0,0,1,1.44-.12l4.83,1.74L214,82.45a1.75,1.75,0,0,1,.12-2.77L218,76.92a8.12,8.12,0,0,1,6.81-1.18h0l-.22-.23a1.23,1.23,0,0,1,.77-2.1h0a17.85,17.85,0,0,1,7.37,4.48l9.67,9.78L232.09,72.05h2.23l7.47-4.33a4.7,4.7,0,0,1,4.7,0l3,1.76-3.28-4.58,1.6-.89,3.57,2.9h0a3.21,3.21,0,0,1,2.33-4.63l.35,0,3.64-.56a10.68,10.68,0,0,1,11,5.46h0l-.56-4.23,1.78,1.78,2.4,4.91V64.91l6.86,6.47,3.22-.56-17-11.77L249,61.72l-15.7,9.42H222.83L208.17,81.61s-13.61,7.33-15.7,7.33-16.75-2.62-16.75-2.62L165.78,91H152.17s-24.07,9.42-31.4,10.47-16.75,3.66-21.46,3.66Z" transform="translate(49.96 17.82)"/></g><path class="cls-27" d="M125.11,67.34a29.67,29.67,0,0,1,3.8,1.45L145.4,54l40-8.37,1.37-.5A39.2,39.2,0,1,0,111.47,66.9C116.59,66.71,122.7,66.65,125.11,67.34Z" transform="translate(49.96 17.82)"/></g></g></g></g></svg>